<svg id="dollar-symbol" xmlns="http://www.w3.org/2000/svg" width="30.48" height="30.48" viewBox="0 0 30.48 30.48">
  <path id="Path_21" data-name="Path 21" d="M15.24,0A15.24,15.24,0,1,0,30.48,15.24,15.24,15.24,0,0,0,15.24,0Zm.923,22.029v1.764a.472.472,0,0,1-.49.476H14.5a.479.479,0,0,1-.5-.476V22.184a10.1,10.1,0,0,1-3-.594.942.942,0,0,1-.578-1.114l.192-.747a.943.943,0,0,1,1.253-.645,7.567,7.567,0,0,0,2.71.526c1.264,0,2.13-.488,2.13-1.376,0-.843-.71-1.376-2.352-1.931-2.374-.8-4-1.907-4-4.06,0-1.952,1.381-3.483,3.743-3.949V6.687a.53.53,0,0,1,.511-.522h1.176a.5.5,0,0,1,.478.522V8.14a8.757,8.757,0,0,1,2.4.4A.945.945,0,0,1,19.29,9.67l-.168.669A.941.941,0,0,1,17.9,11a6.792,6.792,0,0,0-2.242-.371c-1.442,0-1.908.621-1.908,1.243,0,.732.777,1.2,2.662,1.908,2.64.932,3.7,2.152,3.7,4.148C20.115,19.9,18.721,21.586,16.163,22.029Z" fill="#0590ff"/>
</svg>
