<?xml version="1.0" standalone="no"?>
<!DOCTYPE svg PUBLIC "-//W3C//DTD SVG 20010904//EN"
 "http://www.w3.org/TR/2001/REC-SVG-20010904/DTD/svg10.dtd">
<svg version="1.0" xmlns="http://www.w3.org/2000/svg"
 width="1414.000000pt" height="1414.000000pt" viewBox="0 0 1414.000000 1414.000000"
 preserveAspectRatio="xMidYMid meet">
<metadata>
Created by potrace 1.11, written by Peter Selinger 2001-2013
</metadata>
<g transform="translate(0.000000,1414.000000) scale(0.100000,-0.100000)"
fill="#000000" stroke="none">
<path d="M6290 14009 c0 -5 19 -50 75 -174 7 -16 79 -178 160 -360 80 -181
155 -349 165 -372 11 -23 54 -120 96 -215 96 -219 188 -425 225 -506 16 -35
29 -65 29 -67 0 -3 14 -35 31 -72 17 -38 58 -129 91 -203 33 -74 69 -155 80
-180 11 -25 28 -63 38 -85 10 -22 53 -119 96 -215 42 -96 90 -204 106 -240 16
-36 36 -78 43 -95 7 -16 19 -46 28 -65 8 -19 26 -60 40 -90 14 -30 62 -138
107 -240 45 -102 88 -198 95 -215 8 -16 132 -295 275 -620 144 -324 278 -624
297 -665 19 -41 53 -117 75 -169 22 -52 44 -101 49 -110 8 -15 88 -193 179
-401 20 -47 64 -146 97 -220 34 -74 116 -259 183 -410 67 -151 133 -300 147
-330 14 -30 31 -68 38 -85 7 -16 22 -50 33 -75 23 -53 267 -601 287 -645 33
-73 208 -465 394 -883 111 -249 210 -471 220 -495 52 -113 131 -295 131 -298
0 -2 -844 -4 -1875 -4 l-1874 0 -82 -185 c-45 -102 -93 -210 -106 -240 -14
-30 -49 -109 -78 -175 -29 -66 -67 -151 -85 -190 -17 -38 -38 -83 -45 -100
-170 -382 -215 -487 -211 -493 2 -4 1122 -7 2489 -7 l2486 1 122 -276 c67
-151 133 -300 146 -330 14 -30 61 -136 105 -235 43 -99 85 -193 93 -210 7 -16
32 -73 55 -125 23 -52 55 -123 71 -158 16 -35 29 -65 29 -67 0 -2 13 -32 29
-67 16 -35 44 -99 64 -143 19 -44 46 -105 60 -135 31 -68 8 -18 352 -795 158
-357 298 -672 310 -700 75 -166 185 -418 185 -423 0 -4 380 -7 845 -7 465 0
845 1 845 3 0 2 -20 46 -45 99 -25 52 -45 97 -45 100 0 2 -11 28 -24 56 -13
29 -38 84 -56 122 -18 39 -60 133 -95 210 -34 77 -76 169 -93 205 -30 66 -384
847 -552 1220 -51 113 -137 304 -192 425 -55 121 -117 258 -138 305 -21 47
-52 117 -70 155 -29 63 -186 410 -310 685 -47 105 -66 147 -122 270 -17 36
-50 110 -75 165 -25 55 -58 127 -73 160 -15 33 -57 125 -93 205 -35 80 -162
361 -282 625 -119 264 -280 620 -357 790 -78 171 -154 339 -170 375 -17 36
-49 108 -73 160 -46 102 -269 595 -308 682 -33 72 -58 127 -112 249 -26 57
-57 127 -70 154 -12 28 -32 70 -43 95 -11 25 -39 85 -61 133 -23 49 -41 90
-41 92 0 3 -30 69 -100 220 -10 22 -62 137 -115 255 -54 118 -112 248 -131
288 -19 40 -34 74 -34 77 0 2 -25 56 -55 120 -30 65 -55 119 -55 121 0 2 -15
37 -34 76 -32 70 -50 111 -97 216 -12 26 -32 70 -44 97 -26 57 -269 594 -289
640 -8 17 -27 59 -44 95 -16 36 -41 90 -54 120 -47 103 -260 575 -280 620 -24
54 -170 374 -203 445 -13 28 -127 282 -255 565 -128 283 -245 542 -260 575
-41 90 -310 684 -330 730 -9 22 -31 70 -49 108 -17 37 -49 107 -70 155 -21 48
-53 119 -71 157 -18 39 -49 108 -70 155 -21 47 -56 125 -79 173 -22 49 -41 93
-41 97 0 5 -6 12 -12 17 -15 10 -1568 12 -1568 2z"/>
<path d="M6012 13420 c-11 -25 -55 -124 -99 -220 -44 -96 -90 -197 -103 -225
-24 -54 -106 -233 -150 -330 -15 -33 -38 -82 -50 -110 -32 -70 -178 -390 -205
-450 -13 -27 -49 -106 -80 -175 -31 -69 -71 -154 -87 -190 -17 -36 -47 -103
-68 -150 -21 -47 -51 -114 -68 -150 -17 -36 -53 -114 -80 -175 -27 -60 -63
-139 -80 -175 -16 -36 -62 -135 -100 -220 -83 -184 -116 -258 -147 -325 -13
-27 -33 -72 -45 -100 -57 -126 -185 -408 -220 -480 -48 -101 -110 -235 -110
-240 0 -2 -18 -42 -40 -89 -22 -47 -40 -88 -40 -90 0 -2 -22 -52 -50 -111 -27
-59 -50 -108 -50 -110 0 -2 -15 -36 -34 -77 -18 -40 -70 -156 -115 -258 -45
-102 -86 -193 -92 -203 -5 -10 -36 -77 -68 -150 -32 -73 -70 -157 -84 -187
-14 -30 -55 -122 -92 -205 -37 -82 -75 -168 -85 -190 -25 -57 -670 -1493 -705
-1570 -7 -16 -26 -57 -41 -90 -14 -33 -38 -85 -51 -115 -14 -30 -33 -73 -43
-95 -10 -22 -68 -152 -129 -288 -62 -136 -122 -271 -135 -300 -13 -29 -68
-149 -121 -267 -53 -118 -108 -240 -122 -270 -14 -30 -33 -73 -43 -95 -10 -22
-29 -65 -43 -95 -14 -30 -57 -127 -97 -215 -40 -88 -82 -182 -95 -210 -13 -27
-34 -75 -48 -105 -13 -30 -121 -269 -240 -530 -118 -261 -268 -592 -332 -735
-65 -143 -133 -293 -151 -333 -19 -40 -34 -75 -34 -77 0 -3 -16 -37 -35 -75
-19 -39 -35 -72 -35 -75 -1 -2 -14 -33 -29 -67 -206 -455 -278 -615 -307 -676
-19 -41 -34 -75 -34 -77 0 -2 -22 -51 -50 -110 -28 -59 -50 -108 -50 -110 0
-3 -39 -89 -175 -390 -7 -16 -27 -59 -43 -95 -17 -36 -51 -110 -75 -165 -25
-55 -59 -131 -77 -170 -17 -38 -41 -90 -52 -115 -100 -220 -168 -371 -168
-373 0 -1 1197 0 1541 3 l65 0 31 67 c17 38 120 266 228 508 109 242 207 463
220 490 12 28 57 129 100 225 43 96 81 180 85 185 4 6 14 28 22 50 15 38 192
431 244 542 13 28 24 54 24 57 0 3 17 42 39 88 21 46 53 117 71 158 18 41 46
104 62 140 37 79 186 413 239 533 22 48 56 126 78 175 48 108 243 545 270 604
10 24 65 147 121 273 56 127 112 253 125 280 12 28 57 129 100 225 42 96 92
208 111 248 19 40 34 75 34 77 0 3 16 39 35 81 19 41 35 77 35 79 0 3 16 38
97 215 14 30 32 73 41 95 8 22 18 45 22 50 4 6 29 60 55 120 26 61 58 133 70
160 13 28 96 214 185 415 143 323 188 424 261 587 10 23 53 120 95 215 42 95
87 198 101 228 14 30 31 69 38 85 7 17 29 65 49 108 20 44 36 81 36 83 0 2 18
43 40 90 22 47 40 88 40 90 0 4 56 128 77 169 8 17 71 156 140 310 69 154 133
298 143 320 10 22 48 108 85 190 37 83 75 168 85 190 10 22 109 245 220 495
111 250 211 475 222 500 96 211 787 1770 792 1787 7 21 -2 47 -79 218 -12 28
-42 93 -65 145 -23 52 -50 113 -60 135 -10 22 -134 301 -275 620 -141 319
-261 587 -265 595 -7 11 -13 4 -28 -30z"/>
<path d="M7022 11139 c-11 -24 -45 -102 -77 -174 -32 -71 -69 -155 -82 -185
-26 -57 -118 -263 -184 -412 -21 -49 -55 -123 -75 -165 -80 -170 -114 -244
-114 -248 0 -3 -11 -28 -24 -57 -13 -29 -61 -136 -106 -238 -45 -102 -90 -203
-100 -225 -10 -22 -99 -224 -199 -448 -100 -224 -190 -427 -200 -450 -11 -23
-33 -73 -50 -110 -17 -38 -31 -70 -31 -72 0 -2 -15 -36 -34 -77 -19 -40 -60
-131 -91 -203 -32 -71 -69 -155 -82 -185 -14 -30 -34 -75 -45 -100 -37 -86
-46 -105 -73 -165 -15 -33 -144 -323 -287 -645 -143 -322 -264 -589 -267 -595
-4 -5 -23 -47 -41 -92 -19 -46 -37 -83 -42 -83 -4 0 -8 -5 -8 -11 0 -10 -50
-127 -133 -309 -13 -30 -46 -104 -72 -165 -104 -243 -174 -400 -225 -510 -21
-44 -369 -827 -774 -1740 -406 -913 -746 -1672 -757 -1687 -10 -15 -46 -88
-78 -162 -33 -74 -82 -183 -109 -243 -27 -59 -59 -128 -70 -153 -11 -25 -97
-218 -192 -430 -222 -494 -300 -670 -300 -674 0 -1 361 -2 801 -2 702 1 803 3
810 16 8 15 38 84 69 155 9 22 26 60 37 85 43 94 65 145 223 500 89 201 170
383 180 405 76 168 140 317 138 323 -1 4 8 30 20 57 13 28 49 108 81 180 l58
130 2476 0 2476 0 30 -70 c17 -38 64 -149 106 -245 86 -197 86 -196 148 -340
25 -58 70 -161 100 -230 30 -69 132 -305 227 -525 95 -220 176 -404 180 -408
6 -7 1401 -12 1667 -7 20 0 21 2 8 28 -7 15 -67 149 -133 297 -65 149 -128
290 -139 315 -12 25 -80 180 -153 345 -73 165 -143 323 -155 350 -13 28 -76
169 -140 315 -113 257 -247 558 -298 670 -13 30 -39 89 -57 130 -18 41 -50
112 -71 158 -22 46 -39 86 -39 88 0 3 -13 33 -28 67 -16 34 -67 148 -113 252
-46 105 -87 192 -90 195 -4 3 -1216 5 -2693 5 -1477 -1 -2686 1 -2686 4 0 5
117 272 166 378 20 43 83 184 141 313 58 129 118 263 134 298 16 35 29 65 29
68 0 2 18 43 40 90 22 47 40 87 40 89 0 2 13 32 29 67 22 47 406 912 642 1446
11 23 28 63 40 89 12 26 57 128 101 227 44 100 97 219 118 266 21 47 91 204
155 350 64 146 130 293 146 328 16 35 29 65 29 66 0 2 16 39 36 82 l36 78 28
-64 c73 -169 274 -629 290 -665 10 -22 64 -146 120 -275 56 -129 110 -253 120
-275 16 -37 71 -163 107 -245 8 -19 23 -53 33 -75 10 -22 46 -105 80 -185 34
-80 66 -149 71 -154 8 -9 1615 -13 1624 -5 3 4 -117 280 -259 594 -8 17 -66
149 -131 295 -117 265 -341 770 -375 845 -10 22 -224 504 -475 1070 -251 567
-467 1053 -480 1080 -30 65 -47 105 -140 315 -43 96 -89 200 -102 230 -14 30
-50 111 -80 180 -30 69 -65 148 -78 175 -12 28 -89 201 -170 385 -82 184 -152
339 -156 344 -4 4 -16 -11 -27 -35z"/>
</g>
</svg>
