<svg xmlns="http://www.w3.org/2000/svg" width="26.855" height="31.533" viewBox="0 0 26.855 31.533">
  <g id="linux" transform="translate(0)">
    <path id="Tracé_1119" data-name="Tracé 1119" d="M111.449,114.836c1.663.2,3.532,1.276,5.1,1.466a1.872,1.872,0,0,0,2.059-1.071,21.319,21.319,0,0,1,3.629-.441,15.24,15.24,0,0,1,3.624.387,2.616,2.616,0,0,0,.98,1.124,2.579,2.579,0,0,0,2.892-.532,24.024,24.024,0,0,1,4.557-2.846c1.33-.737,1.086-1.862.251-2.2a1.933,1.933,0,0,1-1.466-1.914,2.33,2.33,0,0,0-.737-1.708,7.77,7.77,0,0,0,.047-4.124c-.638-1.86-2.742-4.851-4.36-7.1s-.244-4.86-1.717-8.187-5.292-3.136-7.351-1.715-1.427,4.944-1.328,6.615a9.72,9.72,0,0,1-.145,3.281c-.19.434-1.518,2.011-2.4,3.333s-1.518,4.07-2.163,5.2a2.578,2.578,0,0,0-.19,2.15,1.624,1.624,0,0,0-.789.889c-.342.729-1.025,1.077-2.256,1.315s-1.222,1.039-.927,1.921,0,1.374-.342,2.5S109.779,114.639,111.449,114.836Zm17.287-5.129a2.725,2.725,0,0,0,2.511-.532,3.956,3.956,0,0,0,.65-.946.787.787,0,0,1,.343.794,2.022,2.022,0,0,0,.835,1.789c.572.3,1.446.722.993,1.143s-3.013,1.448-3.776,2.249-1.749,1.448-2.353,1.256-1.145-1.025-.882-2.247a15.149,15.149,0,0,0,.461-3.314c-.04-.762-.19-1.789,0-1.941a.657.657,0,0,1,.493-.077S127.861,109.327,128.736,109.707Zm-5.669-20.6a1.716,1.716,0,0,1,1.52,1.862,1.928,1.928,0,0,1-.842,1.663c-.126-.052-.258-.111-.4-.172a1.069,1.069,0,0,0,.513-.973.952.952,0,0,0-.8-1.052c-.434,0-.8.475-.8,1.052a1.3,1.3,0,0,0,.138.586c-.263-.106-.5-.2-.69-.269a2.269,2.269,0,0,1-.158-.835A1.715,1.715,0,0,1,123.067,89.108Zm-2.084,3.208a20.418,20.418,0,0,1,1.973.717c.421.145.887.414.842.683s-.269.278-.842.626a11.547,11.547,0,0,1-2.2,1.156c-.394.052-.618-.17-1.039-.441s-1.21-.921-1.012-1.262c0,0,.618-.473.887-.715S120.562,92.238,120.983,92.316ZM119.168,89.4c.663,0,1.2.789,1.2,1.762a2.629,2.629,0,0,1-.052.507,1.355,1.355,0,0,0-.488.276c-.077.066-.15.125-.215.19a1.277,1.277,0,0,0,.1-.776c-.091-.525-.446-.914-.795-.862s-.559.54-.475,1.072.441.927.8.869l.059-.02a4.391,4.391,0,0,1-.493.428,1.835,1.835,0,0,1-.835-1.683C117.972,90.187,118.5,89.4,119.168,89.4Zm-3.695,12.735c.683-1.077,1.124-3.432,1.808-4.215a4.352,4.352,0,0,0,.98-3.181s1.473,1.762,2.5,1.473,3.335-2.011,3.676-1.717,3.281,6.76,3.577,8.819a9.007,9.007,0,0,1-.2,3.629s-1.124-.3-1.269.387a29.208,29.208,0,0,0-.145,3.19,6.575,6.575,0,0,1-3.873,2.452,11.214,11.214,0,0,1-3.532.093l-1.321-1.513a1.026,1.026,0,0,0,.882-1.183c-.145-1.025-3.138-2.446-3.676-3.722A5.774,5.774,0,0,1,115.474,102.139Zm-5.819,7.719c.118-.5,1.643-.5,2.229-.86s.7-1.375,1.177-1.644,1.328.7,1.683,1.256a40.53,40.53,0,0,0,2.229,3.479,2.575,2.575,0,0,1,.9,2.077,2.342,2.342,0,0,1-.98,1.217c-.742.229-2.813-.665-3.754-1.059s-3.335-.513-3.643-.862.151-1.138.276-1.88S109.535,110.365,109.655,109.859Z" transform="translate(-108.367 -85)" fill="#fff"/>
  </g>
</svg>
