<svg xmlns="http://www.w3.org/2000/svg" width="21.312" height="25.983" viewBox="0 0 21.312 25.983">
  <defs>
    <style>
      .cls-1 {
        fill: #463af3;
      }
    </style>
  </defs>
  <g id="apple" transform="translate(-46.022)">
    <path id="Tracé_11" data-name="Tracé 11" class="cls-1" d="M53.088,137.955c-3.867-.022-7.066-7.916-7.066-11.937,0-6.567,4.926-8,6.825-8a7.854,7.854,0,0,1,2.575.633,5.756,5.756,0,0,0,1.47.422,4.575,4.575,0,0,0,1.055-.342,8.455,8.455,0,0,1,3.179-.769h.007a6.517,6.517,0,0,1,5.453,2.754l.4.6-.572.432a4.817,4.817,0,0,0-2.31,3.972,4.483,4.483,0,0,0,2.5,4.144c.358.216.729.438.729.924,0,.317-2.533,7.133-6.212,7.133a5,5,0,0,1-2.1-.509,4.254,4.254,0,0,0-1.867-.45,4.8,4.8,0,0,0-1.479.4,7.242,7.242,0,0,1-2.565.6Z" transform="translate(0 -111.972)"/>
    <path id="Tracé_12" data-name="Tracé 12" class="cls-1" d="M260.036,0c.1,3.455-2.375,5.851-4.843,5.7C254.786,2.944,257.661,0,260.036,0Z" transform="translate(-198.519)"/>
  </g>
</svg>
