<svg xmlns="http://www.w3.org/2000/svg" width="26.018" height="20.136" viewBox="0 0 26.018 20.136">
  <defs>
    <style>
      .cls-1 {
        fill: #fff;
      }
    </style>
  </defs>
  <g id="playstation-logotype" transform="translate(0 -12.063)">
    <g id="Groupe_8" data-name="Groupe 8" transform="translate(0 12.063)">
      <path id="Tracé_16" data-name="Tracé 16" class="cls-1" d="M2.853,61.135l-.878.341c-1.316.561-2,1.146-1.975,1.658.073.756.926,1.316,2.487,1.731a15.113,15.113,0,0,0,6.192.341V63.085h0L7,63.719a3.409,3.409,0,0,1-2.657.1c-.268-.171-.39-.585.341-.853l.926-.341,3.072-1.1V59.063l-.78.268Z" transform="translate(0 -47.605)"/>
      <path id="Tracé_17" data-name="Tracé 17" class="cls-1" d="M46.608,17.036V23.35a3.144,3.144,0,0,0,3.364.024,3.836,3.836,0,0,0,1.39-3.389,5.891,5.891,0,0,0-1.1-3.925,7.409,7.409,0,0,0-3.705-2.316c-2.243-.731-4.144-1.365-5.656-1.682V30.956L44.974,32.2V16.5C44.95,15.549,46.608,15.622,46.608,17.036Z" transform="translate(-30.932 -12.063)"/>
      <path id="Tracé_18" data-name="Tracé 18" class="cls-1" d="M72.749,65.184c-.024-.658-.8-1.17-2.194-1.633a12.2,12.2,0,0,0-4.364-.707,16.445,16.445,0,0,0-4.388.926v2.413l3.949-1.39a4.31,4.31,0,0,1,2.218-.171c.78.2.731.634-.049.9l-.9.366L61.8,67.768v2.462l2.438-.878,5.851-2.072.683-.317C72.188,66.452,72.822,65.891,72.749,65.184Z" transform="translate(-46.737 -50.46)"/>
    </g>
  </g>
</svg>
