<svg id="nintendo-switch" xmlns="http://www.w3.org/2000/svg" width="25.983" height="25.983" viewBox="0 0 25.983 25.983">
  <defs>
    <style>
      .cls-1 {
        fill: #fff;
      }
    </style>
  </defs>
  <path id="Tracé_13" data-name="Tracé 13" class="cls-1" d="M286.887,0H281V25.983h5.887a5.843,5.843,0,0,0,5.836-5.836V5.836A5.843,5.843,0,0,0,286.887,0Zm-.025,16.848a3.07,3.07,0,1,1,3.07-3.07A3.074,3.074,0,0,1,286.861,16.848Z" transform="translate(-266.74)"/>
  <g id="Groupe_7" data-name="Groupe 7">
    <path id="Tracé_14" data-name="Tracé 14" class="cls-1" d="M12.738,25.983h-6.9A5.843,5.843,0,0,1,0,20.147V5.836A5.843,5.843,0,0,1,5.836,0h6.9ZM5.836,1.522A4.319,4.319,0,0,0,1.522,5.836V20.147a4.319,4.319,0,0,0,4.314,4.314h5.379V1.522Z"/>
    <path id="Tracé_15" data-name="Tracé 15" class="cls-1" d="M68.07,96.141a3.07,3.07,0,1,1,3.07-3.07A3.074,3.074,0,0,1,68.07,96.141Z" transform="translate(-61.701 -85.433)"/>
  </g>
</svg>
