<svg xmlns="http://www.w3.org/2000/svg" width="26.009" height="26.012" viewBox="0 0 26.009 26.012">
  <defs>
    <style>
      .cls-1 {
        fill: #fff;
      }
    </style>
  </defs>
  <g id="xbox-logo" transform="translate(-0.002)">
    <path id="Tracé_23" data-name="Tracé 23" class="cls-1" d="M5.8,2.207c-.013.01-.023.021-.035.031a1.573,1.573,0,0,1,.25-.207,12.635,12.635,0,0,1,7-2.031,12.934,12.934,0,0,1,6.68,1.847,3.388,3.388,0,0,1,.727.589h0C18.531.361,13,4.816,13,4.816a16.119,16.119,0,0,0-4.987-2.84A2.533,2.533,0,0,0,5.8,2.207ZM22.548,4.17c-.058-.064-.12-.123-.178-.189a1.892,1.892,0,0,0-1.589-.615A15.1,15.1,0,0,0,15.347,6.9a37.529,37.529,0,0,1,4.963,6.053c1.883,3.06,3.009,5.465,2.317,8.8a13,13,0,0,0-.08-17.584Zm-4.7,10.089c-.835-.937-2.077-2.28-3.718-3.911q-.538-.535-1.136-1.114s-.6.6-1.38,1.388h0c-1,1.009-2.294,2.325-3.012,3.093-1.28,1.366-4.946,5.655-5.152,8.06,0,0-.816-1.908.974-6.307,1.17-2.876,4.7-7.194,6.18-8.6A15.652,15.652,0,0,0,7.563,4.356l-.01,0s-.019-.015-.05-.034A5.861,5.861,0,0,0,4.946,3.41a2.261,2.261,0,0,0-1.426.7A13.005,13.005,0,1,0,22.63,21.755a11.129,11.129,0,0,0-2.024-4.178C20.194,17,18.691,15.2,17.849,14.258Z" transform="translate(0)"/>
  </g>
</svg>
