<svg id="bitcoin" xmlns="http://www.w3.org/2000/svg" width="97.285" height="97.296" viewBox="0 0 97.285 97.296">
  <defs>
    <style>
      .cls-1 {
        fill: #f7931a;
      }

      .cls-2 {
        fill: #fff;
      }
    </style>
  </defs>
  <path id="Tracé_1082" data-name="Tracé 1082" class="cls-1" d="M95.834,60.417A48.632,48.632,0,1,1,60.408,1.455,48.638,48.638,0,0,1,95.834,60.417Z" transform="translate(-0.004 0.001)"/>
  <path id="Tracé_1083" data-name="Tracé 1083" class="cls-2" d="M62,35.916c.967-6.473-3.962-9.953-10.7-12.274l2.186-8.769-5.339-1.33-2.128,8.538c-1.4-.35-2.843-.68-4.275-1.006l2.144-8.594-5.335-1.33L36.36,19.916c-1.161-.265-2.3-.526-3.408-.8l.006-.027L25.6,17.249l-1.42,5.7s3.96.908,3.877.964a2.839,2.839,0,0,1,2.487,3.1l-2.49,9.99a4.421,4.421,0,0,1,.555.178l-.562-.14L24.551,51.04A1.943,1.943,0,0,1,22.1,52.308c.053.078-3.88-.968-3.88-.968l-2.65,6.111,6.948,1.732c1.292.324,2.559.663,3.8.982l-2.209,8.871,5.332,1.33,2.189-8.775c1.455.4,2.869.76,4.252,1.1l-2.18,8.734,5.338,1.33,2.209-8.852c9.1,1.722,15.947,1.028,18.825-7.2,2.321-6.628-.114-10.452-4.9-12.946,3.487-.807,6.114-3.1,6.815-7.84Zm-12.2,17.1c-1.651,6.628-12.81,3.047-16.429,2.147L36.3,43.414c3.618.9,15.219,2.691,13.5,9.6Zm1.649-17.2c-1.505,6.029-10.794,2.966-13.808,2.215L40.3,27.379C43.312,28.13,53.017,29.531,51.448,35.821Z" transform="translate(8.097 5.802)"/>
</svg>
