<?xml version="1.0" encoding="utf-8"?>
<!-- Generator: Adobe Illustrator 24.3.0, SVG Export Plug-In . SVG Version: 6.00 Build 0)  -->
<svg version="1.1" id="Calque_1" xmlns="http://www.w3.org/2000/svg" xmlns:xlink="http://www.w3.org/1999/xlink" x="0px" y="0px"
	 viewBox="0 0 418 248" style="enable-background:new 0 0 418 248;" xml:space="preserve">
<style type="text/css">
	.st0{fill:#463AF3;}
	.st1{fill:#FFFEFF;}
	.st2{enable-background:new    ;}
	.st3{fill:#FFFFFF;}
</style>
<g transform="matrix(1, 0, 0, 1, -9.07, -6.07)">
	<path id="Rectangle_1629-2" class="st0" d="M38.1,12.1h360c11,0,20,9,20,20v190c0,11-9,20-20,20h-360c-11,0-20-9-20-20v-190
		C18.1,21,27,12.1,38.1,12.1z"/>
</g>
<path id="Tracé_1122" class="st1" d="M235.3,61l-5.8-6.7l0.8-8.8l-8.6-2l-4.5-7.6l-8.1,3.5l-8.1-3.5l-4.5,7.6l-8.6,1.9l0.8,8.8
	l-5.8,6.7l5.8,6.7l-0.8,8.8l8.6,2l4.5,7.6l8.1-3.5l8.1,3.5l4.5-7.6l8.6-2l-0.8-8.8L235.3,61z M204.2,73l-9.6-9.6L198,60l6.2,6.2
	L220,50.5l3.4,3.4L204.2,73z"/>
<g class="st2">
	<path class="st3" d="M89.8,118.9c-1.8-1-3.3-2.4-4.4-4.1c-1.1-1.8-1.6-3.7-1.6-6s0.5-4.2,1.6-6s2.5-3.1,4.4-4.1
		c1.8-1,3.9-1.5,6.2-1.5c1.9,0,3.7,0.3,5.3,1c1.6,0.7,2.9,1.7,4,2.9l-3.3,3.1c-1.5-1.7-3.4-2.6-5.6-2.6c-1.4,0-2.6,0.3-3.7,0.9
		c-1.1,0.6-1.9,1.5-2.5,2.5c-0.6,1.1-0.9,2.3-0.9,3.7s0.3,2.6,0.9,3.7c0.6,1.1,1.5,1.9,2.5,2.5c1.1,0.6,2.3,0.9,3.7,0.9
		c2.2,0,4.1-0.9,5.6-2.7l3.3,3.1c-1.1,1.3-2.4,2.3-4,3s-3.3,1-5.3,1C93.7,120.4,91.7,119.9,89.8,118.9z"/>
	<path class="st3" d="M111.1,119.2c-1.4-0.8-2.6-1.8-3.4-3.2c-0.8-1.3-1.2-2.9-1.2-4.6c0-1.7,0.4-3.2,1.2-4.6
		c0.8-1.3,1.9-2.4,3.4-3.2c1.4-0.8,3.1-1.1,4.9-1.1c1.8,0,3.4,0.4,4.9,1.1c1.4,0.8,2.5,1.8,3.4,3.2c0.8,1.3,1.2,2.9,1.2,4.6
		c0,1.7-0.4,3.2-1.2,4.6c-0.8,1.3-1.9,2.4-3.4,3.2c-1.4,0.8-3.1,1.1-4.9,1.1C114.2,120.3,112.5,119.9,111.1,119.2z M119.1,114.9
		c0.8-0.9,1.2-2,1.2-3.5c0-1.5-0.4-2.6-1.2-3.5s-1.9-1.3-3.2-1.3c-1.3,0-2.3,0.4-3.2,1.3s-1.2,2-1.2,3.5c0,1.5,0.4,2.6,1.2,3.5
		c0.8,0.9,1.9,1.3,3.2,1.3C117.3,116.2,118.3,115.8,119.1,114.9z"/>
	<path class="st3" d="M144.4,104.5c1.3,1.3,2,3.2,2,5.7v9.9h-5v-9.1c0-1.4-0.3-2.4-0.9-3.1c-0.6-0.7-1.5-1-2.6-1
		c-1.3,0-2.3,0.4-3,1.2c-0.7,0.8-1.1,1.9-1.1,3.5v8.5h-5v-17.2h4.8v2c0.7-0.7,1.5-1.3,2.5-1.7c1-0.4,2.1-0.6,3.2-0.6
		C141.3,102.6,143.1,103.2,144.4,104.5z"/>
	<path class="st3" d="M168.8,102.8v14.3c0,3.2-0.8,5.5-2.5,7c-1.6,1.5-4,2.3-7.2,2.3c-1.7,0-3.2-0.2-4.7-0.6c-1.5-0.4-2.7-1-3.7-1.8
		l2-3.6c0.7,0.6,1.6,1.1,2.8,1.4c1.1,0.4,2.2,0.5,3.3,0.5c1.7,0,3-0.4,3.8-1.2c0.8-0.8,1.2-2,1.2-3.5v-0.7c-1.3,1.4-3.1,2.1-5.4,2.1
		c-1.6,0-3-0.3-4.3-1s-2.4-1.7-3.1-2.9c-0.8-1.3-1.2-2.7-1.2-4.4c0-1.6,0.4-3.1,1.2-4.4c0.8-1.3,1.8-2.2,3.1-2.9s2.8-1,4.3-1
		c2.5,0,4.4,0.8,5.7,2.5v-2.2H168.8z M162.6,113.9c0.8-0.8,1.3-1.8,1.3-3.1c0-1.3-0.4-2.3-1.3-3.1c-0.8-0.8-1.9-1.2-3.2-1.2
		c-1.3,0-2.4,0.4-3.3,1.2c-0.9,0.8-1.3,1.8-1.3,3.1c0,1.3,0.4,2.3,1.3,3.1c0.9,0.8,1.9,1.2,3.3,1.2
		C160.7,115.1,161.8,114.7,162.6,113.9z"/>
	<path class="st3" d="M180.6,103.2c1-0.4,2.2-0.6,3.5-0.6v4.6c-0.6,0-0.9-0.1-1.1-0.1c-1.4,0-2.5,0.4-3.4,1.2
		c-0.8,0.8-1.2,2-1.2,3.6v8.1h-5v-17.2h4.8v2.3C178.8,104.3,179.6,103.6,180.6,103.2z"/>
	<path class="st3" d="M200.1,104.5c1.4,1.3,2.1,3.2,2.1,5.7v9.8h-4.7v-2.1c-0.9,1.6-2.7,2.4-5.2,2.4c-1.3,0-2.5-0.2-3.4-0.7
		s-1.7-1.1-2.2-1.9c-0.5-0.8-0.8-1.7-0.8-2.7c0-1.6,0.6-2.9,1.8-3.8c1.2-0.9,3.1-1.4,5.6-1.4h4c0-1.1-0.3-1.9-1-2.5s-1.7-0.9-3-0.9
		c-0.9,0-1.8,0.1-2.7,0.4c-0.9,0.3-1.6,0.7-2.3,1.2l-1.8-3.5c0.9-0.7,2.1-1.2,3.4-1.5s2.7-0.5,4-0.5
		C196.6,102.6,198.7,103.2,200.1,104.5z M195.9,116.3c0.7-0.4,1.1-1,1.4-1.7v-1.8h-3.4c-2,0-3.1,0.7-3.1,2c0,0.6,0.3,1.1,0.8,1.5
		c0.5,0.4,1.2,0.6,2.1,0.6C194.4,116.9,195.2,116.7,195.9,116.3z"/>
	<path class="st3" d="M217.9,119.2c-0.5,0.4-1.1,0.6-1.8,0.8c-0.7,0.2-1.5,0.3-2.3,0.3c-2,0-3.6-0.5-4.8-1.6c-1.1-1-1.7-2.6-1.7-4.6
		V107h-2.7v-3.8h2.7V99h5v4.2h4.3v3.8h-4.3v7c0,0.7,0.2,1.3,0.6,1.7s0.9,0.6,1.6,0.6c0.8,0,1.5-0.2,2-0.6L217.9,119.2z"/>
	<path class="st3" d="M238,102.8V120h-4.7v-2c-0.7,0.7-1.5,1.3-2.4,1.7c-0.9,0.4-1.9,0.6-3,0.6c-2.3,0-4.1-0.7-5.4-2
		c-1.3-1.3-2-3.2-2-5.8v-9.7h5v9c0,2.8,1.2,4.2,3.5,4.2c1.2,0,2.2-0.4,2.9-1.2c0.7-0.8,1.1-1.9,1.1-3.5v-8.5H238z"/>
	<path class="st3" d="M242.7,96.3h5V120h-5V96.3z"/>
	<path class="st3" d="M265.4,104.5c1.4,1.3,2.1,3.2,2.1,5.7v9.8h-4.7v-2.1c-0.9,1.6-2.7,2.4-5.2,2.4c-1.3,0-2.5-0.2-3.4-0.7
		s-1.7-1.1-2.2-1.9c-0.5-0.8-0.8-1.7-0.8-2.7c0-1.6,0.6-2.9,1.8-3.8c1.2-0.9,3.1-1.4,5.6-1.4h4c0-1.1-0.3-1.9-1-2.5
		c-0.7-0.6-1.7-0.9-3-0.9c-0.9,0-1.8,0.1-2.7,0.4s-1.6,0.7-2.3,1.2l-1.8-3.5c0.9-0.7,2.1-1.2,3.4-1.5c1.3-0.4,2.7-0.5,4-0.5
		C261.9,102.6,264,103.2,265.4,104.5z M261.1,116.3c0.7-0.4,1.1-1,1.4-1.7v-1.8h-3.4c-2,0-3.1,0.7-3.1,2c0,0.6,0.3,1.1,0.8,1.5
		c0.5,0.4,1.2,0.6,2.1,0.6C259.7,116.9,260.5,116.7,261.1,116.3z"/>
	<path class="st3" d="M283.1,119.2c-0.5,0.4-1.1,0.6-1.8,0.8c-0.7,0.2-1.5,0.3-2.3,0.3c-2,0-3.6-0.5-4.8-1.6c-1.1-1-1.7-2.6-1.7-4.6
		V107H270v-3.8h2.7V99h5v4.2h4.3v3.8h-4.3v7c0,0.7,0.2,1.3,0.6,1.7s0.9,0.6,1.6,0.6c0.8,0,1.5-0.2,2-0.6L283.1,119.2z"/>
	<path class="st3" d="M286.2,99.6c-0.6-0.5-0.9-1.2-0.9-2c0-0.8,0.3-1.5,0.9-2s1.3-0.8,2.2-0.8c0.9,0,1.7,0.3,2.2,0.8
		s0.9,1.2,0.9,1.9c0,0.8-0.3,1.5-0.9,2.1s-1.3,0.8-2.2,0.8C287.5,100.4,286.8,100.2,286.2,99.6z M286,102.8h5V120h-5V102.8z"/>
	<path class="st3" d="M298.9,119.2c-1.4-0.8-2.6-1.8-3.4-3.2s-1.2-2.9-1.2-4.6c0-1.7,0.4-3.2,1.2-4.6c0.8-1.3,1.9-2.4,3.4-3.2
		c1.4-0.8,3.1-1.1,4.9-1.1c1.8,0,3.4,0.4,4.9,1.1c1.4,0.8,2.5,1.8,3.4,3.2c0.8,1.3,1.2,2.9,1.2,4.6c0,1.7-0.4,3.2-1.2,4.6
		c-0.8,1.3-1.9,2.4-3.4,3.2c-1.4,0.8-3.1,1.1-4.9,1.1C302,120.3,300.3,119.9,298.9,119.2z M306.9,114.9c0.8-0.9,1.2-2,1.2-3.5
		c0-1.5-0.4-2.6-1.2-3.5c-0.8-0.9-1.9-1.3-3.2-1.3c-1.3,0-2.3,0.4-3.2,1.3s-1.2,2-1.2,3.5c0,1.5,0.4,2.6,1.2,3.5
		c0.8,0.9,1.9,1.3,3.2,1.3C305.1,116.2,306.1,115.8,306.9,114.9z"/>
	<path class="st3" d="M332.2,104.5c1.3,1.3,2,3.2,2,5.7v9.9h-5v-9.1c0-1.4-0.3-2.4-0.9-3.1c-0.6-0.7-1.5-1-2.6-1
		c-1.3,0-2.3,0.4-3,1.2c-0.7,0.8-1.1,1.9-1.1,3.5v8.5h-5v-17.2h4.8v2c0.7-0.7,1.5-1.3,2.5-1.7c1-0.4,2.1-0.6,3.2-0.6
		C329.2,102.6,330.9,103.2,332.2,104.5z"/>
</g>
<g class="st2">
	<path class="st3" d="M133.5,143.9l3.6-6.8h1.7l-4.5,8.3v5.3h-1.6v-5.2l-4.5-8.4h1.7L133.5,143.9z"/>
	<path class="st3" d="M149.3,145.5c0,1.7-0.4,3-1.3,3.9c-0.8,0.9-2,1.4-3.5,1.4c-0.9,0-1.7-0.2-2.4-0.6c-0.7-0.4-1.2-1-1.6-1.8
		c-0.4-0.8-0.6-1.7-0.6-2.8c0-1.7,0.4-2.9,1.2-3.9c0.8-0.9,2-1.4,3.5-1.4c1.4,0,2.6,0.5,3.4,1.4
		C148.9,142.7,149.3,143.9,149.3,145.5z M141.5,145.5c0,1.3,0.3,2.3,0.8,3c0.5,0.7,1.3,1,2.3,1c1,0,1.8-0.3,2.3-1
		c0.5-0.7,0.8-1.7,0.8-3c0-1.3-0.3-2.3-0.8-2.9c-0.5-0.7-1.3-1-2.3-1c-1,0-1.8,0.3-2.3,1C141.8,143.3,141.5,144.2,141.5,145.5z"/>
	<path class="st3" d="M153.4,140.5v6.6c0,0.8,0.2,1.4,0.6,1.9c0.4,0.4,1,0.6,1.8,0.6c1.1,0,1.8-0.3,2.3-0.9c0.5-0.6,0.7-1.5,0.7-2.8
		v-5.3h1.5v10.2h-1.3l-0.2-1.4h-0.1c-0.3,0.5-0.8,0.9-1.3,1.2c-0.6,0.3-1.2,0.4-1.9,0.4c-1.2,0-2.2-0.3-2.8-0.9
		c-0.6-0.6-0.9-1.5-0.9-2.8v-6.7H153.4z"/>
	<path class="st3" d="M176.9,150.6l-1.9-6c-0.1-0.4-0.3-1.2-0.7-2.5h-0.1c-0.2,1.1-0.5,1.9-0.6,2.5l-1.9,5.9h-1.8l-2.8-10.2h1.6
		c0.7,2.6,1.2,4.5,1.5,5.8c0.3,1.3,0.5,2.2,0.6,2.7h0.1c0.1-0.4,0.2-0.8,0.3-1.4c0.2-0.6,0.3-1,0.4-1.3l1.9-5.8h1.7l1.8,5.8
		c0.3,1.1,0.6,2,0.7,2.7h0.1c0-0.2,0.1-0.6,0.2-1c0.1-0.5,0.8-3,1.9-7.5h1.6l-2.8,10.2H176.9z"/>
	<path class="st3" d="M183.2,137.7c0-0.4,0.1-0.6,0.3-0.8c0.2-0.2,0.4-0.2,0.6-0.2c0.2,0,0.5,0.1,0.6,0.3c0.2,0.2,0.3,0.4,0.3,0.8
		c0,0.3-0.1,0.6-0.3,0.8c-0.2,0.2-0.4,0.3-0.6,0.3c-0.3,0-0.5-0.1-0.6-0.3C183.3,138.3,183.2,138.1,183.2,137.7z M184.9,150.6h-1.5
		v-10.2h1.5V150.6z"/>
	<path class="st3" d="M189.7,150.6h-1.5v-14.4h1.5V150.6z"/>
	<path class="st3" d="M194.5,150.6H193v-14.4h1.5V150.6z"/>
	<path class="st3" d="M207.3,140.3c0.5,0,0.9,0,1.2,0.1l-0.2,1.4c-0.4-0.1-0.8-0.1-1.1-0.1c-0.8,0-1.5,0.3-2.1,1
		c-0.6,0.7-0.9,1.5-0.9,2.5v5.5h-1.5v-10.2h1.3l0.2,1.9h0.1c0.4-0.7,0.8-1.2,1.4-1.5C206.1,140.5,206.7,140.3,207.3,140.3z"/>
	<path class="st3" d="M214.8,150.8c-1.5,0-2.7-0.5-3.6-1.4c-0.9-0.9-1.3-2.2-1.3-3.8c0-1.6,0.4-2.9,1.2-3.9c0.8-1,1.9-1.4,3.3-1.4
		c1.3,0,2.3,0.4,3,1.3c0.7,0.8,1.1,1.9,1.1,3.3v1h-7c0,1.2,0.3,2.1,0.9,2.7c0.6,0.6,1.4,0.9,2.4,0.9c1.1,0,2.2-0.2,3.2-0.7v1.4
		c-0.5,0.2-1.1,0.4-1.5,0.5C216,150.8,215.4,150.8,214.8,150.8z M214.3,141.6c-0.8,0-1.5,0.3-2,0.8c-0.5,0.5-0.8,1.3-0.9,2.2h5.3
		c0-1-0.2-1.7-0.6-2.2S215.1,141.6,214.3,141.6z"/>
	<path class="st3" d="M225.2,150.8c-1.5,0-2.6-0.5-3.4-1.4c-0.8-0.9-1.2-2.2-1.2-3.8c0-1.7,0.4-3,1.2-3.9s2-1.4,3.5-1.4
		c0.5,0,1,0.1,1.5,0.2c0.5,0.1,0.9,0.2,1.2,0.4l-0.5,1.3c-0.3-0.1-0.7-0.2-1.1-0.3c-0.4-0.1-0.8-0.1-1.1-0.1c-2.1,0-3.1,1.3-3.1,4
		c0,1.2,0.3,2.2,0.8,2.9c0.5,0.7,1.3,1,2.2,1c0.8,0,1.7-0.2,2.6-0.5v1.4C227.1,150.7,226.2,150.8,225.2,150.8z"/>
	<path class="st3" d="M234.5,150.8c-1.5,0-2.7-0.5-3.6-1.4c-0.9-0.9-1.3-2.2-1.3-3.8c0-1.6,0.4-2.9,1.2-3.9c0.8-1,1.9-1.4,3.3-1.4
		c1.3,0,2.3,0.4,3,1.3c0.7,0.8,1.1,1.9,1.1,3.3v1h-7c0,1.2,0.3,2.1,0.9,2.7c0.6,0.6,1.4,0.9,2.4,0.9c1.1,0,2.2-0.2,3.2-0.7v1.4
		c-0.5,0.2-1.1,0.4-1.5,0.5C235.7,150.8,235.1,150.8,234.5,150.8z M234,141.6c-0.8,0-1.5,0.3-2,0.8c-0.5,0.5-0.8,1.3-0.9,2.2h5.3
		c0-1-0.2-1.7-0.6-2.2S234.8,141.6,234,141.6z"/>
	<path class="st3" d="M240.7,137.7c0-0.4,0.1-0.6,0.3-0.8c0.2-0.2,0.4-0.2,0.6-0.2c0.2,0,0.5,0.1,0.6,0.3s0.3,0.4,0.3,0.8
		c0,0.3-0.1,0.6-0.3,0.8s-0.4,0.3-0.6,0.3c-0.3,0-0.5-0.1-0.6-0.3C240.8,138.3,240.7,138.1,240.7,137.7z M242.4,150.6h-1.5v-10.2
		h1.5V150.6z"/>
	<path class="st3" d="M247.9,150.6l-3.9-10.2h1.7l2.2,6c0.5,1.4,0.8,2.3,0.9,2.7h0.1c0.1-0.3,0.3-1,0.6-2c0.4-1,1.2-3.3,2.4-6.7h1.7
		l-3.9,10.2H247.9z"/>
	<path class="st3" d="M259.4,150.8c-1.5,0-2.7-0.5-3.6-1.4s-1.3-2.2-1.3-3.8c0-1.6,0.4-2.9,1.2-3.9c0.8-1,1.9-1.4,3.3-1.4
		c1.3,0,2.3,0.4,3,1.3c0.7,0.8,1.1,1.9,1.1,3.3v1h-7c0,1.2,0.3,2.1,0.9,2.7c0.6,0.6,1.4,0.9,2.4,0.9c1.1,0,2.2-0.2,3.2-0.7v1.4
		c-0.5,0.2-1.1,0.4-1.5,0.5C260.7,150.8,260.1,150.8,259.4,150.8z M259,141.6c-0.8,0-1.5,0.3-2,0.8c-0.5,0.5-0.8,1.3-0.9,2.2h5.3
		c0-1-0.2-1.7-0.6-2.2C260.5,141.8,259.8,141.6,259,141.6z"/>
	<path class="st3" d="M277,150.6l-0.3-1.4h-0.1c-0.5,0.6-1,1.1-1.5,1.3c-0.5,0.2-1.1,0.3-1.9,0.3c-1,0-1.8-0.3-2.4-0.8
		s-0.9-1.3-0.9-2.2c0-2.1,1.6-3.1,4.9-3.2l1.7-0.1v-0.6c0-0.8-0.2-1.4-0.5-1.8c-0.3-0.4-0.9-0.6-1.6-0.6c-0.8,0-1.8,0.3-2.9,0.8
		l-0.5-1.2c0.5-0.3,1-0.5,1.6-0.6c0.6-0.2,1.2-0.2,1.8-0.2c1.2,0,2.1,0.3,2.7,0.8c0.6,0.5,0.9,1.4,0.9,2.6v6.9H277z M273.5,149.6
		c1,0,1.7-0.3,2.3-0.8c0.5-0.5,0.8-1.3,0.8-2.2v-0.9l-1.5,0.1c-1.2,0-2.1,0.2-2.6,0.6c-0.5,0.3-0.8,0.9-0.8,1.6c0,0.6,0.2,1,0.5,1.3
		S272.9,149.6,273.5,149.6z"/>
	<path class="st3" d="M288.3,150.6v-6.6c0-0.8-0.2-1.4-0.6-1.9s-1-0.6-1.8-0.6c-1.1,0-1.8,0.3-2.3,0.9c-0.5,0.6-0.7,1.5-0.7,2.8v5.3
		h-1.5v-10.2h1.3l0.3,1.4h0.1c0.3-0.5,0.8-0.9,1.3-1.2s1.2-0.4,1.9-0.4c1.2,0,2.1,0.3,2.8,0.9c0.6,0.6,0.9,1.5,0.9,2.8v6.6H288.3z"
		/>
</g>
<g class="st2">
	<path class="st3" d="M101.3,171.8c-1.5,0-2.7-0.5-3.6-1.4c-0.9-0.9-1.3-2.2-1.3-3.8c0-1.6,0.4-2.9,1.2-3.9c0.8-1,1.9-1.4,3.3-1.4
		c1.3,0,2.3,0.4,3,1.3c0.7,0.8,1.1,1.9,1.1,3.3v1h-7c0,1.2,0.3,2.1,0.9,2.7c0.6,0.6,1.4,0.9,2.4,0.9c1.1,0,2.2-0.2,3.2-0.7v1.4
		c-0.5,0.2-1.1,0.4-1.5,0.5C102.6,171.8,102,171.8,101.3,171.8z M100.9,162.6c-0.8,0-1.5,0.3-2,0.8c-0.5,0.5-0.8,1.3-0.9,2.2h5.3
		c0-1-0.2-1.7-0.6-2.2C102.3,162.8,101.7,162.6,100.9,162.6z"/>
	<path class="st3" d="M120.7,171.6V165c0-0.8-0.2-1.4-0.5-1.8c-0.3-0.4-0.9-0.6-1.6-0.6c-1,0-1.7,0.3-2.1,0.8
		c-0.5,0.6-0.7,1.4-0.7,2.5v5.7h-1.5V165c0-0.8-0.2-1.4-0.5-1.8c-0.3-0.4-0.9-0.6-1.6-0.6c-1,0-1.7,0.3-2.1,0.9
		c-0.4,0.6-0.7,1.5-0.7,2.8v5.3h-1.5v-10.2h1.3l0.3,1.4h0.1c0.3-0.5,0.7-0.9,1.2-1.2c0.5-0.3,1.1-0.4,1.8-0.4c1.6,0,2.6,0.6,3.1,1.7
		h0.1c0.3-0.5,0.7-1,1.3-1.3s1.2-0.5,2-0.5c1.2,0,2,0.3,2.6,0.9c0.6,0.6,0.9,1.5,0.9,2.8v6.6H120.7z"/>
	<path class="st3" d="M131.6,171.6l-0.3-1.4h-0.1c-0.5,0.6-1,1.1-1.5,1.3c-0.5,0.2-1.1,0.3-1.9,0.3c-1,0-1.8-0.3-2.4-0.8
		c-0.6-0.5-0.9-1.3-0.9-2.2c0-2.1,1.6-3.1,4.9-3.2l1.7-0.1v-0.6c0-0.8-0.2-1.4-0.5-1.8c-0.3-0.4-0.9-0.6-1.6-0.6
		c-0.8,0-1.8,0.3-2.9,0.8l-0.5-1.2c0.5-0.3,1-0.5,1.6-0.6c0.6-0.2,1.2-0.2,1.8-0.2c1.2,0,2.1,0.3,2.7,0.8c0.6,0.5,0.9,1.4,0.9,2.6
		v6.9H131.6z M128.1,170.6c1,0,1.7-0.3,2.3-0.8c0.5-0.5,0.8-1.3,0.8-2.2v-0.9l-1.5,0.1c-1.2,0-2.1,0.2-2.6,0.6
		c-0.5,0.3-0.8,0.9-0.8,1.6c0,0.6,0.2,1,0.5,1.3C127.1,170.4,127.5,170.6,128.1,170.6z"/>
	<path class="st3" d="M135.8,158.7c0-0.4,0.1-0.6,0.3-0.8c0.2-0.2,0.4-0.2,0.6-0.2c0.2,0,0.5,0.1,0.6,0.3c0.2,0.2,0.3,0.4,0.3,0.8
		c0,0.3-0.1,0.6-0.3,0.8c-0.2,0.2-0.4,0.3-0.6,0.3c-0.3,0-0.5-0.1-0.6-0.3C135.9,159.3,135.8,159.1,135.8,158.7z M137.5,171.6h-1.5
		v-10.2h1.5V171.6z"/>
	<path class="st3" d="M142.3,171.6h-1.5v-14.4h1.5V171.6z"/>
	<path class="st3" d="M158.8,171.6l-1.9-6c-0.1-0.4-0.3-1.2-0.7-2.5h-0.1c-0.2,1.1-0.5,1.9-0.6,2.5l-1.9,5.9h-1.8l-2.8-10.2h1.6
		c0.7,2.6,1.2,4.5,1.5,5.8c0.3,1.3,0.5,2.2,0.6,2.7h0.1c0.1-0.4,0.2-0.8,0.3-1.4c0.2-0.6,0.3-1,0.4-1.3l1.9-5.8h1.7l1.8,5.8
		c0.3,1.1,0.6,2,0.7,2.7h0.1c0-0.2,0.1-0.6,0.2-1c0.1-0.5,0.8-3,1.9-7.5h1.6l-2.8,10.2H158.8z"/>
	<path class="st3" d="M165.1,158.7c0-0.4,0.1-0.6,0.3-0.8c0.2-0.2,0.4-0.2,0.6-0.2c0.2,0,0.5,0.1,0.6,0.3c0.2,0.2,0.3,0.4,0.3,0.8
		c0,0.3-0.1,0.6-0.3,0.8c-0.2,0.2-0.4,0.3-0.6,0.3c-0.3,0-0.5-0.1-0.6-0.3C165.2,159.3,165.1,159.1,165.1,158.7z M166.8,171.6h-1.5
		v-10.2h1.5V171.6z"/>
	<path class="st3" d="M173.3,170.6c0.3,0,0.5,0,0.8-0.1c0.3,0,0.5-0.1,0.6-0.1v1.2c-0.2,0.1-0.4,0.1-0.7,0.2
		c-0.3,0.1-0.6,0.1-0.9,0.1c-2,0-3-1-3-3.1v-6h-1.5v-0.7l1.5-0.6l0.6-2.2h0.9v2.4h3v1.2h-3v6c0,0.6,0.1,1.1,0.4,1.4
		C172.4,170.4,172.8,170.6,173.3,170.6z"/>
	<path class="st3" d="M183.7,171.6v-6.6c0-0.8-0.2-1.4-0.6-1.9c-0.4-0.4-1-0.6-1.8-0.6c-1.1,0-1.9,0.3-2.3,0.9
		c-0.5,0.6-0.7,1.5-0.7,2.9v5.3h-1.5v-14.4h1.5v4.4c0,0.5,0,1-0.1,1.3h0.1c0.3-0.5,0.7-0.9,1.3-1.2c0.6-0.3,1.2-0.4,1.9-0.4
		c1.2,0,2.2,0.3,2.8,0.9c0.6,0.6,0.9,1.5,0.9,2.8v6.6H183.7z"/>
	<path class="st3" d="M191.8,161.5h1.7l2.2,5.8c0.5,1.3,0.8,2.3,0.9,2.9h0.1c0.1-0.3,0.2-0.9,0.5-1.6c0.3-0.8,1.1-3.1,2.5-7h1.7
		l-4.4,11.6c-0.4,1.1-0.9,2-1.5,2.4c-0.6,0.5-1.3,0.7-2.1,0.7c-0.5,0-0.9-0.1-1.4-0.2v-1.2c0.3,0.1,0.7,0.1,1.1,0.1
		c1.1,0,1.8-0.6,2.3-1.8l0.6-1.4L191.8,161.5z"/>
	<path class="st3" d="M211.7,166.5c0,1.7-0.4,3-1.3,3.9c-0.8,0.9-2,1.4-3.5,1.4c-0.9,0-1.7-0.2-2.4-0.6c-0.7-0.4-1.2-1-1.6-1.8
		c-0.4-0.8-0.6-1.7-0.6-2.8c0-1.7,0.4-2.9,1.2-3.9c0.8-0.9,2-1.4,3.5-1.4c1.4,0,2.6,0.5,3.4,1.4
		C211.3,163.7,211.7,164.9,211.7,166.5z M204,166.5c0,1.3,0.3,2.3,0.8,3c0.5,0.7,1.3,1,2.3,1c1,0,1.8-0.3,2.3-1
		c0.5-0.7,0.8-1.7,0.8-3c0-1.3-0.3-2.3-0.8-2.9c-0.5-0.7-1.3-1-2.3-1c-1,0-1.8,0.3-2.3,1C204.2,164.3,204,165.2,204,166.5z"/>
	<path class="st3" d="M215.9,161.5v6.6c0,0.8,0.2,1.4,0.6,1.9c0.4,0.4,1,0.6,1.8,0.6c1.1,0,1.8-0.3,2.3-0.9c0.5-0.6,0.7-1.5,0.7-2.8
		v-5.3h1.5v10.2h-1.3l-0.2-1.4h-0.1c-0.3,0.5-0.8,0.9-1.3,1.2c-0.6,0.3-1.2,0.4-1.9,0.4c-1.2,0-2.2-0.3-2.8-0.9
		c-0.6-0.6-0.9-1.5-0.9-2.8v-6.7H215.9z"/>
	<path class="st3" d="M230.7,161.3c0.5,0,0.9,0,1.2,0.1l-0.2,1.4c-0.4-0.1-0.8-0.1-1.1-0.1c-0.8,0-1.5,0.3-2.1,1
		c-0.6,0.7-0.9,1.5-0.9,2.5v5.5h-1.5v-10.2h1.3l0.2,1.9h0.1c0.4-0.7,0.8-1.2,1.4-1.5S230.1,161.3,230.7,161.3z"/>
	<path class="st3" d="M247.1,161.5v1l-1.9,0.2c0.2,0.2,0.3,0.5,0.5,0.8c0.1,0.3,0.2,0.7,0.2,1.2c0,1-0.3,1.8-1,2.4
		c-0.7,0.6-1.6,0.9-2.8,0.9c-0.3,0-0.6,0-0.9-0.1c-0.7,0.3-1,0.8-1,1.3c0,0.3,0.1,0.5,0.3,0.6s0.6,0.2,1.2,0.2h1.8
		c1.1,0,1.9,0.2,2.5,0.7c0.6,0.5,0.9,1.1,0.9,2c0,1.1-0.5,2-1.4,2.6c-0.9,0.6-2.2,0.9-4,0.9c-1.3,0-2.4-0.2-3.1-0.7
		s-1.1-1.2-1.1-2.1c0-0.6,0.2-1.2,0.6-1.6c0.4-0.5,1-0.8,1.7-0.9c-0.3-0.1-0.5-0.3-0.7-0.5c-0.2-0.2-0.3-0.5-0.3-0.9
		c0-0.4,0.1-0.7,0.3-1c0.2-0.3,0.5-0.5,0.9-0.8c-0.5-0.2-1-0.6-1.3-1.1c-0.3-0.5-0.5-1.1-0.5-1.8c0-1.1,0.3-2,1-2.6
		c0.7-0.6,1.6-0.9,2.8-0.9c0.5,0,1,0.1,1.4,0.2H247.1z M239,173.3c0,0.6,0.2,1,0.7,1.3c0.5,0.3,1.1,0.4,2,0.4c1.3,0,2.3-0.2,2.9-0.6
		c0.6-0.4,0.9-0.9,0.9-1.6c0-0.6-0.2-0.9-0.5-1.1c-0.3-0.2-1-0.3-1.9-0.3h-1.8c-0.7,0-1.2,0.2-1.6,0.5S239,172.7,239,173.3z
		 M239.8,164.7c0,0.7,0.2,1.3,0.6,1.6c0.4,0.4,1,0.5,1.7,0.5c1.5,0,2.3-0.7,2.3-2.2c0-1.5-0.8-2.3-2.3-2.3c-0.7,0-1.3,0.2-1.7,0.6
		S239.8,164,239.8,164.7z"/>
	<path class="st3" d="M255.4,171.6l-0.3-1.4h-0.1c-0.5,0.6-1,1.1-1.5,1.3s-1.1,0.3-1.9,0.3c-1,0-1.8-0.3-2.4-0.8
		c-0.6-0.5-0.9-1.3-0.9-2.2c0-2.1,1.6-3.1,4.9-3.2l1.7-0.1v-0.6c0-0.8-0.2-1.4-0.5-1.8c-0.3-0.4-0.9-0.6-1.6-0.6
		c-0.8,0-1.8,0.3-2.9,0.8l-0.5-1.2c0.5-0.3,1-0.5,1.6-0.6c0.6-0.2,1.2-0.2,1.8-0.2c1.2,0,2.1,0.3,2.7,0.8c0.6,0.5,0.9,1.4,0.9,2.6
		v6.9H255.4z M252,170.6c1,0,1.7-0.3,2.3-0.8c0.5-0.5,0.8-1.3,0.8-2.2v-0.9l-1.5,0.1c-1.2,0-2.1,0.2-2.6,0.6
		c-0.5,0.3-0.8,0.9-0.8,1.6c0,0.6,0.2,1,0.5,1.3C250.9,170.4,251.3,170.6,252,170.6z"/>
	<path class="st3" d="M272.7,171.6V165c0-0.8-0.2-1.4-0.5-1.8c-0.3-0.4-0.9-0.6-1.6-0.6c-1,0-1.7,0.3-2.1,0.8s-0.7,1.4-0.7,2.5v5.7
		h-1.5V165c0-0.8-0.2-1.4-0.5-1.8s-0.9-0.6-1.6-0.6c-1,0-1.7,0.3-2.1,0.9s-0.7,1.5-0.7,2.8v5.3h-1.5v-10.2h1.3l0.3,1.4h0.1
		c0.3-0.5,0.7-0.9,1.2-1.2c0.5-0.3,1.1-0.4,1.8-0.4c1.6,0,2.6,0.6,3.1,1.7h0.1c0.3-0.5,0.7-1,1.3-1.3s1.2-0.5,2-0.5
		c1.2,0,2,0.3,2.6,0.9c0.6,0.6,0.9,1.5,0.9,2.8v6.6H272.7z"/>
	<path class="st3" d="M281.7,171.8c-1.5,0-2.7-0.5-3.6-1.4s-1.3-2.2-1.3-3.8c0-1.6,0.4-2.9,1.2-3.9c0.8-1,1.9-1.4,3.3-1.4
		c1.3,0,2.3,0.4,3,1.3c0.7,0.8,1.1,1.9,1.1,3.3v1h-7c0,1.2,0.3,2.1,0.9,2.7c0.6,0.6,1.4,0.9,2.4,0.9c1.1,0,2.2-0.2,3.2-0.7v1.4
		c-0.5,0.2-1.1,0.4-1.5,0.5C283,171.8,282.4,171.8,281.7,171.8z M281.3,162.6c-0.8,0-1.5,0.3-2,0.8c-0.5,0.5-0.8,1.3-0.9,2.2h5.3
		c0-1-0.2-1.7-0.6-2.2C282.7,162.8,282.1,162.6,281.3,162.6z"/>
	<path class="st3" d="M294.5,166.4c0.3-0.4,0.7-0.9,1.2-1.5l3.3-3.5h1.8l-4.1,4.3l4.4,5.8h-1.9l-3.6-4.8l-1.2,1v3.8H293v-14.4h1.5
		v7.7C294.5,165.2,294.5,165.7,294.5,166.4L294.5,166.4z"/>
	<path class="st3" d="M307.3,171.8c-1.5,0-2.7-0.5-3.6-1.4s-1.3-2.2-1.3-3.8c0-1.6,0.4-2.9,1.2-3.9c0.8-1,1.9-1.4,3.3-1.4
		c1.3,0,2.3,0.4,3,1.3c0.7,0.8,1.1,1.9,1.1,3.3v1h-7c0,1.2,0.3,2.1,0.9,2.7c0.6,0.6,1.4,0.9,2.4,0.9c1.1,0,2.2-0.2,3.2-0.7v1.4
		c-0.5,0.2-1.1,0.4-1.5,0.5C308.6,171.8,308,171.8,307.3,171.8z M306.9,162.6c-0.8,0-1.5,0.3-2,0.8c-0.5,0.5-0.8,1.3-0.9,2.2h5.3
		c0-1-0.2-1.7-0.6-2.2C308.3,162.8,307.7,162.6,306.9,162.6z"/>
	<path class="st3" d="M312,161.5h1.7l2.2,5.8c0.5,1.3,0.8,2.3,0.9,2.9h0.1c0.1-0.3,0.2-0.9,0.5-1.6c0.3-0.8,1.1-3.1,2.5-7h1.7
		l-4.4,11.6c-0.4,1.1-0.9,2-1.5,2.4c-0.6,0.5-1.3,0.7-2.1,0.7c-0.5,0-0.9-0.1-1.4-0.2v-1.2c0.3,0.1,0.7,0.1,1.1,0.1
		c1.1,0,1.8-0.6,2.3-1.8l0.6-1.4L312,161.5z"/>
</g>
</svg>
