<svg xmlns="http://www.w3.org/2000/svg" xmlns:xlink="http://www.w3.org/1999/xlink" width="418" height="248" viewBox="0 0 418 248">
  <defs>
    <style>
      .cls-1 {
        fill: #fff;
      }

      .cls-2 {
        fill: #463af3;
      }

      .cls-3 {
        fill: #382ec2;
        font-size: 48px;
        font-family: Montserrat-Bold, Montserrat;
        font-weight: 700;
      }

      .cls-4 {
        filter: url(#Rectangle_1629);
      }
    </style>
    <filter id="Rectangle_1629" x="0" y="0" width="418" height="248" filterUnits="userSpaceOnUse">
      <feOffset dy="3" input="SourceAlpha"/>
      <feGaussianBlur stdDeviation="3" result="blur"/>
      <feFlood flood-opacity="0.161"/>
      <feComposite operator="in" in2="blur"/>
      <feComposite in="SourceGraphic"/>
    </filter>
  </defs>
  <g id="GameType" transform="translate(-452 -1747)">
    <g id="Groupe_419" data-name="Groupe 419" transform="translate(-8 -22)">
      <g id="Groupe_327" data-name="Groupe 327" transform="translate(469.07 1775.066)">
        <g class="cls-4" transform="matrix(1, 0, 0, 1, -9.07, -6.07)">
          <rect id="Rectangle_1629-2" data-name="Rectangle 1629" class="cls-1" width="400" height="230" rx="20" transform="translate(9 6)"/>
        </g>
      </g>
    </g>
    <g id="installation" transform="translate(724.781 1822)">
      <path id="Tracé_1956" data-name="Tracé 1956" class="cls-2" d="M69.42,92.462H11.631A9.642,9.642,0,0,1,2,82.83V9.631A9.642,9.642,0,0,1,11.631,0H69.42a9.642,9.642,0,0,1,9.631,9.631v73.2A9.642,9.642,0,0,1,69.42,92.462ZM11.631,3.853A5.786,5.786,0,0,0,5.853,9.631v73.2a5.786,5.786,0,0,0,5.779,5.779H69.42A5.786,5.786,0,0,0,75.2,82.83V9.631A5.786,5.786,0,0,0,69.42,3.853Z"/>
      <path id="Tracé_1957" data-name="Tracé 1957" class="cls-2" d="M17.771,21.353H7.176a1.926,1.926,0,1,1,0-3.853H17.771a1.926,1.926,0,1,1,0,3.853Z" transform="translate(9.271 49.92)"/>
      <path id="Tracé_1958" data-name="Tracé 1958" class="cls-2" d="M18.484,38.115H10.779A5.786,5.786,0,0,1,5,32.337V20.779A5.786,5.786,0,0,1,10.779,15h7.705a1.926,1.926,0,1,1,0,3.853H10.779a1.929,1.929,0,0,0-1.926,1.926V32.337a1.929,1.929,0,0,0,1.926,1.926h7.705a1.926,1.926,0,1,1,0,3.853Z" transform="translate(8.558 42.789)"/>
      <path id="Tracé_1959" data-name="Tracé 1959" class="cls-2" d="M27.771,21.353H17.176a1.926,1.926,0,1,1,0-3.853H27.771a1.926,1.926,0,0,1,0,3.853Z" transform="translate(37.797 49.92)"/>
      <path id="Tracé_1960" data-name="Tracé 1960" class="cls-2" d="M28.484,38.115H20.779A5.786,5.786,0,0,1,15,32.337V20.779A5.786,5.786,0,0,1,20.779,15h7.705a1.926,1.926,0,1,1,0,3.853H20.779a1.929,1.929,0,0,0-1.926,1.926V32.337a1.929,1.929,0,0,0,1.926,1.926h7.705a1.926,1.926,0,0,1,0,3.853Z" transform="translate(37.083 42.789)"/>
      <path id="Tracé_1961" data-name="Tracé 1961" class="cls-2" d="M23.486,38.116a1.923,1.923,0,0,1-1.653-.936L10.275,17.916a1.928,1.928,0,0,1,3.306-1.984L25.139,35.2a1.923,1.923,0,0,1-.663,2.643,1.889,1.889,0,0,1-.99.277Z" transform="translate(22.819 42.788)"/>
      <path id="Tracé_1962" data-name="Tracé 1962" class="cls-2" d="M11.927,38.114A1.926,1.926,0,0,1,10.274,35.2L21.832,15.935a1.928,1.928,0,0,1,3.306,1.984L13.58,37.182A1.928,1.928,0,0,1,11.927,38.114Z" transform="translate(22.82 42.79)"/>
    </g>
    <g id="steam" transform="translate(527.004 1823)">
      <path id="Tracé_1963" data-name="Tracé 1963" class="cls-2" d="M310.794,135.2a12.134,12.134,0,1,0-12.134-12.134A12.169,12.169,0,0,0,310.794,135.2Zm0-21.234a9.1,9.1,0,1,1-9.1,9.1A9.127,9.127,0,0,1,310.794,113.964Z" transform="translate(-245.578 -91.214)"/>
      <path id="Tracé_1964" data-name="Tracé 1964" class="cls-2" d="M54.416,129.506a16.524,16.524,0,0,0,16.451-13.741l20.391-14.157A21.232,21.232,0,1,0,65.665,75.834L51.492,96.519a15.308,15.308,0,0,0-7.739,3.526L25.6,92.347v17.139l12.232,4.925C38.9,122.761,46.1,129.506,54.416,129.506ZM51.08,119.041A8.179,8.179,0,0,0,55,118.053a7.041,7.041,0,0,0,3.516-3.864c0-.007,0-.014.005-.02a7.92,7.92,0,0,0-2.111-8.151,8.507,8.507,0,0,0-.656-.608A7.4,7.4,0,0,1,62,112.824a7.51,7.51,0,0,1-7.584,7.584,7.3,7.3,0,0,1-4.257-1.415C50.476,119.023,50.787,119.041,51.08,119.041ZM86.266,62.772a18.2,18.2,0,1,1-18.047,18.2,15.655,15.655,0,0,1,.606-4.55l-.16-.071A18.274,18.274,0,0,1,86.266,62.772ZM65.034,81.882a21.158,21.158,0,0,0,6.23,14.078l.016.016c.108.108.219.217.331.323.016.014.032.03.046.044.1.1.208.2.313.291l.064.059c.1.094.208.185.313.277.021.02.044.039.066.057.11.1.222.19.334.283.016.012.03.025.046.039A21.365,21.365,0,0,0,84.9,102.206l-13.8,9.706A16.722,16.722,0,0,0,55.328,96.138Zm-13.89,17.64,1.452-.2a4.4,4.4,0,0,1,.56-.1c.414-.032.834-.052,1.26-.052a13.606,13.606,0,0,1,9.669,3.981.274.274,0,0,1,.021.023,13.61,13.61,0,0,1,3.96,9.647h0a14.02,14.02,0,0,1-.069,1.4c-.021.14-.046.279-.082.419l-.121.928a13.586,13.586,0,0,1-13.378,10.9c-6.19,0-11.627-4.66-13.174-10.687l3.588,1.445a10.705,10.705,0,1,0,5.695-14.389L46.834,101.3A13.133,13.133,0,0,1,51.144,99.522ZM28.634,96.9l12.715,5.344-.126.116,11.071,4.7a4.833,4.833,0,0,1,3.185,6.066,4.222,4.222,0,0,1-.9,1.438,5.233,5.233,0,0,1-5.314.988l-20.628-8.188Z" transform="translate(-21.05 -49.122)"/>
      <path id="Tracé_1965" data-name="Tracé 1965" class="cls-2" d="M74.316,0H16.684A16.635,16.635,0,0,0,0,16.684v7.584a1.432,1.432,0,0,0,1.516,1.516,1.432,1.432,0,0,0,1.516-1.516V16.684a13.592,13.592,0,0,1,13.65-13.65H74.316a13.592,13.592,0,0,1,13.65,13.65V74.318a13.592,13.592,0,0,1-13.65,13.65H16.684a13.592,13.592,0,0,1-13.65-13.65V36.4a1.432,1.432,0,0,0-1.516-1.516A1.433,1.433,0,0,0,0,36.4V74.316A16.635,16.635,0,0,0,16.684,91H74.318A16.636,16.636,0,0,0,91,74.316V16.684A16.637,16.637,0,0,0,74.316,0Z"/>
      <path id="Tracé_1966" data-name="Tracé 1966" class="cls-2" d="M1.516,165.172a1.516,1.516,0,0,0,0-3.032,1.516,1.516,0,0,0,0,3.032Z" transform="translate(0 -133.322)"/>
    </g>
    <text id="_" data-name="/" class="cls-3" transform="translate(668 1885)"><tspan x="-9.408" y="0">/</tspan></text>
  </g>
</svg>
