<svg xmlns="http://www.w3.org/2000/svg" width="20" height="20" viewBox="0 0 20 20">
  <defs>
    <style>
      .cls-1 {
        fill: #fff;
      }
    </style>
  </defs>
  <path id="Tracé_1116" data-name="Tracé 1116" class="cls-1" d="M3825.8,170h8.4a5.8,5.8,0,0,1,5.8,5.8v8.4a5.8,5.8,0,0,1-5.8,5.8h-8.4a5.8,5.8,0,0,1-5.8-5.8v-8.4a5.8,5.8,0,0,1,5.8-5.8Zm-.2,2a3.592,3.592,0,0,0-3.6,3.6v8.8a3.6,3.6,0,0,0,3.6,3.6h8.8a3.592,3.592,0,0,0,3.6-3.6v-8.8a3.6,3.6,0,0,0-3.6-3.6Zm9.65,1.5a1.257,1.257,0,1,1-.88.366A1.237,1.237,0,0,1,3835.25,173.5ZM3830,175a4.992,4.992,0,1,1-3.54,1.464A5.01,5.01,0,0,1,3830,175Zm0,2a3,3,0,1,0,2.12.879A2.984,2.984,0,0,0,3830,177Z" transform="translate(-3820 -170)"/>
</svg>
