<?xml version="1.0" encoding="utf-8"?>
<!-- Generator: Adobe Illustrator 24.3.0, SVG Export Plug-In . SVG Version: 6.00 Build 0)  -->
<svg version="1.1" id="Calque_1" xmlns="http://www.w3.org/2000/svg" xmlns:xlink="http://www.w3.org/1999/xlink" x="0px" y="0px"
	 viewBox="0 0 418.18 248.7" style="enable-background:new 0 0 418.18 248.7;" xml:space="preserve">
<style type="text/css">
	.st0{fill:#FFFFFF;}
	.st1{fill:#F7931A;}
	.st2{fill:#FF6600;}
	.st3{fill:#4C4C4C;}
	.st4{enable-background:new    ;}
	.st5{fill:#463AF3;}
</style>
<g id="method" transform="translate(-459.189 -1096)">
	<g transform="matrix(1, 0, 0, 1, 459.19, 1096)">
		<path id="Rectangle_1626-2" class="st0" d="M29,6h360.18c11.05,0,20,8.95,20,20v190.7c0,11.05-8.95,20-20,20H29
			c-11.05,0-20-8.95-20-20V26C9,14.95,17.95,6,29,6z"/>
	</g>
	<g id="Groupe_319" transform="translate(525.877 1171)">
		<g id="bitcoin" transform="translate(0.123 0)">
			<path id="Tracé_1082" class="st1" d="M89.99,56.73C83.88,81.2,59.09,96.09,34.62,89.99S-4.73,59.09,1.37,34.62
				C7.48,10.16,32.25-4.73,56.72,1.37C81.2,7.47,96.09,32.26,89.99,56.73C89.99,56.73,89.99,56.73,89.99,56.73z"/>
			<path id="Tracé_1083" class="st0" d="M65.82,39.17c0.91-6.08-3.72-9.35-10.05-11.53l2.05-8.23l-5.01-1.25l-2,8.02
				c-1.32-0.33-2.67-0.64-4.01-0.94l2.01-8.07l-5.01-1.25l-2.05,8.23c-1.09-0.25-2.16-0.49-3.2-0.75l0.01-0.03l-6.91-1.73L30.31,27
				c0,0,3.72,0.85,3.64,0.91c1.44,0.17,2.48,1.47,2.33,2.91l-2.34,9.38c0.18,0.04,0.35,0.1,0.52,0.17l-0.53-0.13l-3.28,13.14
				c-0.3,0.96-1.32,1.5-2.29,1.2c0,0-0.01,0-0.01,0c0.05,0.07-3.64-0.91-3.64-0.91l-2.49,5.74l6.53,1.63
				c1.21,0.3,2.4,0.62,3.57,0.92l-2.07,8.33l5,1.25l2.06-8.24C38.67,63.65,40,64,41.3,64.32l-2.05,8.2l5.01,1.25l2.07-8.31
				c8.55,1.62,14.97,0.96,17.68-6.76c2.18-6.22-0.11-9.81-4.6-12.16C62.7,45.78,65.16,43.62,65.82,39.17L65.82,39.17z M54.37,55.23
				c-1.55,6.22-12.03,2.86-15.43,2.02l2.75-11.03C45.09,47.06,55.98,48.74,54.37,55.23L54.37,55.23z M55.91,39.09
				c-1.41,5.66-10.14,2.78-12.97,2.08l2.5-10.01C48.27,31.86,57.39,33.18,55.91,39.09L55.91,39.09z"/>
		</g>
		<g id="monero" transform="translate(193.123 0)">
			<path id="Tracé_1084" class="st2" d="M45.54,0C20.37,0.02-0.02,20.44,0,45.61c0,4.87,0.79,9.7,2.32,14.32h13.62V21.61l29.6,29.6
				l29.6-29.6v38.32h13.63c7.93-23.89-5.01-49.68-28.89-57.61C55.25,0.79,50.41,0,45.54,0"/>
			<path id="Tracé_1085" class="st3" d="M38.73,58.02L25.82,45.1v24.11H6.63C19.7,90.7,47.73,97.52,69.22,84.45
				c6.22-3.79,11.45-9.01,15.24-15.24H65.27V45.1L52.35,58.02l-6.81,6.81L38.73,58.02L38.73,58.02L38.73,58.02z"/>
		</g>
		<g class="st4">
			<path class="st5" d="M146.97,22.58h6.67L137.8,67.8h-6.67L146.97,22.58z"/>
		</g>
	</g>
</g>
</svg>
