<svg xmlns="http://www.w3.org/2000/svg" xmlns:xlink="http://www.w3.org/1999/xlink" width="418" height="249" viewBox="0 0 418 249">
  <defs>
    <style>
      .cls-1 {
        fill: #463af3;
      }

      .cls-2 {
        fill: #fff;
      }

      .cls-3 {
        fill: none;
        stroke: #fff;
      }

      .cls-4 {
        filter: url(#Rectangle_1621);
      }
    </style>
    <filter id="Rectangle_1621" x="0" y="0" width="418" height="249" filterUnits="userSpaceOnUse">
      <feOffset dy="3" input="SourceAlpha"/>
      <feGaussianBlur stdDeviation="3" result="blur"/>
      <feFlood flood-opacity="0.161"/>
      <feComposite operator="in" in2="blur"/>
      <feComposite in="SourceGraphic"/>
    </filter>
  </defs>
  <g id="Groupe_416" data-name="Groupe 416" transform="translate(-1015 -761)">
    <g id="Groupe_328" data-name="Groupe 328">
      <g class="cls-4" transform="matrix(1, 0, 0, 1, 1015, 761)">
        <rect id="Rectangle_1621-2" data-name="Rectangle 1621" class="cls-1" width="400" height="231" rx="20" transform="translate(9 6)"/>
      </g>
      <g id="Groupe_326" data-name="Groupe 326" transform="translate(1045.133 809.783)">
        <g id="linux" transform="translate(0 61.091)">
          <path id="Tracé_1119" data-name="Tracé 1119" class="cls-2" d="M111.449,114.836c1.663.2,3.532,1.276,5.1,1.466a1.872,1.872,0,0,0,2.059-1.071,21.319,21.319,0,0,1,3.629-.441,15.24,15.24,0,0,1,3.624.387,2.616,2.616,0,0,0,.98,1.124,2.579,2.579,0,0,0,2.892-.532,24.024,24.024,0,0,1,4.557-2.846c1.33-.737,1.086-1.862.251-2.2a1.933,1.933,0,0,1-1.466-1.914,2.33,2.33,0,0,0-.737-1.708,7.77,7.77,0,0,0,.047-4.124c-.638-1.86-2.742-4.851-4.36-7.1s-.244-4.86-1.717-8.187-5.292-3.136-7.351-1.715-1.427,4.944-1.328,6.615a9.72,9.72,0,0,1-.145,3.281c-.19.434-1.518,2.011-2.4,3.333s-1.518,4.07-2.163,5.2a2.578,2.578,0,0,0-.19,2.15,1.624,1.624,0,0,0-.789.889c-.342.729-1.025,1.077-2.256,1.315s-1.222,1.039-.927,1.921,0,1.374-.342,2.5S109.779,114.639,111.449,114.836Zm17.287-5.129a2.725,2.725,0,0,0,2.511-.532,3.956,3.956,0,0,0,.65-.946.787.787,0,0,1,.343.794,2.022,2.022,0,0,0,.835,1.789c.572.3,1.446.722.993,1.143s-3.013,1.448-3.776,2.249-1.749,1.448-2.353,1.256-1.145-1.025-.882-2.247a15.149,15.149,0,0,0,.461-3.314c-.04-.762-.19-1.789,0-1.941a.657.657,0,0,1,.493-.077S127.861,109.327,128.736,109.707Zm-5.669-20.6a1.716,1.716,0,0,1,1.52,1.862,1.928,1.928,0,0,1-.842,1.663c-.126-.052-.258-.111-.4-.172a1.069,1.069,0,0,0,.513-.973.952.952,0,0,0-.8-1.052c-.434,0-.8.475-.8,1.052a1.3,1.3,0,0,0,.138.586c-.263-.106-.5-.2-.69-.269a2.269,2.269,0,0,1-.158-.835A1.715,1.715,0,0,1,123.067,89.108Zm-2.084,3.208a20.418,20.418,0,0,1,1.973.717c.421.145.887.414.842.683s-.269.278-.842.626a11.547,11.547,0,0,1-2.2,1.156c-.394.052-.618-.17-1.039-.441s-1.21-.921-1.012-1.262c0,0,.618-.473.887-.715S120.562,92.238,120.983,92.316ZM119.168,89.4c.663,0,1.2.789,1.2,1.762a2.629,2.629,0,0,1-.052.507,1.355,1.355,0,0,0-.488.276c-.077.066-.15.125-.215.19a1.277,1.277,0,0,0,.1-.776c-.091-.525-.446-.914-.795-.862s-.559.54-.475,1.072.441.927.8.869l.059-.02a4.391,4.391,0,0,1-.493.428,1.835,1.835,0,0,1-.835-1.683C117.972,90.187,118.5,89.4,119.168,89.4Zm-3.695,12.735c.683-1.077,1.124-3.432,1.808-4.215a4.352,4.352,0,0,0,.98-3.181s1.473,1.762,2.5,1.473,3.335-2.011,3.676-1.717,3.281,6.76,3.577,8.819a9.007,9.007,0,0,1-.2,3.629s-1.124-.3-1.269.387a29.208,29.208,0,0,0-.145,3.19,6.575,6.575,0,0,1-3.873,2.452,11.214,11.214,0,0,1-3.532.093l-1.321-1.513a1.026,1.026,0,0,0,.882-1.183c-.145-1.025-3.138-2.446-3.676-3.722A5.774,5.774,0,0,1,115.474,102.139Zm-5.819,7.719c.118-.5,1.643-.5,2.229-.86s.7-1.375,1.177-1.644,1.328.7,1.683,1.256a40.53,40.53,0,0,0,2.229,3.479,2.575,2.575,0,0,1,.9,2.077,2.342,2.342,0,0,1-.98,1.217c-.742.229-2.813-.665-3.754-1.059s-3.335-.513-3.643-.862.151-1.138.276-1.88S109.535,110.365,109.655,109.859Z" transform="translate(-108.367 -85)"/>
        </g>
        <g id="nintendo-switch" transform="translate(258.492 61.091)">
          <path id="Tracé_13" data-name="Tracé 13" class="cls-2" d="M288.144,0H281V31.532h7.144a7.091,7.091,0,0,0,7.083-7.082V7.082A7.091,7.091,0,0,0,288.144,0Zm-.031,20.447a3.726,3.726,0,1,1,3.726-3.726A3.73,3.73,0,0,1,288.113,20.447Z" transform="translate(-263.694)"/>
          <g id="Groupe_7" data-name="Groupe 7">
            <path id="Tracé_14" data-name="Tracé 14" class="cls-2" d="M15.458,31.532H7.083A7.091,7.091,0,0,1,0,24.45V7.082A7.091,7.091,0,0,1,7.083,0h8.376ZM7.083,1.848A5.241,5.241,0,0,0,1.848,7.082V24.45a5.241,5.241,0,0,0,5.235,5.235h6.528V1.848Z"/>
            <path id="Tracé_15" data-name="Tracé 15" class="cls-2" d="M68.726,97.452a3.726,3.726,0,1,1,3.726-3.726A3.73,3.73,0,0,1,68.726,97.452Z" transform="translate(-60.997 -84.457)"/>
          </g>
        </g>
        <g id="playstation-logotype" transform="translate(190.531 63.135)">
          <g id="Groupe_8" data-name="Groupe 8" transform="translate(0 0)">
            <path id="Tracé_16" data-name="Tracé 16" class="cls-2" d="M3.463,61.578,2.4,61.992C.8,62.672-.028,63.382,0,64c.089.917,1.124,1.6,3.018,2.1a18.341,18.341,0,0,0,7.515.414V63.945h0l-2.041.769a4.136,4.136,0,0,1-3.225.118c-.325-.207-.473-.71.414-1.035l1.124-.414,3.728-1.331V59.063l-.947.325Z" transform="translate(0 -45.158)"/>
            <path id="Tracé_17" data-name="Tracé 17" class="cls-2" d="M47.826,18.1v7.662c1.6.769,3.018.828,4.083.03,1.095-.769,1.686-2.1,1.686-4.112a7.149,7.149,0,0,0-1.331-4.763,8.991,8.991,0,0,0-4.5-2.811c-2.722-.888-5.029-1.657-6.864-2.041V34.991L45.844,36.5V17.447C45.814,16.294,47.826,16.382,47.826,18.1Z" transform="translate(-28.802 -12.063)"/>
            <path id="Tracé_18" data-name="Tracé 18" class="cls-2" d="M75.087,65.686c-.03-.8-.976-1.42-2.663-1.982a14.8,14.8,0,0,0-5.3-.858A19.957,19.957,0,0,0,61.8,63.97V66.9L66.6,65.212a5.23,5.23,0,0,1,2.692-.207c.947.237.888.769-.059,1.095l-1.095.444L61.8,68.821V71.81l2.958-1.065,7.1-2.515.828-.385C74.406,67.224,75.175,66.543,75.087,65.686Z" transform="translate(-43.519 -47.816)"/>
          </g>
        </g>
        <g id="windows" transform="translate(123.785 62.067)">
          <g id="Groupe_10" data-name="Groupe 10" transform="translate(0 2.219)">
            <g id="Groupe_9" data-name="Groupe 9" transform="translate(0 0)">
              <path id="Tracé_19" data-name="Tracé 19" class="cls-2" d="M0,53.726v9.86H13.8V52Z" transform="translate(0 -52)"/>
            </g>
          </g>
          <g id="Groupe_12" data-name="Groupe 12" transform="translate(15.776 0)">
            <g id="Groupe_11" data-name="Groupe 11" transform="translate(0 0)">
              <path id="Tracé_20" data-name="Tracé 20" class="cls-2" d="M256,17.972V29.8h15.776V16Z" transform="translate(-256 -16)"/>
            </g>
          </g>
          <g id="Groupe_14" data-name="Groupe 14" transform="translate(15.776 15.776)">
            <g id="Groupe_13" data-name="Groupe 13" transform="translate(0 0)">
              <path id="Tracé_21" data-name="Tracé 21" class="cls-2" d="M256,272v11.832l15.776,1.972V272Z" transform="translate(-256 -272)"/>
            </g>
          </g>
          <g id="Groupe_16" data-name="Groupe 16" transform="translate(0 15.776)">
            <g id="Groupe_15" data-name="Groupe 15" transform="translate(0 0)">
              <path id="Tracé_22" data-name="Tracé 22" class="cls-2" d="M0,272v9.86l13.8,1.726V272Z" transform="translate(0 -272)"/>
            </g>
          </g>
        </g>
        <g id="xbox-logo" transform="translate(325.238 61.08)">
          <path id="Tracé_23" data-name="Tracé 23" class="cls-2" d="M7.033,2.678C7.017,2.69,7,2.7,6.99,2.716a1.908,1.908,0,0,1,.3-.251A15.333,15.333,0,0,1,15.786,0a15.7,15.7,0,0,1,8.107,2.241,4.112,4.112,0,0,1,.882.715h0c-2.285-2.52-9,2.887-9,2.887A19.562,19.562,0,0,0,9.719,2.4,3.074,3.074,0,0,0,7.033,2.678ZM27.363,5.06c-.07-.077-.146-.15-.216-.229a2.3,2.3,0,0,0-1.929-.746,18.319,18.319,0,0,0-6.594,4.286,45.544,45.544,0,0,1,6.024,7.346C26.934,19.431,28.3,22.349,27.46,26.4a15.78,15.78,0,0,0-.1-21.34ZM21.661,17.3c-1.013-1.137-2.521-2.766-4.512-4.746q-.653-.65-1.379-1.352s-.727.727-1.675,1.684h0c-1.212,1.224-2.784,2.822-3.656,3.754-1.553,1.657-6,6.863-6.253,9.781,0,0-.99-2.315,1.183-7.654,1.419-3.49,5.708-8.731,7.5-10.439a19,19,0,0,0-3.69-3.045l-.012,0s-.023-.018-.06-.042A7.112,7.112,0,0,0,6,4.138a2.744,2.744,0,0,0-1.731.85A15.783,15.783,0,1,0,27.462,26.4a13.506,13.506,0,0,0-2.456-5.07C24.507,20.632,22.683,18.45,21.661,17.3Z" transform="translate(-0.002)"/>
        </g>
        <g id="apple" transform="translate(61.893 61.091)">
          <path id="Tracé_11" data-name="Tracé 11" class="cls-2" d="M54.6,142.226c-4.693-.027-8.575-9.607-8.575-14.486,0-7.97,5.979-9.714,8.283-9.714a9.532,9.532,0,0,1,3.125.769,6.985,6.985,0,0,0,1.784.512,5.552,5.552,0,0,0,1.28-.415,10.26,10.26,0,0,1,3.858-.933h.009A7.909,7.909,0,0,1,70.98,121.3l.483.725-.695.524a5.845,5.845,0,0,0-2.8,4.82A5.441,5.441,0,0,0,71,132.4c.435.262.885.531.885,1.121,0,.385-3.075,8.657-7.539,8.657a6.063,6.063,0,0,1-2.546-.618,5.162,5.162,0,0,0-2.266-.546,5.83,5.83,0,0,0-1.794.485,8.789,8.789,0,0,1-3.112.726Z" transform="translate(-46.022 -110.693)"/>
          <path id="Tracé_12" data-name="Tracé 12" class="cls-2" d="M261.078,0c.116,4.193-2.882,7.1-5.877,6.919C254.708,3.573,258.2,0,261.078,0Z" transform="translate(-242.274)"/>
        </g>
        <g id="pc" transform="translate(55.824 0)">
          <g id="Groupe_321" data-name="Groupe 321" transform="translate(0 0)">
            <g id="Groupe_320" data-name="Groupe 320">
              <path id="Tracé_1120" data-name="Tracé 1120" class="cls-2" d="M36.877,25.72A2.486,2.486,0,0,0,35.121,25H2.477A2.46,2.46,0,0,0,0,27.476V48.459a2.486,2.486,0,0,0,.72,1.756,2.614,2.614,0,0,0,1.756.765H13.508v1.936h-.45a2,2,0,0,0-1.441.585,2.083,2.083,0,0,0-.585,1.441,2,2,0,0,0,.585,1.441,2.083,2.083,0,0,0,1.441.585h11.8a2,2,0,0,0,1.441-.585,2.083,2.083,0,0,0,.585-1.441A2,2,0,0,0,26.3,53.5a2.083,2.083,0,0,0-1.441-.585H24.4V50.981H35.121A2.46,2.46,0,0,0,37.6,48.5V27.476A2.486,2.486,0,0,0,36.877,25.72ZM1.711,27.476a.831.831,0,0,1,.225-.54.831.831,0,0,1,.54-.225H35.121a.746.746,0,0,1,.54.225.831.831,0,0,1,.225.54V45.487H1.711Zm23.1,27.061a1.523,1.523,0,0,1,.36.135.389.389,0,0,1,.135.27.321.321,0,0,1-.135.27.389.389,0,0,1-.27.135H13.1a.321.321,0,0,1-.27-.135.389.389,0,0,1-.135-.27.483.483,0,0,1,.09-.27.389.389,0,0,1,.27-.135H24.81Zm-9.591-1.621V50.981h7.565v1.936H15.219ZM35.932,48.5a.746.746,0,0,1-.225.54.831.831,0,0,1-.54.225H2.477a.769.769,0,0,1-.765-.765V47.2H35.932Z" transform="translate(0 -25)"/>
            </g>
          </g>
          <g id="Groupe_323" data-name="Groupe 323" transform="translate(2.927 2.882)">
            <g id="Groupe_322" data-name="Groupe 322">
              <path id="Tracé_1121" data-name="Tracé 1121" class="cls-2" d="M56.934,50.6H26.856a.855.855,0,0,0-.856.856V66.4a.847.847,0,0,0,.856.81H56.934a.855.855,0,0,0,.856-.856v-14.9A.855.855,0,0,0,56.934,50.6Zm-.856,14.949H27.666V52.266H56.078Z" transform="translate(-26 -50.6)"/>
            </g>
          </g>
        </g>
        <g id="Groupe_325" data-name="Groupe 325" transform="translate(13.956 36.202)">
          <line id="Ligne_198" data-name="Ligne 198" class="cls-3" y2="12.136" transform="translate(60.679)"/>
          <line id="Ligne_199" data-name="Ligne 199" class="cls-3" x2="60.679" transform="translate(0 12.136)"/>
          <line id="Ligne_200" data-name="Ligne 200" class="cls-3" y2="8.495" transform="translate(60.679 12.136)"/>
          <line id="Ligne_202" data-name="Ligne 202" class="cls-3" y2="8.495" transform="translate(0 11.529)"/>
          <line id="Ligne_203" data-name="Ligne 203" class="cls-3" y2="8.495" transform="translate(124.998 11.529)"/>
          <line id="Ligne_201" data-name="Ligne 201" class="cls-3" x2="64.32" transform="translate(60.679 12.136)"/>
        </g>
      </g>
    </g>
  </g>
</svg>
