<svg xmlns="http://www.w3.org/2000/svg" xmlns:xlink="http://www.w3.org/1999/xlink" width="418" height="248" viewBox="0 0 418 248">
  <defs>
    <style>
      .cls-1 {
        fill: #fff;
      }

      .cls-10, .cls-11, .cls-12, .cls-13, .cls-14, .cls-15, .cls-16, .cls-2, .cls-28, .cls-3, .cls-30, .cls-4, .cls-5, .cls-6, .cls-7, .cls-8, .cls-9 {
        fill: #4937f7;
      }

      .cls-10, .cls-11, .cls-12, .cls-13, .cls-14, .cls-15, .cls-16, .cls-2, .cls-3, .cls-4, .cls-5, .cls-6, .cls-7, .cls-8, .cls-9 {
        stroke: #707070;
        stroke-width: 0.25px;
      }

      .cls-3 {
        opacity: 0.02;
      }

      .cls-4 {
        opacity: 0.052;
      }

      .cls-5 {
        opacity: 0.085;
      }

      .cls-6 {
        opacity: 0.117;
      }

      .cls-7 {
        opacity: 0.15;
      }

      .cls-8 {
        opacity: 0.7;
      }

      .cls-9 {
        opacity: 0.033;
      }

      .cls-10 {
        opacity: 0.046;
      }

      .cls-11 {
        opacity: 0.059;
      }

      .cls-12 {
        opacity: 0.072;
      }

      .cls-13 {
        opacity: 0.098;
      }

      .cls-14 {
        opacity: 0.111;
      }

      .cls-15 {
        opacity: 0.124;
      }

      .cls-16 {
        opacity: 0.137;
      }

      .cls-17 {
        fill: url(#linear-gradient);
      }

      .cls-18 {
        fill: url(#linear-gradient-2);
      }

      .cls-19 {
        fill: url(#linear-gradient-3);
      }

      .cls-20 {
        fill: url(#linear-gradient-4);
      }

      .cls-21 {
        fill: #fdd65b;
      }

      .cls-22 {
        fill: url(#linear-gradient-5);
      }

      .cls-23 {
        fill: #a58a04;
      }

      .cls-24 {
        fill: url(#linear-gradient-6);
      }

      .cls-25 {
        fill: url(#linear-gradient-7);
      }

      .cls-26 {
        fill: url(#linear-gradient-8);
      }

      .cls-27 {
        fill: url(#linear-gradient-9);
      }

      .cls-29 {
        fill: #312dc9;
      }

      .cls-30 {
        opacity: 0.3;
      }

      .cls-31 {
        fill: url(#radial-gradient);
      }

      .cls-32 {
        opacity: 0.2;
        fill: url(#radial-gradient-2);
      }

      .cls-33 {
        fill: #e6e7e8;
      }

      .cls-34 {
        fill: url(#linear-gradient-10);
      }

      .cls-35 {
        fill: #7a6330;
      }

      .cls-36 {
        fill: url(#linear-gradient-11);
      }

      .cls-37 {
        fill: url(#linear-gradient-12);
      }

      .cls-38 {
        fill: url(#linear-gradient-13);
      }

      .cls-39 {
        fill: url(#linear-gradient-14);
      }

      .cls-40 {
        fill: url(#linear-gradient-15);
      }

      .cls-41 {
        fill: url(#linear-gradient-16);
      }

      .cls-42 {
        fill: url(#linear-gradient-17);
      }

      .cls-43 {
        fill: url(#linear-gradient-18);
      }

      .cls-44 {
        fill: url(#linear-gradient-19);
      }

      .cls-45 {
        fill: url(#linear-gradient-20);
      }

      .cls-46 {
        fill: url(#linear-gradient-21);
      }

      .cls-47 {
        fill: url(#linear-gradient-22);
      }

      .cls-48 {
        fill: url(#linear-gradient-23);
      }

      .cls-49 {
        fill: url(#linear-gradient-24);
      }

      .cls-50 {
        fill: url(#linear-gradient-25);
      }

      .cls-51 {
        fill: url(#linear-gradient-26);
      }

      .cls-52 {
        fill: url(#linear-gradient-27);
      }

      .cls-53 {
        fill: url(#linear-gradient-28);
      }

      .cls-54 {
        fill: url(#linear-gradient-29);
      }

      .cls-55 {
        fill: url(#linear-gradient-30);
      }

      .cls-56 {
        fill: url(#linear-gradient-31);
      }

      .cls-57 {
        fill: url(#linear-gradient-32);
      }

      .cls-58 {
        fill: url(#linear-gradient-33);
      }

      .cls-59 {
        fill: url(#linear-gradient-34);
      }

      .cls-60 {
        filter: url(#Rectangle_1627);
      }
    </style>
    <filter id="Rectangle_1627" x="0" y="0" width="418" height="248" filterUnits="userSpaceOnUse">
      <feOffset dy="3" input="SourceAlpha"/>
      <feGaussianBlur stdDeviation="3" result="blur"/>
      <feFlood flood-opacity="0.161"/>
      <feComposite operator="in" in2="blur"/>
      <feComposite in="SourceGraphic"/>
    </filter>
    <linearGradient id="linear-gradient" x1="-0.523" y1="-0.685" x2="0.561" y2="-0.685" gradientUnits="objectBoundingBox">
      <stop offset="0" stop-color="#ffbb96"/>
      <stop offset="0.227" stop-color="#fffbc9"/>
      <stop offset="0.54" stop-color="#f9b673"/>
      <stop offset="0.639" stop-color="#f9b876"/>
      <stop offset="0.725" stop-color="#fabe81"/>
      <stop offset="0.806" stop-color="#fcc993"/>
      <stop offset="0.859" stop-color="#fed2a3"/>
      <stop offset="0.97" stop-color="#ffc28c"/>
    </linearGradient>
    <linearGradient id="linear-gradient-2" x1="-1662.61" y1="-174.251" x2="-1662.011" y2="-174.251" xlink:href="#linear-gradient"/>
    <linearGradient id="linear-gradient-3" x1="-0.535" y1="-1.031" x2="0.557" y2="-1.031" xlink:href="#linear-gradient"/>
    <linearGradient id="linear-gradient-4" x1="-789.768" y1="-141.176" x2="-789.428" y2="-141.176" xlink:href="#linear-gradient"/>
    <linearGradient id="linear-gradient-5" x1="1.05" y1="-1.949" x2="-0.037" y2="-0.462" gradientUnits="objectBoundingBox">
      <stop offset="0.035" stop-color="#ffba78"/>
      <stop offset="0.395" stop-color="#ffc987"/>
      <stop offset="1" stop-color="#feeca8"/>
    </linearGradient>
    <linearGradient id="linear-gradient-6" x1="0.459" y1="-1.714" x2="-0.628" y2="-0.227" xlink:href="#linear-gradient-5"/>
    <linearGradient id="linear-gradient-7" x1="0.66" y1="-3.142" x2="-0.367" y2="-0.977" xlink:href="#linear-gradient"/>
    <linearGradient id="linear-gradient-8" x1="-1.34" y1="-1.999" x2="-0.226" y2="-1.999" xlink:href="#linear-gradient"/>
    <linearGradient id="linear-gradient-9" x1="0.311" y1="-2.721" x2="-0.639" y2="-2.096" xlink:href="#linear-gradient-5"/>
    <radialGradient id="radial-gradient" cx="0.836" cy="0.996" r="0.417" gradientTransform="translate(-0.293) scale(1.587 1)" gradientUnits="objectBoundingBox">
      <stop offset="0" stop-color="#ff63ce"/>
      <stop offset="1"/>
    </radialGradient>
    <radialGradient id="radial-gradient-2" cx="0.353" cy="0.659" r="0.381" gradientTransform="translate(-0.521 7.101) scale(2.475 1.662)" gradientUnits="objectBoundingBox">
      <stop offset="0.136" stop-color="#25166d"/>
      <stop offset="0.217" stop-color="#2c1d72"/>
      <stop offset="0.335" stop-color="#3e317e"/>
      <stop offset="0.478" stop-color="#5d5293"/>
      <stop offset="0.639" stop-color="#887faf"/>
      <stop offset="0.815" stop-color="#bebad4"/>
      <stop offset="1" stop-color="#fff"/>
    </radialGradient>
    <linearGradient id="linear-gradient-10" y1="0.5" x2="1" y2="0.5" gradientUnits="objectBoundingBox">
      <stop offset="0" stop-color="#3d065f"/>
      <stop offset="1" stop-color="#12054e"/>
      <stop offset="1" stop-color="#10054d"/>
    </linearGradient>
    <linearGradient id="linear-gradient-11" x1="0.005" y1="0.5" x2="0.989" y2="0.5" xlink:href="#linear-gradient"/>
    <linearGradient id="linear-gradient-12" x1="0.199" y1="0.502" x2="1.048" y2="0.502" xlink:href="#linear-gradient"/>
    <linearGradient id="linear-gradient-13" x1="0.005" y1="0.5" x2="0.989" y2="0.5" xlink:href="#linear-gradient"/>
    <linearGradient id="linear-gradient-14" x1="0.051" y1="0.502" x2="0.95" y2="0.502" xlink:href="#linear-gradient"/>
    <linearGradient id="linear-gradient-15" x1="1.424" y1="-1.097" x2="0.446" y2="0.594" xlink:href="#linear-gradient-5"/>
    <linearGradient id="linear-gradient-16" x1="1.037" y1="-0.429" x2="0.059" y2="1.261" xlink:href="#linear-gradient-5"/>
    <linearGradient id="linear-gradient-17" x1="1.218" y1="-1.508" x2="0.295" y2="1.519" xlink:href="#linear-gradient"/>
    <linearGradient id="linear-gradient-18" x1="0" y1="0.501" x2="1" y2="0.501" xlink:href="#linear-gradient"/>
    <linearGradient id="linear-gradient-19" x1="1.48" y1="-0.322" x2="0.627" y2="0.386" xlink:href="#linear-gradient-5"/>
    <linearGradient id="linear-gradient-20" x1="-29.313" y1="14.684" x2="-28.525" y2="15.64" xlink:href="#linear-gradient"/>
    <linearGradient id="linear-gradient-21" x1="-27.395" y1="15.963" x2="-27.264" y2="15.125" xlink:href="#linear-gradient-5"/>
    <linearGradient id="linear-gradient-22" x1="-36.952" y1="20.15" x2="-37.556" y2="22.231" xlink:href="#linear-gradient-5"/>
    <linearGradient id="linear-gradient-23" x1="-60.386" y1="21.326" x2="-60.185" y2="20.529" xlink:href="#linear-gradient"/>
    <linearGradient id="linear-gradient-24" x1="-70.548" y1="44.778" x2="-71.932" y2="45.025" xlink:href="#linear-gradient"/>
    <linearGradient id="linear-gradient-25" x1="-70.203" y1="46.302" x2="-70.96" y2="44.63" xlink:href="#linear-gradient-5"/>
    <linearGradient id="linear-gradient-26" x1="-51.698" y1="14.849" x2="-50.33" y2="15.814" xlink:href="#linear-gradient"/>
    <linearGradient id="linear-gradient-27" x1="0.22" y1="0.017" x2="0.864" y2="0.958" xlink:href="#linear-gradient"/>
    <linearGradient id="linear-gradient-28" x1="0.441" y1="0.973" x2="0.55" y2="0.165" xlink:href="#linear-gradient-5"/>
    <linearGradient id="linear-gradient-29" x1="0.652" y1="-0.074" x2="0.129" y2="1.929" xlink:href="#linear-gradient-5"/>
    <linearGradient id="linear-gradient-30" x1="0.384" y1="0.995" x2="0.664" y2="0.156" xlink:href="#linear-gradient"/>
    <linearGradient id="linear-gradient-31" x1="0.458" y1="1.053" x2="0.516" y2="0.068" xlink:href="#linear-gradient"/>
    <linearGradient id="linear-gradient-32" x1="0.839" y1="0.449" x2="-0.63" y2="0.676" xlink:href="#linear-gradient"/>
    <linearGradient id="linear-gradient-33" x1="1.191" y1="1.833" x2="0.389" y2="0.286" xlink:href="#linear-gradient-5"/>
    <linearGradient id="linear-gradient-34" x1="0.229" y1="-0.045" x2="0.999" y2="0.919" xlink:href="#linear-gradient"/>
  </defs>
  <g id="profit" transform="translate(-1015 -2127)">
    <g id="Groupe_707" data-name="Groupe 707" transform="translate(0 694)">
      <g class="cls-60" transform="matrix(1, 0, 0, 1, 1015, 1433)">
        <rect id="Rectangle_1627-2" data-name="Rectangle 1627" class="cls-1" width="400" height="230" rx="20" transform="translate(9 6)"/>
      </g>
    </g>
    <g id="bitcoin_pay" transform="translate(971.4 2063.64)">
      <g id="Groupe_718" data-name="Groupe 718" transform="translate(163.599 157.514)">
        <path id="Tracé_1790" data-name="Tracé 1790" class="cls-2" d="M586.7,737.769l-2.781-.859.319,14.631,4.262.383.909-10.117A3.87,3.87,0,0,0,586.7,737.769Z" transform="translate(-484.682 -663.635)"/>
        <path id="Tracé_1791" data-name="Tracé 1791" class="cls-2" d="M583.461,739.389l-2.781-.859L581,753.161l4.262.382.909-10.117A3.864,3.864,0,0,0,583.461,739.389Z" transform="translate(-482.207 -664.873)"/>
        <path id="Tracé_1792" data-name="Tracé 1792" class="cls-2" d="M182.324,428.191a15,15,0,0,0-13.573-.024c-3.612,2.085-3.681,5.423-.286,7.6l13.861,73.255,79.611,46.113a3.469,3.469,0,0,0,5.208-3V482a8.806,8.806,0,0,0-4.42-7.635Z" transform="translate(-165.416 -426.556)"/>
        <path id="Tracé_1793" data-name="Tracé 1793" class="cls-2" d="M251.294,530.231l-2.215-1.32a3.1,3.1,0,0,1-.479-.333V458.53l76.3,43.7a4.234,4.234,0,0,1,2.12,3.664v68.2Z" transform="translate(-228.531 -450.981)"/>
        <path id="Tracé_1794" data-name="Tracé 1794" class="cls-2" d="M182.324,428.191a15,15,0,0,0-13.573-.024c-3.612,2.085-3.681,5.423-.286,7.6l13.861,73.255,80.258,46.658a3.469,3.469,0,0,0,5.208-3V482.548a8.8,8.8,0,0,0-4.42-7.635Z" transform="translate(-165.416 -426.556)"/>
        <path id="Tracé_1795" data-name="Tracé 1795" class="cls-2" d="M182.525,431.621a15,15,0,0,0-13.573-.024c-3.612,2.085-3.681,5.423-.283,7.6l13.861,73.255L262.14,558.57a3.469,3.469,0,0,0,5.208-3V485.435a8.8,8.8,0,0,0-4.42-7.635Z" transform="translate(-165.57 -429.176)"/>
        <path id="Tracé_1796" data-name="Tracé 1796" class="cls-2" d="M172.345,568.29s-3.681,5.423-.283,7.6l13.861,41.4,79.611,46.113a3.469,3.469,0,0,0,5.208-3V622.128Z" transform="translate(-168.963 -534.826)"/>
        <path id="Tracé_1797" data-name="Tracé 1797" class="cls-2" d="M172.345,585.27s-3.681,5.423-.283,7.6l13.861,33.767,79.611,46.113a3.469,3.469,0,0,0,5.208-3V639.106Z" transform="translate(-168.963 -547.798)"/>
        <path id="Tracé_1798" data-name="Tracé 1798" class="cls-2" d="M182.525,431.621a15,15,0,0,0-13.573-.024c-3.612,2.085-3.681,5.423-.283,7.6l13.861,73.255L262.14,558.57a3.469,3.469,0,0,0,5.208-3V485.435a8.8,8.8,0,0,0-4.42-7.635Z" transform="translate(-165.57 -429.176)"/>
        <path id="Tracé_1799" data-name="Tracé 1799" class="cls-2" d="M425.423,703.1l-3.933-17.283-40.94-7.27Z" transform="translate(-329.328 -619.054)"/>
        <path id="Tracé_1800" data-name="Tracé 1800" class="cls-2" d="M421.016,700.224l-3.848-16.35-41.027-8.2Z" transform="translate(-325.959 -616.854)"/>
        <g id="Groupe_708" data-name="Groupe 708" transform="translate(87.674 80.011)">
          <path id="Tracé_1801" data-name="Tracé 1801" class="cls-3" d="M534.94,769.033V765.44l11.548,6.665V775.7Z" transform="translate(-534.94 -765.44)"/>
          <path id="Tracé_1802" data-name="Tracé 1802" class="cls-4" d="M536.16,770.472V767.54l10.972,6.335v2.932Z" transform="translate(-535.872 -767.044)"/>
          <path id="Tracé_1803" data-name="Tracé 1803" class="cls-5" d="M537.37,771.911V769.64l10.4,6v2.271Z" transform="translate(-536.796 -768.648)"/>
          <path id="Tracé_1804" data-name="Tracé 1804" class="cls-6" d="M538.58,773.35v-1.61l9.829,5.673v1.61Z" transform="translate(-537.721 -770.253)"/>
          <path id="Tracé_1805" data-name="Tracé 1805" class="cls-7" d="M549.045,780.132l-9.255-5.343v-.949l9.255,5.343Z" transform="translate(-538.645 -771.857)"/>
        </g>
        <g id="Groupe_709" data-name="Groupe 709" transform="translate(1.556 0.99)">
          <path id="Tracé_1806" data-name="Tracé 1806" class="cls-3" d="M266.889,557.822a2.436,2.436,0,0,1-1.235-.338L186.891,511.86a1.146,1.146,0,0,1,1.147-1.983L266.8,555.5a.164.164,0,0,0,.087.031.245.245,0,0,0,.146-.064.151.151,0,0,0,.045-.125V485.207a5.537,5.537,0,0,0-2.772-4.788L183.9,434.24a10.742,10.742,0,0,0-5.187-1.2,10.566,10.566,0,0,0-5.1,1.171c-.878.505-1.114.949-1.131,1.039a1.144,1.144,0,0,1-2.288-.068c.026-1.077.836-2.125,2.276-2.956a12.883,12.883,0,0,1,6.25-1.478,13.052,13.052,0,0,1,6.33,1.5l80.406,46.177a7.833,7.833,0,0,1,3.922,6.774v70.134a2.446,2.446,0,0,1-.751,1.78A2.534,2.534,0,0,1,266.889,557.822Z" transform="translate(-170.189 -430.75)"/>
          <path id="Tracé_1807" data-name="Tracé 1807" class="cls-4" d="M267.508,558.257a2.271,2.271,0,0,1-1.14-.312L187.6,512.321a.954.954,0,1,1,.956-1.65l78.766,45.624a.309.309,0,0,0,.352-.014.46.46,0,0,0,.179-.217c.021-.021.033-17.575.033-17.627,0-.562-.3-53.685-.789-53.963,0-1.478-20.9-14.4-22.182-15.136-.357-.205-61.171-34.959-61.7-34.959a12.216,12.216,0,0,0-5.26-.581,9.371,9.371,0,0,0-4.207,1.3,3.732,3.732,0,0,0-.944.874.872.872,0,0,1-.881.833.959.959,0,0,1-.93-.982c.026-1,.8-2,2.179-2.8a12.7,12.7,0,0,1,6.155-1.452,12.843,12.843,0,0,1,6.233,1.478l80.406,46.179a7.64,7.64,0,0,1,3.825,6.608v70.134a2.264,2.264,0,0,1-.692,1.643A2.341,2.341,0,0,1,267.508,558.257Z" transform="translate(-170.808 -431.376)"/>
          <path id="Tracé_1808" data-name="Tracé 1808" class="cls-5" d="M268.134,558.679a2.052,2.052,0,0,1-1.044-.288l-78.763-45.624a.764.764,0,1,1,.765-1.322l78.766,45.624a.521.521,0,0,0,.614-.057.586.586,0,0,0,.212-.371c.014-.014.021-35.1.021-35.129,0-1.121-.6-37.233-1.577-37.793,0-.987-40.734-24.994-41.589-25.485-.715-.413-41.934-23.74-42.987-23.74a12.982,12.982,0,0,0-5.336.038,7.654,7.654,0,0,0-3.308,1.421c-.427.373-.645.661-.756.706a.583.583,0,0,1-.59.555.766.766,0,0,1-.744-.784c.024-.933.772-1.879,2.085-2.635a12.508,12.508,0,0,1,6.058-1.426,12.663,12.663,0,0,1,6.139,1.452L266.507,480a7.449,7.449,0,0,1,3.73,6.443v70.134a2.054,2.054,0,0,1-.635,1.5A2.151,2.151,0,0,1,268.134,558.679Z" transform="translate(-171.434 -431.988)"/>
          <path id="Tracé_1809" data-name="Tracé 1809" class="cls-6" d="M268.753,559.13a1.863,1.863,0,0,1-.949-.262L189.04,513.246a.572.572,0,1,1,.574-.989l78.766,45.624a.73.73,0,0,0,.878-.1.752.752,0,0,0,.248-.524c.007-.007.012-52.615.012-52.632,0-1.683-.907-20.784-2.366-21.622,0-.493-60.572-35.585-61-35.831-1.072-.619-22.694-12.518-24.276-12.518a12.6,12.6,0,0,0-5.411.656,5.205,5.205,0,0,0-2.411,1.546c-.2.3-.411.517-.569.538a.3.3,0,0,1-.3.279.572.572,0,0,1-.557-.588c.021-.859.741-1.754,1.988-2.474a12.315,12.315,0,0,1,5.964-1.4,12.46,12.46,0,0,1,6.042,1.426l80.406,46.179a7.258,7.258,0,0,1,3.634,6.278v70.134a1.865,1.865,0,0,1-.576,1.367A1.977,1.977,0,0,1,268.753,559.13Z" transform="translate(-172.053 -432.629)"/>
          <path id="Tracé_1810" data-name="Tracé 1810" class="cls-7" d="M269.349,559.534a1.665,1.665,0,0,1-.852-.236l-78.763-45.622a.382.382,0,1,1,.382-.661l78.766,45.624a.946.946,0,0,0,1.143-.144.9.9,0,0,0,.281-.678V487.682a6.3,6.3,0,0,0-3.154-5.449L186.74,436.054a11.487,11.487,0,0,0-5.567-1.3,11.366,11.366,0,0,0-5.487,1.273c-.907.522-1.5,1.178-1.511,1.672a.382.382,0,0,1-.382.373h-.009a.383.383,0,0,1-.373-.392c.019-.789.711-1.631,1.894-2.314a12.129,12.129,0,0,1,5.869-1.376,12.281,12.281,0,0,1,5.947,1.4l80.406,46.179a7.07,7.07,0,0,1,3.539,6.113v70.134a1.663,1.663,0,0,1-.517,1.23A1.756,1.756,0,0,1,269.349,559.534Z" transform="translate(-172.649 -433.225)"/>
        </g>
        <g id="Groupe_710" data-name="Groupe 710" transform="translate(2.3 1.748)">
          <path id="Tracé_1811" data-name="Tracé 1811" class="cls-2" d="M269.288,559.529h-.007a1.684,1.684,0,0,1-.848-.238l-.727-.423a.4.4,0,1,1,.4-.7l.727.423a.918.918,0,0,0,.458.13.435.435,0,0,1,.439.39.372.372,0,0,1-.34.413C269.383,559.529,269.312,559.529,269.288,559.529Zm1.282-.923a.444.444,0,0,1-.123-.019.4.4,0,0,1-.26-.505.958.958,0,0,0,.043-.29V556.6a.4.4,0,0,1,.8,0v1.188a1.816,1.816,0,0,1-.08.536A.4.4,0,0,1,270.57,558.606Zm-4.054-.486a.389.389,0,0,1-.2-.054l-1.391-.805a.4.4,0,1,1,.4-.7l1.391.805a.4.4,0,0,1-.2.751Zm-2.781-1.613a.384.384,0,0,1-.2-.054l-1.391-.805a.4.4,0,0,1,.4-.7l1.391.805a.4.4,0,0,1-.2.751Zm6.9-1.11a.4.4,0,0,1-.4-.4v-1.608a.4.4,0,0,1,.8,0V555A.4.4,0,0,1,270.632,555.4Zm-9.678-.5a.383.383,0,0,1-.2-.054l-1.391-.805a.4.4,0,1,1,.4-.7l1.391.805a.4.4,0,0,1-.2.751Zm-2.784-1.613a.389.389,0,0,1-.2-.054l-1.391-.805a.4.4,0,1,1,.4-.7l1.391.805a.4.4,0,0,1-.2.751Zm12.461-1.1a.4.4,0,0,1-.4-.4v-1.608a.4.4,0,0,1,.8,0v1.608A.4.4,0,0,1,270.632,552.184Zm-15.243-.51a.383.383,0,0,1-.2-.054l-1.391-.805a.4.4,0,0,1,.4-.7l1.391.805a.4.4,0,0,1-.2.751Zm-2.781-1.612a.383.383,0,0,1-.2-.054l-1.391-.805a.4.4,0,1,1,.4-.7l1.391.805a.4.4,0,0,1-.2.751Zm18.024-1.093a.4.4,0,0,1-.4-.4V546.96a.4.4,0,1,1,.8,0v1.608A.4.4,0,0,1,270.632,548.969Zm-20.808-.517a.384.384,0,0,1-.2-.054l-1.391-.805a.4.4,0,0,1,.4-.7l1.391.805a.4.4,0,0,1-.2.751Zm-2.781-1.613a.384.384,0,0,1-.2-.054l-1.391-.805a.4.4,0,0,1,.4-.7l1.391.805a.4.4,0,0,1-.2.751Zm23.589-1.086a.4.4,0,0,1-.4-.4v-1.608a.4.4,0,0,1,.8,0v1.608A.4.4,0,0,1,270.632,545.753Zm-26.37-.524a.384.384,0,0,1-.2-.054l-1.391-.805a.4.4,0,1,1,.4-.7l1.391.805a.4.4,0,0,1-.2.751Zm-2.784-1.613a.384.384,0,0,1-.2-.054l-1.391-.805a.4.4,0,1,1,.4-.7l1.391.805a.4.4,0,0,1-.2.751Zm29.154-1.077a.4.4,0,0,1-.4-.4V540.53a.4.4,0,1,1,.8,0v1.608A.4.4,0,0,1,270.632,542.54Zm-31.935-.534a.389.389,0,0,1-.2-.054l-1.391-.805a.4.4,0,1,1,.4-.7l1.391.805a.4.4,0,0,1-.2.751Zm-2.781-1.613a.383.383,0,0,1-.2-.054l-1.391-.805a.4.4,0,1,1,.4-.7l1.391.805a.4.4,0,0,1-.2.751Zm34.716-1.07a.4.4,0,0,1-.4-.4v-1.608a.4.4,0,0,1,.8,0v1.608A.4.4,0,0,1,270.632,539.324Zm-37.5-.541a.383.383,0,0,1-.2-.054l-1.391-.805a.4.4,0,0,1,.4-.7l1.391.805a.4.4,0,0,1-.2.751Zm-2.781-1.613a.389.389,0,0,1-.2-.054l-1.391-.805a.4.4,0,1,1,.4-.7l1.391.805a.4.4,0,0,1-.2.751Zm40.281-1.062a.4.4,0,0,1-.4-.4V534.1a.4.4,0,0,1,.8,0v1.608A.4.4,0,0,1,270.632,536.108Zm-43.062-.548a.384.384,0,0,1-.2-.054l-1.391-.805a.4.4,0,0,1,.4-.7l1.391.805a.4.4,0,0,1-.2.751Zm-2.784-1.613a.384.384,0,0,1-.2-.054l-1.391-.805a.4.4,0,0,1,.4-.7l1.391.805a.4.4,0,0,1-.2.751Zm45.846-1.055a.4.4,0,0,1-.4-.4v-1.608a.4.4,0,0,1,.8,0v1.608A.4.4,0,0,1,270.632,532.893ZM222,532.338a.383.383,0,0,1-.2-.054l-1.391-.805a.4.4,0,1,1,.4-.7l1.391.805a.4.4,0,0,1-.2.751Zm-2.781-1.613a.384.384,0,0,1-.2-.054l-1.391-.805a.4.4,0,0,1,.4-.7l1.391.805a.4.4,0,0,1-.2.751Zm51.409-1.046a.4.4,0,0,1-.4-.4V527.67a.4.4,0,0,1,.8,0v1.608A.4.4,0,0,1,270.632,529.679Zm-54.19-.564a.383.383,0,0,1-.2-.054l-1.391-.805a.4.4,0,1,1,.4-.7l1.391.805a.4.4,0,0,1,.146.55A.413.413,0,0,1,216.442,529.115Zm-2.784-1.613a.383.383,0,0,1-.2-.054l-1.391-.805a.4.4,0,1,1,.4-.7l1.391.805a.4.4,0,0,1-.2.751Zm56.973-1.039a.4.4,0,0,1-.4-.4v-1.608a.4.4,0,0,1,.8,0v1.608A.4.4,0,0,1,270.632,526.464Zm-59.755-.571a.389.389,0,0,1-.2-.054l-1.391-.805a.4.4,0,0,1,.4-.7l1.391.805a.4.4,0,0,1-.2.751ZM208.1,524.28a.383.383,0,0,1-.2-.054l-1.391-.805a.4.4,0,0,1,.4-.7l1.391.805a.4.4,0,0,1-.2.751Zm62.536-1.032a.4.4,0,0,1-.4-.4v-1.608a.4.4,0,1,1,.8,0v1.608A.4.4,0,0,1,270.632,523.248Zm-65.32-.578a.384.384,0,0,1-.2-.054l-1.391-.805a.4.4,0,0,1,.4-.7l1.391.805a.4.4,0,0,1-.2.751Zm-2.781-1.613a.389.389,0,0,1-.2-.054l-1.391-.805a.4.4,0,0,1,.4-.7l1.391.805a.4.4,0,0,1-.2.751Zm68.1-1.022a.4.4,0,0,1-.4-.4v-1.608a.4.4,0,1,1,.8,0v1.608A.4.4,0,0,1,270.632,520.035Zm-70.882-.588a.383.383,0,0,1-.2-.054l-1.391-.805a.4.4,0,1,1,.4-.7l1.391.805a.4.4,0,0,1,.146.55A.413.413,0,0,1,199.75,519.447Zm-2.784-1.613a.383.383,0,0,1-.2-.054l-1.391-.805a.4.4,0,1,1,.4-.7l1.391.805a.4.4,0,0,1-.2.751Zm73.666-1.015a.4.4,0,0,1-.4-.4V514.81a.4.4,0,0,1,.8,0v1.608A.4.4,0,0,1,270.632,516.819Zm-76.447-.595a.39.39,0,0,1-.2-.054l-1.391-.805a.4.4,0,0,1,.4-.7l1.391.805a.4.4,0,0,1-.2.751Zm-2.781-1.613a.389.389,0,0,1-.2-.054l-1.391-.805a.4.4,0,1,1,.4-.7l1.391.805a.4.4,0,0,1,.146.55A.408.408,0,0,1,191.4,514.611Zm79.228-1.008a.4.4,0,0,1-.4-.4v-1.608a.4.4,0,1,1,.8,0V513.2A.4.4,0,0,1,270.632,513.6Zm0-3.216a.4.4,0,0,1-.4-.4v-1.608a.4.4,0,1,1,.8,0v1.608A.4.4,0,0,1,270.632,510.387Zm0-3.213a.4.4,0,0,1-.4-.4v-1.608a.4.4,0,0,1,.8,0v1.608A.4.4,0,0,1,270.632,507.174Zm0-3.216a.4.4,0,0,1-.4-.4v-1.608a.4.4,0,0,1,.8,0v1.608A.4.4,0,0,1,270.632,503.958Zm0-3.216a.4.4,0,0,1-.4-.4v-1.608a.4.4,0,0,1,.8,0v1.608A.4.4,0,0,1,270.632,500.743Zm0-3.213a.4.4,0,0,1-.4-.4V495.52a.4.4,0,1,1,.8,0v1.608A.4.4,0,0,1,270.632,497.529Zm0-3.216a.4.4,0,0,1-.4-.4V492.3a.4.4,0,1,1,.8,0v1.608A.4.4,0,0,1,270.632,494.314Zm0-3.216a.4.4,0,0,1-.4-.4v-1.608a.4.4,0,1,1,.8,0V490.7A.4.4,0,0,1,270.632,491.1Zm0-3.216a.4.4,0,0,1-.4-.392,6.265,6.265,0,0,0-.222-1.49.4.4,0,1,1,.774-.212,6.993,6.993,0,0,1,.25,1.681.4.4,0,0,1-.392.413Zm-.845-3.067a.4.4,0,0,1-.352-.205,6.424,6.424,0,0,0-.888-1.221.4.4,0,0,1,.588-.545,7.26,7.26,0,0,1,1,1.374.4.4,0,0,1-.153.548A.41.41,0,0,1,269.784,484.815Zm-2.167-2.333a.4.4,0,0,1-.22-.066c-.1-.066-.205-.132-.314-.191l-1.055-.607a.4.4,0,0,1,.4-.7l1.055.607c.12.068.236.142.352.215a.4.4,0,0,1,.118.557A.4.4,0,0,1,267.617,482.483Zm-2.781-1.61a.389.389,0,0,1-.2-.054l-1.393-.8a.4.4,0,0,1,.4-.7l1.393.8a.4.4,0,0,1,.149.548A.4.4,0,0,1,264.835,480.872Zm-2.788-1.6a.389.389,0,0,1-.2-.054l-1.393-.8a.4.4,0,0,1,.4-.7l1.393.8a.4.4,0,0,1,.149.548A.393.393,0,0,1,262.047,479.269Zm-2.788-1.6a.389.389,0,0,1-.2-.054l-1.393-.8a.4.4,0,1,1,.4-.7l1.393.8a.4.4,0,0,1,.149.548A.4.4,0,0,1,259.259,477.671Zm-2.788-1.6a.389.389,0,0,1-.2-.054l-1.393-.8a.4.4,0,0,1,.4-.7l1.393.8a.4.4,0,0,1,.149.548A.393.393,0,0,1,256.47,476.068Zm-2.786-1.6a.389.389,0,0,1-.2-.054l-1.393-.8a.4.4,0,0,1,.4-.7l1.393.8a.4.4,0,0,1,.149.548A.4.4,0,0,1,253.684,474.467Zm-2.788-1.6a.389.389,0,0,1-.2-.054l-1.393-.8a.4.4,0,1,1,.4-.7l1.393.8a.4.4,0,0,1,.149.548A.4.4,0,0,1,250.9,472.866Zm-2.788-1.6a.389.389,0,0,1-.2-.054l-1.393-.8a.4.4,0,0,1,.4-.7l1.393.8a.4.4,0,0,1,.149.548A.4.4,0,0,1,248.108,471.266Zm-2.788-1.6a.389.389,0,0,1-.2-.054l-1.393-.8a.4.4,0,1,1,.4-.7l1.393.8a.4.4,0,0,1,.149.548A.4.4,0,0,1,245.319,469.665Zm-2.788-1.6a.389.389,0,0,1-.2-.054l-1.393-.8a.4.4,0,0,1,.4-.7l1.393.8a.4.4,0,0,1,.149.548A.393.393,0,0,1,242.531,468.062Zm-2.788-1.6a.389.389,0,0,1-.2-.054l-1.393-.8a.4.4,0,0,1,.4-.7l1.393.8a.4.4,0,0,1,.149.548A.393.393,0,0,1,239.743,466.461Zm-2.788-1.6a.389.389,0,0,1-.2-.054l-1.393-.8a.4.4,0,0,1,.4-.7l1.393.8a.4.4,0,0,1,.149.548A.393.393,0,0,1,236.954,464.86Zm-2.786-1.6a.389.389,0,0,1-.2-.054l-1.393-.8a.4.4,0,0,1,.4-.7l1.393.8a.4.4,0,0,1,.149.548A.4.4,0,0,1,234.168,463.259Zm-2.788-1.6a.389.389,0,0,1-.2-.054l-1.393-.8a.4.4,0,0,1,.4-.7l1.393.8a.4.4,0,0,1,.149.548A.4.4,0,0,1,231.38,461.659Zm-2.788-1.6a.389.389,0,0,1-.2-.054L227,459.2a.4.4,0,0,1,.4-.7l1.393.8a.4.4,0,0,1,.149.548A.4.4,0,0,1,228.592,460.058Zm-2.788-1.6a.389.389,0,0,1-.2-.054l-1.393-.8a.4.4,0,1,1,.4-.7l1.393.8a.4.4,0,0,1,.149.548A.4.4,0,0,1,225.8,458.457Zm-2.788-1.6a.389.389,0,0,1-.2-.054l-1.393-.8a.4.4,0,0,1,.4-.7l1.393.8a.4.4,0,0,1,.149.548A.39.39,0,0,1,223.015,456.854Zm-2.786-1.6a.389.389,0,0,1-.2-.054l-1.393-.8a.4.4,0,0,1,.4-.7l1.393.8a.4.4,0,0,1,.149.548A.4.4,0,0,1,220.229,455.253Zm-2.788-1.6a.389.389,0,0,1-.2-.054l-1.393-.8a.4.4,0,0,1,.4-.7l1.393.8a.4.4,0,0,1,.149.548A.4.4,0,0,1,217.441,453.652Zm-2.788-1.6a.389.389,0,0,1-.2-.054l-1.393-.8a.4.4,0,0,1,.4-.7l1.393.8a.4.4,0,0,1,.149.548A.393.393,0,0,1,214.652,452.052Zm-2.788-1.6a.389.389,0,0,1-.2-.054l-1.393-.8a.4.4,0,0,1,.4-.7l1.393.8a.4.4,0,0,1,.149.548A.4.4,0,0,1,211.864,450.451Zm-2.788-1.6a.389.389,0,0,1-.2-.054l-1.393-.8a.4.4,0,1,1,.4-.7l1.393.8a.4.4,0,0,1,.149.548A.4.4,0,0,1,209.076,448.85Zm-2.788-1.6a.389.389,0,0,1-.2-.054l-1.393-.8a.4.4,0,0,1,.4-.7l1.393.8a.4.4,0,0,1,.149.548A.4.4,0,0,1,206.287,447.249Zm-2.788-1.6a.389.389,0,0,1-.2-.054l-1.393-.8a.4.4,0,0,1,.4-.7l1.393.8a.4.4,0,0,1,.149.548A.393.393,0,0,1,203.5,445.646Zm-2.786-1.6a.389.389,0,0,1-.2-.054l-1.393-.8a.4.4,0,0,1,.4-.7l1.393.8a.4.4,0,0,1,.149.548A.4.4,0,0,1,200.713,444.046Zm-2.788-1.6a.389.389,0,0,1-.2-.054l-1.393-.8a.4.4,0,1,1,.4-.7l1.393.8a.4.4,0,0,1,.149.548A.393.393,0,0,1,197.924,442.445Zm-2.788-1.6a.389.389,0,0,1-.2-.054l-1.393-.8a.4.4,0,0,1,.4-.7l1.393.8a.4.4,0,0,1,.149.548A.4.4,0,0,1,195.136,440.844Zm-2.788-1.6a.389.389,0,0,1-.2-.054l-1.393-.8a.4.4,0,1,1,.4-.7l1.393.8a.4.4,0,0,1,.149.548A.4.4,0,0,1,192.348,439.243Zm-18.607-1.176h-.009a.4.4,0,0,1-.392-.411,2.391,2.391,0,0,1,.93-1.636.4.4,0,1,1,.534.6,1.7,1.7,0,0,0-.663,1.058A.4.4,0,0,1,173.741,438.067Zm15.819-.425a.389.389,0,0,1-.2-.054l-1.393-.8a.4.4,0,0,1,.4-.7l1.393.8a.4.4,0,0,1,.149.548A.4.4,0,0,1,189.559,437.642Zm-2.788-1.6a.416.416,0,0,1-.2-.05,8.442,8.442,0,0,0-1.4-.611.4.4,0,0,1,.257-.763,9.3,9.3,0,0,1,1.539.671.4.4,0,0,1,.156.548A.407.407,0,0,1,186.771,436.042Zm-10.891-.2a.4.4,0,0,1-.179-.763,9.738,9.738,0,0,1,1.563-.6.4.4,0,0,1,.227.77,9.1,9.1,0,0,0-1.433.55A.406.406,0,0,1,175.88,435.843Zm7.867-.848a.411.411,0,0,1-.076-.007,13.236,13.236,0,0,0-1.546-.2.4.4,0,0,1-.373-.43.4.4,0,0,1,.43-.371,14.246,14.246,0,0,1,1.639.212.4.4,0,0,1-.073.8Zm-4.8-.078a.4.4,0,0,1-.061-.8,14.443,14.443,0,0,1,1.646-.161.406.406,0,0,1,.418.385.4.4,0,0,1-.385.418,13.963,13.963,0,0,0-1.554.151A.29.29,0,0,1,178.944,434.918Z" transform="translate(-173.339 -433.959)"/>
        </g>
        <g id="Groupe_711" data-name="Groupe 711" transform="translate(16.963 41.096)">
          <path id="Tracé_1812" data-name="Tracé 1812" class="cls-2" d="M315.3,647.051a.389.389,0,0,1-.2-.054l-1.393-.8a.4.4,0,1,1,.4-.7l1.393.8a.4.4,0,0,1,.149.548A.393.393,0,0,1,315.3,647.051Zm-2.788-1.6a.39.39,0,0,1-.2-.054l-1.393-.8a.4.4,0,0,1,.4-.7l1.393.8a.4.4,0,0,1,.149.548A.4.4,0,0,1,312.514,645.451Zm-2.786-1.6a.39.39,0,0,1-.2-.054l-1.393-.8a.4.4,0,0,1,.4-.7l1.393.8a.4.4,0,0,1-.2.751Zm-2.788-1.6a.389.389,0,0,1-.2-.054l-1.393-.8a.4.4,0,1,1,.4-.7l1.393.8a.4.4,0,0,1,.149.548A.4.4,0,0,1,306.939,642.249Zm-2.788-1.6a.389.389,0,0,1-.2-.054l-1.393-.8a.4.4,0,0,1,.4-.7l1.393.8a.4.4,0,0,1,.149.548A.393.393,0,0,1,304.151,640.646Zm-2.788-1.6a.389.389,0,0,1-.2-.054l-1.393-.8a.4.4,0,1,1,.4-.7l1.393.8a.4.4,0,0,1,.149.548A.393.393,0,0,1,301.363,639.045Zm-2.788-1.6a.389.389,0,0,1-.2-.054l-1.393-.8a.4.4,0,1,1,.4-.7l1.393.8a.4.4,0,0,1,.149.548A.4.4,0,0,1,298.574,637.444Zm-2.788-1.6a.389.389,0,0,1-.2-.054l-1.393-.8a.4.4,0,1,1,.4-.7l1.393.8a.4.4,0,0,1,.149.548A.4.4,0,0,1,295.786,635.844Zm-2.788-1.6a.389.389,0,0,1-.2-.054l-1.393-.8a.4.4,0,1,1,.4-.7l1.393.8a.4.4,0,0,1,.149.548A.4.4,0,0,1,293,634.243Zm-2.786-1.6a.39.39,0,0,1-.2-.054l-1.393-.8a.4.4,0,1,1,.4-.7l1.393.8a.4.4,0,0,1-.2.751Zm-2.788-1.6a.389.389,0,0,1-.2-.054l-1.393-.8a.4.4,0,0,1,.4-.7l1.393.8a.4.4,0,0,1,.149.548A.4.4,0,0,1,287.423,631.041Zm-2.788-1.6a.39.39,0,0,1-.2-.054l-1.393-.8a.4.4,0,0,1,.4-.7l1.393.8a.4.4,0,0,1,.149.548A.393.393,0,0,1,284.635,629.438Zm-2.788-1.6a.389.389,0,0,1-.2-.054l-1.393-.8a.4.4,0,1,1,.4-.7l1.393.8a.4.4,0,0,1,.149.548A.393.393,0,0,1,281.847,627.837Zm-2.788-1.6a.389.389,0,0,1-.2-.054l-1.393-.8a.4.4,0,0,1,.4-.7l1.393.8a.4.4,0,0,1,.149.548A.4.4,0,0,1,279.058,626.237Zm-2.786-1.6a.389.389,0,0,1-.2-.054l-1.393-.8a.4.4,0,1,1,.4-.7l1.393.8a.4.4,0,0,1-.2.751Zm-2.788-1.6a.389.389,0,0,1-.2-.054l-1.393-.8a.4.4,0,0,1,.4-.7l1.393.8a.4.4,0,0,1,.149.548A.4.4,0,0,1,273.484,623.035Zm-2.788-1.6a.39.39,0,0,1-.2-.054l-1.393-.8a.4.4,0,0,1,.4-.7l1.393.8a.4.4,0,0,1,.149.548A.4.4,0,0,1,270.7,621.434Zm-2.788-1.6a.389.389,0,0,1-.2-.054l-1.393-.8a.4.4,0,1,1,.4-.7l1.393.8a.4.4,0,0,1,.149.548A.4.4,0,0,1,267.907,619.834Zm-2.788-1.6a.39.39,0,0,1-.2-.054l-1.393-.8a.4.4,0,0,1,.4-.7l1.393.8a.4.4,0,0,1,.149.548A.393.393,0,0,1,265.119,618.23Zm-2.788-1.6a.39.39,0,0,1-.2-.054l-1.393-.8a.4.4,0,1,1,.4-.7l1.393.8a.4.4,0,0,1,.149.548A.393.393,0,0,1,262.33,616.63Zm-2.788-1.6a.389.389,0,0,1-.2-.054l-1.393-.8a.4.4,0,1,1,.4-.7l1.393.8a.4.4,0,0,1,.149.548A.4.4,0,0,1,259.542,615.029Zm-2.786-1.6a.389.389,0,0,1-.2-.054l-1.393-.8a.4.4,0,1,1,.4-.7l1.393.8a.4.4,0,0,1-.2.751Zm-2.788-1.6a.39.39,0,0,1-.2-.054l-1.393-.8a.4.4,0,0,1,.4-.7l1.393.8a.4.4,0,0,1,.149.548A.4.4,0,0,1,253.968,611.827Zm-2.788-1.6a.389.389,0,0,1-.2-.054l-1.393-.8a.4.4,0,1,1,.4-.7l1.393.8a.4.4,0,0,1,.149.548A.393.393,0,0,1,251.179,610.224Zm-2.788-1.6a.389.389,0,0,1-.2-.054l-1.393-.8a.4.4,0,0,1,.4-.7l1.393.8a.4.4,0,0,1,.149.548A.393.393,0,0,1,248.391,608.624Zm-2.788-1.6a.39.39,0,0,1-.2-.054l-1.393-.8a.4.4,0,1,1,.4-.7l1.393.8a.4.4,0,0,1,.149.548A.393.393,0,0,1,245.6,607.023Zm-2.786-1.6a.388.388,0,0,1-.2-.054l-1.393-.8a.4.4,0,1,1,.4-.7l1.393.8a.4.4,0,0,1,.149.548A.4.4,0,0,1,242.817,605.422Zm-2.788-1.6a.389.389,0,0,1-.2-.054l-1.393-.8a.4.4,0,1,1,.4-.7l1.393.8a.4.4,0,0,1,.149.548A.4.4,0,0,1,240.028,603.821Zm-2.788-1.6a.389.389,0,0,1-.2-.054l-1.393-.8a.4.4,0,1,1,.4-.7l1.393.8a.4.4,0,0,1,.149.548A.4.4,0,0,1,237.24,602.221Z" transform="translate(-235.444 -600.617)"/>
        </g>
        <path id="Tracé_1813" data-name="Tracé 1813" class="cls-2" d="M169.6,450.788c-1.724-1-3.143-2.817-3.287-4.118v79.97c-.163,1.532,1.256,3.631,3.287,4.807v.035l79.611,46.113a3.469,3.469,0,0,0,5.208-3V504.463a8.807,8.807,0,0,0-4.425-7.638Z" transform="translate(-165.659 -441.921)"/>
        <path id="Tracé_1814" data-name="Tracé 1814" class="cls-2" d="M258.2,495.321,177.8,449.282a4.953,4.953,0,0,1-2.762-3.582v5.225c.13.094.255.191.4.281L189.3,524.461l73.323,42.472V502.959A8.807,8.807,0,0,0,258.2,495.321Z" transform="translate(-172.339 -441.18)"/>
        <path id="Tracé_1815" data-name="Tracé 1815" class="cls-2" d="M169.6,450.788c-1.724-1-3.143-2.817-3.287-4.118v79.97c-.163,1.532,1.256,3.631,3.287,4.807v.035l79.611,46.113a3.469,3.469,0,0,0,5.208-3V504.463a8.807,8.807,0,0,0-4.425-7.638Z" transform="translate(-165.659 -441.921)"/>
        <path id="Tracé_1816" data-name="Tracé 1816" class="cls-2" d="M168.852,454.942a4.949,4.949,0,0,1-2.762-3.582v79.97c-.163,1.532.734,3.1,2.762,4.271v.035l79.611,46.113a3.469,3.469,0,0,0,5.208-3V508.619a8.807,8.807,0,0,0-4.425-7.638Z" transform="translate(-165.487 -446.04)"/>
        <path id="Tracé_1817" data-name="Tracé 1817" class="cls-2" d="M188.244,564.991l-2.215-1.32a3.106,3.106,0,0,1-.479-.333V493.29l76.3,43.7a4.234,4.234,0,0,1,2.12,3.664v68.2Z" transform="translate(-180.367 -477.534)"/>
        <g id="Groupe_712" data-name="Groupe 712" transform="translate(0 9.792)">
          <path id="Tracé_1818" data-name="Tracé 1818" class="cls-3" d="M248.307,593.784a2.266,2.266,0,0,1-1.145-.314l-78.284-45.345-3.055-1.969c-1.445-.836-2.241-1.976-2.12-3.093l.014-.139a1.526,1.526,0,0,1,3.043.139,3.036,3.036,0,0,0,.654.486l3.055,1.969,77.082,44.647V521.353a4.591,4.591,0,0,0-2.3-3.971l-80.89-46.5a1.527,1.527,0,0,1,1.523-2.647l80.89,46.5a7.646,7.646,0,0,1,3.832,6.618v70.134a2.225,2.225,0,0,1-.7,1.648A2.358,2.358,0,0,1,248.307,593.784Z" transform="translate(-163.599 -468.029)"/>
          <path id="Tracé_1819" data-name="Tracé 1819" class="cls-4" d="M165.07,470.136a.941.941,0,0,1,.307-.323,1.054,1.054,0,0,1,.187-.092,1.908,1.908,0,0,1,1.572.161l80.532,46.3a7.373,7.373,0,0,1,3.693,6.377v69.917a3.058,3.058,0,0,1-.12.864,1.778,1.778,0,0,1-.491.8,2.056,2.056,0,0,1-1.41.574,1.975,1.975,0,0,1-1.006-.276l-77.694-45-2.37-1.49-.68-.439a5.864,5.864,0,0,1-2.061-1.9,2.276,2.276,0,0,1-.328-.944c-.009-.007-.007-.12-.014-.127a1.3,1.3,0,0,1,.5-1.263c.033-.014.071-.064.106-.076a.939.939,0,0,1,.593-.146,1.25,1.25,0,0,1,1.126,1.24,2.05,2.05,0,0,0,.486.4c0,.052,2.373,1.657,2.6,1.787l3.015,1.8,74.528,43.166.588-1.646c.019.012.033-.111.043-.111s.047-.213.064-.229a1.5,1.5,0,0,0,.024-.248V523.318a6.1,6.1,0,0,0-.694-2.828,4.513,4.513,0,0,0-1.107-1.374,22.507,22.507,0,0,0-3.213-2.25l-77.925-44.8c-.4-.231-1-.89-.959-1.322A.919.919,0,0,1,165.07,470.136Z" transform="translate(-164.629 -469.234)"/>
          <path id="Tracé_1820" data-name="Tracé 1820" class="cls-5" d="M166.2,471.248a.657.657,0,0,1,.326-.286.572.572,0,0,1,.194-.042c.234-.158,1.263.231,1.525.382l80.173,46.092a7.094,7.094,0,0,1,3.553,6.139v69.7a4.705,4.705,0,0,1-.08.864,1.493,1.493,0,0,1-.446.817,1.782,1.782,0,0,1-1.218.5,1.712,1.712,0,0,1-.866-.238l-77.1-44.663-2.368-1.45-.678-.437a9.022,9.022,0,0,1-2.153-1.773,2.6,2.6,0,0,1-.5-.831c-.017-.017-.026-.1-.042-.116a1.24,1.24,0,0,1,.111-1.289c.021-.009.052-.09.076-.1a.655.655,0,0,1,.538-.224.976.976,0,0,1,.888.982,1.276,1.276,0,0,0,.319.314,16.082,16.082,0,0,0,2.139,1.606l3.013,1.844,74.988,43.433,1.178-.642c.04.024.066-.057.085-.057.042,0,.092-.156.127-.189a.665.665,0,0,0,.047-.246V525.051a9.345,9.345,0,0,0-.463-2.9,4.652,4.652,0,0,0-.843-1.537c-.222-.637-2.387-2.177-2.989-2.524l-78.4-45.067c-.267-.153-1.183-.89-1.157-1.178A.621.621,0,0,1,166.2,471.248Z" transform="translate(-165.519 -470.209)"/>
          <path id="Tracé_1821" data-name="Tracé 1821" class="cls-6" d="M167.283,472.194a.51.51,0,0,1,.345-.248.488.488,0,0,1,.2.007,6.091,6.091,0,0,1,1.478.6l79.816,45.886a6.816,6.816,0,0,1,3.414,5.9v69.484c0,.076-.014.8-.04.864a1.291,1.291,0,0,1-.4.833,1.5,1.5,0,0,1-1.027.42,1.428,1.428,0,0,1-.727-.2l-76.511-44.316-2.366-1.409-.673-.434a18.485,18.485,0,0,1-2.248-1.641,3.409,3.409,0,0,1-.675-.72c-.026-.024-.047-.08-.071-.1a1.392,1.392,0,0,1-.279-1.317c.012,0,.033-.116.045-.12a.5.5,0,0,1,.484-.3.7.7,0,0,1,.647.722c.026.028.068.179.153.229a6,6,0,0,0,1.681,1.424l3.013,1.894L249,593.347l1.766.361c.059.035.1,0,.128,0,.064,0,.139-.1.191-.149a.412.412,0,0,0,.073-.243v-66.7a19.707,19.707,0,0,0-.231-2.97,5.092,5.092,0,0,0-.578-1.7,7.322,7.322,0,0,0-2.765-2.8L168.7,473.814c-.135-.078-1.367-.892-1.355-1.036A.486.486,0,0,1,167.283,472.194Z" transform="translate(-166.362 -471.016)"/>
          <path id="Tracé_1822" data-name="Tracé 1822" class="cls-7" d="M251.885,596.252a1.137,1.137,0,0,1-.588-.165L173.01,550.744,170,548.8c-1.07-.621-1.688-1.4-1.62-2.045l.014-.142a.42.42,0,0,1,.836.087l-.014.142c0,.212.326.72,1.223,1.24l3.01,1.941,78.267,45.334a.305.305,0,0,0,.168.052.38.38,0,0,0,.255-.111.3.3,0,0,0,.1-.241V524.928a5.7,5.7,0,0,0-2.854-4.93l-80.89-46.5a.42.42,0,0,1,.21-.784.413.413,0,0,1,.21.057l80.888,46.5a6.535,6.535,0,0,1,3.275,5.657V595.06a1.146,1.146,0,0,1-.354.848A1.215,1.215,0,0,1,251.885,596.252Z" transform="translate(-167.176 -471.605)"/>
        </g>
        <g id="Groupe_713" data-name="Groupe 713" transform="translate(1.123 10.915)">
          <path id="Tracé_1823" data-name="Tracé 1823" class="cls-2" d="M251.94,596.292a1.145,1.145,0,0,1-.581-.163l-.472-.274a.4.4,0,0,1,.4-.7l.472.274a.333.333,0,0,0,.177.054.406.406,0,0,0,.267-.113.428.428,0,0,1,.576-.021.38.38,0,0,1,.043.536c-.007.009-.057.057-.064.066A1.186,1.186,0,0,1,251.94,596.292ZM249.7,595.1a.383.383,0,0,1-.2-.054l-1.391-.805a.4.4,0,0,1,.4-.7l1.391.805a.4.4,0,0,1-.2.751Zm3.015-.64a.4.4,0,0,1-.4-.4v-1.608a.4.4,0,1,1,.8,0v1.608A.4.4,0,0,1,252.712,594.464Zm-5.8-.97a.383.383,0,0,1-.2-.054l-1.391-.805a.4.4,0,0,1,.4-.7l1.391.805a.4.4,0,0,1,.146.55A.41.41,0,0,1,246.916,593.494Zm-2.781-1.613a.383.383,0,0,1-.2-.054l-1.391-.805a.4.4,0,1,1,.4-.7l1.391.805a.4.4,0,0,1,.146.55A.408.408,0,0,1,244.135,591.881Zm8.578-.633a.4.4,0,0,1-.4-.4v-1.608a.4.4,0,0,1,.8,0v1.608A.4.4,0,0,1,252.712,591.249Zm-11.361-.977a.384.384,0,0,1-.2-.054l-1.391-.805a.4.4,0,0,1,.4-.7l1.391.805a.4.4,0,0,1-.2.751Zm-2.781-1.613a.39.39,0,0,1-.2-.054l-1.391-.805a.4.4,0,1,1,.4-.7l1.391.805a.4.4,0,0,1-.2.751Zm14.142-.623a.4.4,0,0,1-.4-.4v-1.608a.4.4,0,0,1,.8,0v1.608A.4.4,0,0,1,252.712,588.035Zm-16.924-.989a.383.383,0,0,1-.2-.054l-1.391-.805a.4.4,0,0,1,.4-.7l1.391.805a.4.4,0,0,1-.2.751ZM233,585.436a.384.384,0,0,1-.2-.054l-1.391-.805a.4.4,0,0,1,.4-.7l1.391.805a.4.4,0,0,1-.2.751Zm19.707-.616a.4.4,0,0,1-.4-.4V582.81a.4.4,0,0,1,.8,0v1.608A.4.4,0,0,1,252.712,584.82Zm-22.489-1a.39.39,0,0,1-.2-.054l-1.391-.805a.4.4,0,0,1,.4-.7l1.391.805a.4.4,0,0,1-.2.751Zm-2.781-1.61a.383.383,0,0,1-.2-.054l-1.391-.805a.4.4,0,1,1,.4-.7l1.391.805a.4.4,0,0,1-.2.751Zm25.27-.609a.4.4,0,0,1-.4-.4v-1.608a.4.4,0,0,1,.8,0V581.2A.4.4,0,0,1,252.712,581.6Zm-28.054-1a.383.383,0,0,1-.2-.054l-1.391-.805a.4.4,0,1,1,.4-.7l1.391.805a.4.4,0,0,1-.2.751Zm-2.781-1.61a.383.383,0,0,1-.2-.054l-1.391-.805a.4.4,0,0,1,.4-.7l1.391.805a.4.4,0,0,1-.2.751Zm30.835-.6a.4.4,0,0,1-.4-.4v-1.608a.4.4,0,0,1,.8,0v1.608A.4.4,0,0,1,252.712,578.391ZM219.1,577.378a.389.389,0,0,1-.2-.054l-1.391-.805a.4.4,0,1,1,.4-.7l1.391.805a.4.4,0,0,1-.2.751Zm-2.784-1.61a.384.384,0,0,1-.2-.054l-1.391-.805a.4.4,0,0,1,.4-.7l1.391.805a.4.4,0,0,1-.2.751Zm36.4-.593a.4.4,0,0,1-.4-.4v-1.608a.4.4,0,1,1,.8,0v1.608A.4.4,0,0,1,252.712,575.175Zm-39.181-1.02a.384.384,0,0,1-.2-.054l-1.391-.805a.4.4,0,0,1,.4-.7l1.391.805a.4.4,0,0,1-.2.751Zm-2.781-1.61a.383.383,0,0,1-.2-.054l-1.391-.805a.4.4,0,1,1,.4-.7l1.391.805a.4.4,0,0,1-.2.751Zm41.962-.586a.4.4,0,0,1-.4-.4V569.95a.4.4,0,0,1,.8,0v1.608A.4.4,0,0,1,252.712,571.959Zm-44.746-1.027a.383.383,0,0,1-.2-.054l-1.391-.805a.4.4,0,0,1,.4-.7l1.391.805a.4.4,0,0,1-.2.751Zm-2.781-1.61a.383.383,0,0,1-.2-.054l-1.391-.805a.4.4,0,1,1,.4-.7l1.391.805a.4.4,0,0,1-.2.751Zm47.527-.578a.4.4,0,0,1-.4-.4v-1.608a.4.4,0,0,1,.8,0v1.608A.4.4,0,0,1,252.712,568.743ZM202.4,567.709a.383.383,0,0,1-.2-.054l-1.391-.805a.4.4,0,0,1,.4-.7l1.391.805a.4.4,0,0,1,.146.55A.408.408,0,0,1,202.4,567.709Zm-2.781-1.61a.389.389,0,0,1-.2-.054l-1.391-.805a.4.4,0,0,1,.4-.7l1.391.805a.4.4,0,0,1,.146.55A.413.413,0,0,1,199.622,566.1Zm53.09-.569a.4.4,0,0,1-.4-.4v-1.608a.4.4,0,1,1,.8,0v1.608A.4.4,0,0,1,252.712,565.53Zm-55.873-1.044a.383.383,0,0,1-.2-.054l-1.391-.805a.4.4,0,0,1,.4-.7l1.391.805a.4.4,0,0,1-.2.751Zm-2.781-1.61a.383.383,0,0,1-.2-.054l-1.391-.805a.4.4,0,0,1,.4-.7l1.391.805a.4.4,0,0,1,.146.55A.41.41,0,0,1,194.058,562.876Zm58.655-.562a.4.4,0,0,1-.4-.4v-1.608a.4.4,0,0,1,.8,0v1.608A.4.4,0,0,1,252.712,562.314Zm-61.436-1.051a.39.39,0,0,1-.2-.054l-1.391-.805a.4.4,0,0,1,.4-.7l1.391.805a.4.4,0,0,1-.2.751Zm-2.784-1.61a.383.383,0,0,1-.2-.054l-1.391-.805a.4.4,0,0,1,.4-.7l1.391.805a.4.4,0,0,1-.2.751Zm64.219-.555a.4.4,0,0,1-.4-.4v-1.608a.4.4,0,0,1,.8,0V558.7A.4.4,0,0,1,252.712,559.1Zm-67-1.058a.383.383,0,0,1-.2-.054l-1.391-.805a.4.4,0,1,1,.4-.7l1.391.805a.4.4,0,0,1-.2.751Zm-2.781-1.61a.388.388,0,0,1-.2-.054l-1.391-.805a.4.4,0,1,1,.4-.7l1.391.805a.4.4,0,0,1,.146.55A.413.413,0,0,1,182.93,556.431Zm69.782-.545a.4.4,0,0,1-.4-.4v-1.608a.4.4,0,0,1,.8,0v1.608A.4.4,0,0,1,252.712,555.885Zm-72.566-1.067a.389.389,0,0,1-.2-.054l-1.391-.805a.4.4,0,1,1,.4-.7l1.391.805a.4.4,0,0,1-.2.751Zm-2.781-1.61a.383.383,0,0,1-.2-.054l-1.391-.805a.4.4,0,0,1,.4-.7l1.391.805a.4.4,0,0,1,.146.55A.41.41,0,0,1,177.365,553.208Zm75.347-.538a.4.4,0,0,1-.4-.4V550.66a.4.4,0,0,1,.8,0v1.608A.4.4,0,0,1,252.712,552.67ZM174.584,551.6a.383.383,0,0,1-.2-.054l-1.4-.819a.4.4,0,0,1,.434-.675l.083.054,1.289.746a.4.4,0,0,1-.2.748Zm-2.741-1.681a.4.4,0,0,1-.217-.064l-1.35-.871a.4.4,0,1,1,.434-.675l1.351.871a.4.4,0,0,1-.217.739Zm80.869-.46a.4.4,0,0,1-.4-.4v-1.608a.4.4,0,1,1,.8,0v1.608A.4.4,0,0,1,252.712,549.454Zm-83.495-1.379a.406.406,0,0,1-.3-.137,1.581,1.581,0,0,1-.467-1.02c0-.016,0-.092.007-.106l.014-.137a.4.4,0,1,1,.8.083l-.014.142c0,.061.019.224.267.508a.4.4,0,0,1-.035.567A.412.412,0,0,1,169.217,548.075Zm83.495-1.837a.4.4,0,0,1-.4-.4v-1.608a.4.4,0,0,1,.8,0v1.608A.4.4,0,0,1,252.712,546.238Zm0-3.213a.4.4,0,0,1-.4-.4v-1.608a.4.4,0,0,1,.8,0v1.608A.4.4,0,0,1,252.712,543.025Zm0-3.216a.4.4,0,0,1-.4-.4V537.8a.4.4,0,0,1,.8,0v1.608A.4.4,0,0,1,252.712,539.809Zm0-3.216a.4.4,0,0,1-.4-.4v-1.608a.4.4,0,1,1,.8,0v1.608A.4.4,0,0,1,252.712,536.594Zm0-3.213a.4.4,0,0,1-.4-.4v-1.608a.4.4,0,1,1,.8,0v1.608A.4.4,0,0,1,252.712,533.38Zm0-3.216a.4.4,0,0,1-.4-.4v-1.608a.4.4,0,0,1,.8,0v1.608A.4.4,0,0,1,252.712,530.165Zm0-3.216a.4.4,0,0,1-.4-.4v-1.561a.422.422,0,0,1,.4-.425.382.382,0,0,1,.4.378h-.4l.4.026v1.582A.4.4,0,0,1,252.712,526.949Zm-.224-3.195a.4.4,0,0,1-.387-.293,5.681,5.681,0,0,0-.588-1.376.4.4,0,1,1,.692-.408,6.542,6.542,0,0,1,.671,1.57.4.4,0,0,1-.279.5A.566.566,0,0,1,252.488,523.754Zm-1.62-2.736a.4.4,0,0,1-.281-.116,5.728,5.728,0,0,0-1.143-.864l.142-.382.2-.347.059.035a6.571,6.571,0,0,1,1.3.985.4.4,0,0,1,.007.569A.4.4,0,0,1,250.868,521.018Zm-2.675-1.759a.389.389,0,0,1-.2-.054l-1.393-.8a.4.4,0,1,1,.4-.7l1.393.8a.4.4,0,0,1,.149.548A.4.4,0,0,1,248.193,519.259Zm-2.788-1.6a.39.39,0,0,1-.2-.054l-1.393-.8a.4.4,0,1,1,.4-.7l1.393.8a.4.4,0,0,1,.149.548A.4.4,0,0,1,245.4,517.656Zm-2.786-1.6a.39.39,0,0,1-.2-.054l-1.393-.8a.4.4,0,0,1,.4-.7l1.393.8a.4.4,0,0,1,.149.548A.393.393,0,0,1,242.619,516.053Zm-2.788-1.6a.389.389,0,0,1-.2-.054l-1.393-.8a.4.4,0,0,1,.4-.7l1.393.8a.4.4,0,0,1,.149.548A.4.4,0,0,1,239.83,514.452Zm-2.786-1.6a.389.389,0,0,1-.2-.054l-1.393-.8a.4.4,0,0,1,.4-.7l1.393.8a.4.4,0,0,1,.149.548A.4.4,0,0,1,237.044,512.849Zm-2.788-1.6a.389.389,0,0,1-.2-.054l-1.393-.8a.4.4,0,1,1,.4-.7l1.393.8a.4.4,0,0,1,.149.548A.393.393,0,0,1,234.256,511.246Zm-2.786-1.6a.389.389,0,0,1-.2-.054l-1.393-.8a.4.4,0,0,1,.4-.7l1.393.8a.4.4,0,0,1,.149.548A.393.393,0,0,1,231.47,509.643Zm-2.788-1.6a.389.389,0,0,1-.2-.054l-1.393-.8a.4.4,0,0,1,.4-.7l1.393.8a.4.4,0,0,1,.149.548A.4.4,0,0,1,228.682,508.042Zm-2.786-1.6a.389.389,0,0,1-.2-.054l-1.393-.8a.4.4,0,0,1,.4-.7l1.393.8a.4.4,0,0,1,.149.548A.4.4,0,0,1,225.9,506.439Zm-2.788-1.6a.389.389,0,0,1-.2-.054l-1.393-.8a.4.4,0,0,1,.4-.7l1.393.8a.4.4,0,0,1,.149.548A.393.393,0,0,1,223.107,504.836Zm-2.786-1.6a.39.39,0,0,1-.2-.054l-1.393-.8a.4.4,0,0,1,.4-.7l1.393.8a.4.4,0,0,1-.2.751Zm-2.788-1.6a.39.39,0,0,1-.2-.054l-1.393-.8a.4.4,0,1,1,.4-.7l1.393.8a.4.4,0,0,1,.149.548A.4.4,0,0,1,217.533,501.632Zm-2.786-1.6a.389.389,0,0,1-.2-.054l-1.393-.8a.4.4,0,1,1,.4-.7l1.393.8a.4.4,0,0,1,.149.548A.4.4,0,0,1,214.747,500.029Zm-2.788-1.6a.389.389,0,0,1-.2-.054l-1.393-.8a.4.4,0,1,1,.4-.7l1.393.8a.4.4,0,0,1,.149.548A.4.4,0,0,1,211.959,498.428Zm-2.788-1.6a.39.39,0,0,1-.2-.054l-1.393-.8a.4.4,0,0,1,.4-.7l1.393.8a.4.4,0,0,1,.149.548A.393.393,0,0,1,209.17,496.825Zm-2.786-1.6a.389.389,0,0,1-.2-.054l-1.393-.8a.4.4,0,1,1,.4-.7l1.393.8a.4.4,0,0,1,.149.548A.393.393,0,0,1,206.384,495.222Zm-2.788-1.6a.389.389,0,0,1-.2-.054l-1.393-.8a.4.4,0,0,1,.4-.7l1.393.8a.4.4,0,0,1,.149.548A.4.4,0,0,1,203.6,493.621Zm-2.786-1.6a.389.389,0,0,1-.2-.054l-1.393-.8a.4.4,0,1,1,.4-.7l1.393.8a.4.4,0,0,1,.149.548A.4.4,0,0,1,200.81,492.018Zm-2.788-1.6a.39.39,0,0,1-.2-.054l-1.393-.8a.4.4,0,1,1,.4-.7l1.393.8a.4.4,0,0,1,.149.548A.393.393,0,0,1,198.022,490.415Zm-2.786-1.6a.389.389,0,0,1-.2-.054l-1.393-.8a.4.4,0,0,1,.4-.7l1.393.8a.4.4,0,0,1,.149.548A.393.393,0,0,1,195.236,488.812Zm-2.788-1.6a.39.39,0,0,1-.2-.054l-1.393-.8a.4.4,0,0,1,.4-.7l1.393.8a.4.4,0,0,1,.149.548A.4.4,0,0,1,192.447,487.211Zm-2.786-1.6a.389.389,0,0,1-.2-.054l-1.393-.8a.4.4,0,1,1,.4-.7l1.393.8a.4.4,0,0,1,.149.548A.4.4,0,0,1,189.661,485.608Zm-2.788-1.6a.39.39,0,0,1-.2-.054l-1.393-.8a.4.4,0,1,1,.4-.7l1.393.8a.4.4,0,0,1,.149.548A.4.4,0,0,1,186.873,484.007Zm-2.786-1.6a.389.389,0,0,1-.2-.054l-1.393-.8a.4.4,0,1,1,.4-.7l1.393.8a.4.4,0,0,1,.149.548A.4.4,0,0,1,184.087,482.4Zm-2.788-1.6a.389.389,0,0,1-.2-.054l-1.393-.8a.4.4,0,1,1,.4-.7l1.393.8a.4.4,0,0,1,.149.548A.393.393,0,0,1,181.3,480.8Zm-2.786-1.6a.389.389,0,0,1-.2-.054l-1.393-.8a.4.4,0,0,1,.4-.7l1.393.8a.4.4,0,0,1,.149.548A.4.4,0,0,1,178.513,479.2Zm-2.788-1.6a.389.389,0,0,1-.2-.054l-1.393-.8a.4.4,0,1,1,.4-.7l1.393.8a.4.4,0,0,1,.149.548A.4.4,0,0,1,175.724,477.6Zm-2.786-1.6a.389.389,0,0,1-.2-.054l-1.393-.8a.4.4,0,0,1,.4-.7l1.393.8a.4.4,0,0,1-.2.751Zm-2.788-1.6a.389.389,0,0,1-.2-.054l-1.393-.8a.4.4,0,1,1,.4-.7l1.393.8a.4.4,0,0,1-.2.751Z" transform="translate(-168.354 -472.787)"/>
        </g>
        <g id="Groupe_714" data-name="Groupe 714" transform="translate(64.745 78.756)">
          <ellipse id="Ellipse_61" data-name="Ellipse 61" class="cls-8" cx="6.613" cy="11.456" rx="6.613" ry="11.456" transform="matrix(0.863, -0.505, 0.505, 0.863, 0, 6.675)"/>
          <path id="Tracé_1824" data-name="Tracé 1824" class="cls-2" d="M477.636,801.134a2.779,2.779,0,0,1-1.11,2.512c-.021.012-.9.6-.921.609-.715.4-.257-.508-1.343-1.136a8.72,8.72,0,0,1-3.957-6.826c0-1.24-1.147-1.251-.444-1.664l1.055-.63a2.824,2.824,0,0,1,2.762.3A8.729,8.729,0,0,1,477.636,801.134Z" transform="translate(-462.123 -785.819)"/>
          <path id="Tracé_1825" data-name="Tracé 1825" class="cls-2" d="M473.6,803.87c0,2.507-1.773,3.518-3.957,2.257a8.72,8.72,0,0,1-3.957-6.826c0-2.507,1.773-3.518,3.957-2.257A8.713,8.713,0,0,1,473.6,803.87Z" transform="translate(-459.111 -787.913)"/>
          <path id="Tracé_1826" data-name="Tracé 1826" class="cls-2" d="M476.193,811.439a1.461,1.461,0,0,1-.583,1.322l-1.025.6c-.375.21-.135-.267-.708-.6a4.591,4.591,0,0,1-2.082-3.593c0-.652-.6-.659-.234-.876.009-.007,1.084-.6,1.1-.6a1.489,1.489,0,0,1,1.454.161A4.6,4.6,0,0,1,476.193,811.439Z" transform="translate(-463.504 -796.361)"/>
          <path id="Tracé_1827" data-name="Tracé 1827" class="cls-2" d="M473.535,814.029c0,1.32-.933,1.851-2.082,1.188a4.591,4.591,0,0,1-2.082-3.593c0-1.32.933-1.851,2.082-1.188A4.6,4.6,0,0,1,473.535,814.029Z" transform="translate(-461.922 -798.339)"/>
        </g>
        <g id="Groupe_717" data-name="Groupe 717" transform="translate(92.09 74.24)">
          <path id="Tracé_1828" data-name="Tracé 1828" class="cls-2" d="M563.828,741v.777a3.893,3.893,0,0,1,1.495,1.976l-11.46,37.826a5.209,5.209,0,0,0,1.428,5.293h0a5.205,5.205,0,0,0,8.615-2.569l2.026-10.162-.39-21.015.737-8.193A3.849,3.849,0,0,0,563.828,741Z" transform="translate(-553.644 -741)"/>
          <path id="Tracé_1829" data-name="Tracé 1829" class="cls-2" d="M568.638,752.01l-11.505,37.979a5.209,5.209,0,0,0,1.428,5.293h0a5.205,5.205,0,0,0,8.615-2.569l2.026-10.162Z" transform="translate(-556.142 -749.411)"/>
          <g id="Groupe_715" data-name="Groupe 715" transform="translate(1.778 9.947)">
            <path id="Tracé_1830" data-name="Tracé 1830" class="cls-3" d="M565.356,819.457a4.1,4.1,0,0,1-2.85-1.138,4.176,4.176,0,0,1-1.155-4.271l9.156-30.2a1.005,1.005,0,0,1,1.924.583l-9.156,30.2a2.18,2.18,0,0,0,.6,2.226,2.1,2.1,0,0,0,1.478.595,2.211,2.211,0,0,0,2.144-1.65l3.315-14.312a1.006,1.006,0,0,1,1.96.456l-3.322,14.334A4.228,4.228,0,0,1,565.356,819.457Z" transform="translate(-561.172 -783.13)"/>
            <path id="Tracé_1831" data-name="Tracé 1831" class="cls-9" d="M565.571,819.606a4.036,4.036,0,0,1-2.8-1.119,4.109,4.109,0,0,1-1.136-4.2l9.156-30.2a.937.937,0,0,1,1.794.543l-9.156,30.2a2.243,2.243,0,0,0,.621,2.295,2.177,2.177,0,0,0,1.525.614,2.28,2.28,0,0,0,2.21-1.7l3.315-14.312a.937.937,0,1,1,1.825.423L569.6,816.475A4.155,4.155,0,0,1,565.571,819.606Z" transform="translate(-561.388 -783.348)"/>
            <path id="Tracé_1832" data-name="Tracé 1832" class="cls-10" d="M565.793,819.766a3.972,3.972,0,0,1-2.758-1.1,4.039,4.039,0,0,1-1.117-4.132l9.156-30.2a.867.867,0,0,1,1.66.5l-9.156,30.2a2.315,2.315,0,0,0,.64,2.366,2.244,2.244,0,0,0,1.57.633,2.344,2.344,0,0,0,2.276-1.754l3.32-14.317a.868.868,0,1,1,1.69.392l-3.322,14.334A4.081,4.081,0,0,1,565.793,819.766Z" transform="translate(-561.61 -783.576)"/>
            <path id="Tracé_1833" data-name="Tracé 1833" class="cls-11" d="M566.016,819.914a3.9,3.9,0,0,1-2.71-1.084,3.97,3.97,0,0,1-1.1-4.063l9.156-30.2a.8.8,0,0,1,1.53.463l-9.156,30.2a2.381,2.381,0,0,0,.659,2.434,2.325,2.325,0,0,0,1.617.652,2.413,2.413,0,0,0,2.342-1.8l3.317-14.317a.8.8,0,0,1,1.558.359l-3.322,14.334A4.015,4.015,0,0,1,566.016,819.914Z" transform="translate(-561.833 -783.79)"/>
            <path id="Tracé_1834" data-name="Tracé 1834" class="cls-12" d="M566.242,820.062A3.829,3.829,0,0,1,563.578,819,3.907,3.907,0,0,1,562.5,815l9.156-30.2a.731.731,0,0,1,1.4.423l-9.158,30.2a2.454,2.454,0,0,0,.678,2.505,2.388,2.388,0,0,0,1.665.668,2.482,2.482,0,0,0,2.408-1.856l3.317-14.317a.732.732,0,1,1,1.426.331l-3.322,14.334A3.95,3.95,0,0,1,566.242,820.062Z" transform="translate(-562.058 -784.007)"/>
            <path id="Tracé_1835" data-name="Tracé 1835" class="cls-5" d="M566.457,820.223a3.773,3.773,0,0,1-2.618-1.046,3.836,3.836,0,0,1-1.06-3.924l9.156-30.2a.662.662,0,1,1,1.268.385l-9.156,30.2a2.52,2.52,0,0,0,.7,2.574,2.464,2.464,0,0,0,1.712.687,2.55,2.55,0,0,0,2.474-1.908l3.317-14.32a.663.663,0,1,1,1.292.3L570.215,817.3A3.879,3.879,0,0,1,566.457,820.223Z" transform="translate(-562.273 -784.237)"/>
            <path id="Tracé_1836" data-name="Tracé 1836" class="cls-13" d="M566.679,820.371a3.709,3.709,0,0,1-2.571-1.027,3.769,3.769,0,0,1-1.041-3.856l9.156-30.2a.595.595,0,1,1,1.138.345l-9.156,30.2a2.587,2.587,0,0,0,.715,2.644,2.527,2.527,0,0,0,1.757.706,2.619,2.619,0,0,0,2.54-1.96l3.317-14.32a.595.595,0,0,1,1.159.267L570.372,817.5A3.81,3.81,0,0,1,566.679,820.371Z" transform="translate(-562.496 -784.453)"/>
            <path id="Tracé_1837" data-name="Tracé 1837" class="cls-14" d="M566.9,820.527a3.634,3.634,0,0,1-2.524-1.008,3.7,3.7,0,0,1-1.022-3.785l9.156-30.2a.527.527,0,0,1,1.008.3l-9.156,30.2a2.65,2.65,0,0,0,.734,2.713,2.606,2.606,0,0,0,1.8.725,2.685,2.685,0,0,0,2.607-2.012l3.317-14.322a.526.526,0,0,1,1.025.236l-3.322,14.334A3.739,3.739,0,0,1,566.9,820.527Z" transform="translate(-562.719 -784.678)"/>
            <path id="Tracé_1838" data-name="Tracé 1838" class="cls-15" d="M567.124,820.669a3.566,3.566,0,0,1-2.477-.992,3.63,3.63,0,0,1-1-3.716l9.156-30.2a.458.458,0,0,1,.876.267l-9.156,30.2a2.721,2.721,0,0,0,.753,2.784,2.668,2.668,0,0,0,1.851.744,2.754,2.754,0,0,0,2.673-2.061l3.32-14.324a.458.458,0,0,1,.893.208l-3.322,14.334A3.676,3.676,0,0,1,567.124,820.669Z" transform="translate(-562.941 -784.888)"/>
            <path id="Tracé_1839" data-name="Tracé 1839" class="cls-16" d="M567.347,820.826a3.5,3.5,0,0,1-2.429-.973,3.559,3.559,0,0,1-.985-3.645l9.154-30.2a.39.39,0,0,1,.746.227l-9.156,30.2a2.787,2.787,0,0,0,.772,2.852,2.734,2.734,0,0,0,1.9.76,2.823,2.823,0,0,0,2.739-2.113l3.32-14.324a.39.39,0,1,1,.76.175l-3.322,14.334A3.609,3.609,0,0,1,567.347,820.826Z" transform="translate(-563.164 -785.114)"/>
            <path id="Tracé_1840" data-name="Tracé 1840" class="cls-7" d="M567.562,820.975a3.432,3.432,0,0,1-2.385-.954,3.491,3.491,0,0,1-.966-3.577l9.156-30.2a.322.322,0,0,1,.616.187l-9.158,30.2a2.86,2.86,0,0,0,.791,2.923,2.794,2.794,0,0,0,1.943.779,2.89,2.89,0,0,0,2.8-2.165l3.32-14.327a.321.321,0,0,1,.626.144l-3.322,14.334A3.531,3.531,0,0,1,567.562,820.975Z" transform="translate(-563.379 -785.331)"/>
          </g>
          <g id="Groupe_716" data-name="Groupe 716" transform="translate(2.377 10.732)">
            <path id="Tracé_1841" data-name="Tracé 1841" class="cls-2" d="M566.959,821.376a.254.254,0,0,1-.042,0,3.469,3.469,0,0,1-1.676-.64.4.4,0,0,1,.47-.654,2.645,2.645,0,0,0,1.294.493.4.4,0,0,1-.045.8Zm1.575-.236a.4.4,0,0,1-.153-.772,2.788,2.788,0,0,0,1.119-.826.4.4,0,1,1,.626.5,3.62,3.62,0,0,1-1.438,1.065A.4.4,0,0,1,568.533,821.14ZM564.44,819.6a.4.4,0,0,1-.361-.224,3.573,3.573,0,0,1-.368-1.577l0-.177a.367.367,0,0,1,.42-.383.4.4,0,0,1,.383.42l0,.142a2.8,2.8,0,0,0,.283,1.221.4.4,0,0,1-.182.538A.4.4,0,0,1,564.44,819.6Zm6.025-.852a.407.407,0,0,1-.092-.009.4.4,0,0,1-.3-.482l.364-1.565a.4.4,0,1,1,.781.182l-.364,1.565A.4.4,0,0,1,570.465,818.746Zm-5.973-2.262a.391.391,0,0,1-.116-.017.4.4,0,0,1-.269-.5l.465-1.537a.4.4,0,0,1,.77.231l-.465,1.537A.406.406,0,0,1,564.491,816.484Zm6.7-.869a.4.4,0,0,1-.392-.491l.364-1.565a.4.4,0,1,1,.781.182l-.364,1.565A.4.4,0,0,1,571.192,815.616Zm-5.768-2.21a.391.391,0,0,1-.116-.017.4.4,0,0,1-.269-.5l.465-1.539a.4.4,0,1,1,.77.231l-.465,1.539A.4.4,0,0,1,565.424,813.406Zm6.493-.923a.407.407,0,0,1-.092-.009.4.4,0,0,1-.3-.482l.364-1.565a.4.4,0,1,1,.781.182l-.364,1.565A.4.4,0,0,1,571.917,812.482Zm-5.56-2.153a.418.418,0,0,1-.118-.017.4.4,0,0,1-.267-.5l.465-1.537a.4.4,0,0,1,.767.234l-.465,1.537A.4.4,0,0,1,566.357,810.329Zm6.285-.98a.407.407,0,0,1-.092-.009.4.4,0,0,1-.3-.482l.364-1.565a.4.4,0,0,1,.781.182l-.364,1.565A.4.4,0,0,1,572.642,809.349Zm-5.352-2.1a.393.393,0,0,1-.116-.016.4.4,0,0,1-.269-.5l.465-1.539a.4.4,0,0,1,.77.234l-.465,1.539A.4.4,0,0,1,567.289,807.253Zm6.08-1.034a.4.4,0,0,1-.392-.491l.364-1.565a.4.4,0,0,1,.781.182l-.364,1.565A.4.4,0,0,1,573.369,806.219Zm-5.147-2.042a.421.421,0,0,1-.118-.016.4.4,0,0,1-.267-.5l.465-1.539a.4.4,0,1,1,.767.231l-.465,1.539A.4.4,0,0,1,568.222,804.177Zm.933-3.076a.394.394,0,0,1-.116-.017.4.4,0,0,1-.269-.5l.465-1.539a.4.4,0,0,1,.77.234l-.465,1.539A.4.4,0,0,1,569.154,801.1Zm.933-3.076a.393.393,0,0,1-.116-.017.4.4,0,0,1-.269-.5l.465-1.539a.4.4,0,1,1,.77.231l-.465,1.539A.4.4,0,0,1,570.087,798.024Zm.933-3.076a.392.392,0,0,1-.116-.017.4.4,0,0,1-.269-.5l.465-1.539a.4.4,0,0,1,.77.234l-.465,1.539A.4.4,0,0,1,571.02,794.947Zm.933-3.079a.421.421,0,0,1-.118-.017.4.4,0,0,1-.267-.5l.465-1.539a.4.4,0,1,1,.767.231l-.465,1.539A.4.4,0,0,1,571.952,791.869Zm.933-3.076a.419.419,0,0,1-.118-.017.4.4,0,0,1-.267-.5l.465-1.537a.4.4,0,0,1,.767.234l-.465,1.537A.4.4,0,0,1,572.885,788.792Z" transform="translate(-563.71 -786.453)"/>
          </g>
        </g>
      </g>
      <g id="Groupe_723" data-name="Groupe 723" transform="translate(248.116 124.327)">
        <path id="Tracé_1843" data-name="Tracé 1843" class="cls-17" d="M543.326,311.34,521.6,315.266l.217,3.756h0c0,.035,0,.071,0,.109.246,4.283,5.31,6.875,11.309,5.792s10.662-5.435,10.417-9.718c0-.035-.007-.071-.009-.106h0Z" transform="translate(-521.593 -305.356)"/>
        <g id="Groupe_719" data-name="Groupe 719" transform="translate(0.182 9.021)">
          <path id="Tracé_1844" data-name="Tracé 1844" class="cls-18" d="M522.39,341.772l.007.106c0-.035,0-.071,0-.109Z" transform="translate(-522.378 -337.622)"/>
          <path id="Tracé_1845" data-name="Tracé 1845" class="cls-19" d="M533.649,333.915c-6,1.084-11.064-1.509-11.309-5.792l.042.722h0c0,.035,0,.071,0,.109.246,4.283,5.31,6.875,11.309,5.792s10.662-5.435,10.417-9.718c0-.035-.007-.071-.009-.106h0l-.043-.722C544.314,328.48,539.648,332.832,533.649,333.915Z" transform="translate(-522.34 -324.2)"/>
          <path id="Tracé_1846" data-name="Tracé 1846" class="cls-20" d="M614.4,325.256l-.007-.106h0C614.395,325.185,614.4,325.221,614.4,325.256Z" transform="translate(-592.657 -324.926)"/>
        </g>
        <g id="Groupe_720" data-name="Groupe 720" transform="translate(0.626 7.377)">
          <path id="Tracé_1847" data-name="Tracé 1847" class="cls-21" d="M582.6,332.442c.1-.042.2-.09.3-.135l-.567-9.848-.3.054Z" transform="translate(-568.381 -321.228)"/>
          <path id="Tracé_1848" data-name="Tracé 1848" class="cls-21" d="M588.35,331c.1-.054.2-.1.3-.161l-.543-9.428-.3.054Z" transform="translate(-572.789 -320.425)"/>
          <path id="Tracé_1849" data-name="Tracé 1849" class="cls-21" d="M594.107,329.408c.1-.068.2-.144.3-.215l-.508-8.823-.3.054Z" transform="translate(-577.212 -319.631)"/>
          <path id="Tracé_1850" data-name="Tracé 1850" class="cls-21" d="M576.835,333.723c.1-.031.2-.061.3-.094l-.583-10.129-.3.054Z" transform="translate(-563.966 -322.022)"/>
          <path id="Tracé_1851" data-name="Tracé 1851" class="cls-21" d="M605.558,325.437c.1-.12.2-.241.286-.364l-.39-6.783-.3.054Z" transform="translate(-586.042 -318.042)"/>
          <path id="Tracé_1852" data-name="Tracé 1852" class="cls-21" d="M611.234,322.583a7.474,7.474,0,0,0,.267-.715l-.267-4.628-.3.054Z" transform="translate(-590.458 -317.24)"/>
          <path id="Tracé_1853" data-name="Tracé 1853" class="cls-21" d="M599.842,327.574c.1-.087.2-.17.293-.26l-.46-7.994-.3.054Z" transform="translate(-581.627 -318.829)"/>
          <path id="Tracé_1854" data-name="Tracé 1854" class="cls-21" d="M571.06,334.884c.1-.021.2-.043.3-.066l-.59-10.268-.3.054Z" transform="translate(-559.55 -322.824)"/>
          <path id="Tracé_1855" data-name="Tracé 1855" class="cls-21" d="M565.273,335.919c.1-.014.2-.028.3-.045l-.593-10.285-.3.054Z" transform="translate(-555.127 -323.619)"/>
          <path id="Tracé_1856" data-name="Tracé 1856" class="cls-21" d="M553.7,337.617c.1.007.205.017.309.021l-.574-9.959-.3.054Z" transform="translate(-546.304 -325.215)"/>
          <path id="Tracé_1857" data-name="Tracé 1857" class="cls-21" d="M559.493,336.844c.1,0,.205-.017.307-.021l-.586-10.183-.3.054Z" transform="translate(-550.72 -324.421)"/>
          <path id="Tracé_1858" data-name="Tracé 1858" class="cls-21" d="M547.9,338.259q.152.028.312.05l-.553-9.579-.3.054Z" transform="translate(-541.889 -326.017)"/>
          <path id="Tracé_1859" data-name="Tracé 1859" class="cls-21" d="M524.506,337.915a5.554,5.554,0,0,0,.338.538l-.319-5.553-.3.054Z" transform="translate(-524.22 -329.203)"/>
          <path id="Tracé_1860" data-name="Tracé 1860" class="cls-21" d="M530.4,338.856c.1.083.212.158.321.236l-.416-7.222-.3.054Z" transform="translate(-528.635 -328.416)"/>
          <path id="Tracé_1861" data-name="Tracé 1861" class="cls-21" d="M542.072,338.721c.1.033.208.064.314.092l-.522-9.043-.3.054Z" transform="translate(-537.466 -326.812)"/>
          <path id="Tracé_1862" data-name="Tracé 1862" class="cls-21" d="M536.255,338.955c.1.052.21.094.316.142l-.477-8.287-.3.054Z" transform="translate(-533.058 -327.606)"/>
        </g>
        <path id="Tracé_1863" data-name="Tracé 1863" class="cls-22" d="M543.306,292.032c.246,4.283-4.417,8.634-10.417,9.718s-11.064-1.509-11.309-5.792S526,287.324,532,286.24,543.06,287.749,543.306,292.032Z" transform="translate(-521.571 -285.993)"/>
        <path id="Tracé_1864" data-name="Tracé 1864" class="cls-23" d="M532.96,321.294c-5.872,1.06-10.835-1.4-11.276-5.525,0,.092-.009.182,0,.274.246,4.283,5.31,6.875,11.309,5.792s10.662-5.435,10.417-9.718c0-.092-.026-.177-.035-.267C543.412,316.041,538.834,320.232,532.96,321.294Z" transform="translate(-521.653 -305.745)"/>
        <path id="Tracé_1865" data-name="Tracé 1865" class="cls-24" d="M549.449,299.062c.184,3.2-3.3,6.455-7.787,7.265s-8.271-1.129-8.455-4.33,3.3-6.455,7.787-7.265S549.265,295.858,549.449,299.062Z" transform="translate(-530.455 -292.527)"/>
        <path id="Tracé_1866" data-name="Tracé 1866" class="cls-23" d="M542.1,293.745c4.337-.784,8.011,1.008,8.415,4.023,0-.1.009-.21,0-.314-.184-3.2-3.969-5.14-8.455-4.33s-7.971,4.063-7.787,7.265c.007.106.026.205.04.307C534.367,297.6,537.76,294.529,542.1,293.745Z" transform="translate(-531.272 -291.3)"/>
        <path id="Tracé_1867" data-name="Tracé 1867" class="cls-25" d="M541.029,295.355c4.337-.784,8.011,1.008,8.415,4.023,0-.1.009-.21,0-.314-.184-3.2-3.969-5.14-8.455-4.33s-7.971,4.063-7.787,7.265c.007.106.026.205.04.307C533.3,299.209,536.692,296.139,541.029,295.355Z" transform="translate(-530.455 -292.53)"/>
        <g id="Groupe_721" data-name="Groupe 721" transform="translate(6.818 4.773)">
          <path id="Tracé_1868" data-name="Tracé 1868" class="cls-26" d="M555.023,307.5q-.3.124-.616.29c-.184.09-.38.2-.588.323s-.406.255-.595.394l.68.345c.064-.042.132-.087.208-.132s.153-.094.234-.146q.542-.34,1.022-.59a5.625,5.625,0,0,1,.911-.385,2.455,2.455,0,0,1,.824-.12,1.792,1.792,0,0,1,.772.2,1.137,1.137,0,0,1,.578.55,1.075,1.075,0,0,1,.04.7,2.388,2.388,0,0,1-.368.772,5.621,5.621,0,0,1-.654.784l.914.463-.7.649-.928-.47a12.789,12.789,0,0,1-1.4,1.006,11.8,11.8,0,0,1-1.466.786l-.555-1.334c.243-.1.493-.217.748-.347.217-.106.458-.238.722-.392a6.685,6.685,0,0,0,.748-.505l-.663-.335c-.222.146-.449.29-.685.43q-.531.319-.968.524a4.18,4.18,0,0,1-.807.293,2.134,2.134,0,0,1-.687.059,1.673,1.673,0,0,1-.612-.179,1.217,1.217,0,0,1-.564-.51,1.131,1.131,0,0,1-.111-.671,2.153,2.153,0,0,1,.272-.772,4.26,4.26,0,0,1,.6-.805l-.763-.385.7-.649.77.39c.212-.168.43-.326.649-.472s.441-.283.661-.411.43-.243.635-.349.392-.2.564-.29Zm-2.368,1.87a.364.364,0,0,0,.272.012,1.836,1.836,0,0,0,.394-.177l-.574-.29C552.539,309.149,552.508,309.3,552.655,309.374Zm3.53.083a.383.383,0,0,0-.29,0,2.29,2.29,0,0,0-.42.189l.56.283a.842.842,0,0,0,.222-.314A.133.133,0,0,0,556.184,309.456Z" transform="translate(-550.446 -306.21)"/>
        </g>
        <g id="Groupe_722" data-name="Groupe 722" transform="translate(6.799 4.44)">
          <path id="Tracé_1869" data-name="Tracé 1869" class="cls-27" d="M554.943,306.094q-.3.124-.616.29c-.184.09-.38.2-.588.323s-.406.255-.595.394l.68.345c.064-.043.132-.087.208-.132s.154-.094.234-.146q.542-.34,1.022-.59a5.628,5.628,0,0,1,.911-.385,2.456,2.456,0,0,1,.824-.12,1.792,1.792,0,0,1,.772.2,1.137,1.137,0,0,1,.578.55,1.075,1.075,0,0,1,.04.7,2.385,2.385,0,0,1-.368.772,5.612,5.612,0,0,1-.654.784l.914.463-.7.649-.928-.47a12.771,12.771,0,0,1-1.4,1.006,11.8,11.8,0,0,1-1.466.786l-.555-1.334c.243-.1.493-.217.748-.347.217-.106.458-.238.723-.392a6.7,6.7,0,0,0,.748-.505l-.663-.335c-.222.146-.449.29-.685.43q-.531.319-.968.524a4.18,4.18,0,0,1-.807.293,2.133,2.133,0,0,1-.687.059,1.672,1.672,0,0,1-.612-.179,1.218,1.218,0,0,1-.564-.51,1.131,1.131,0,0,1-.111-.671,2.153,2.153,0,0,1,.272-.772,4.257,4.257,0,0,1,.6-.805l-.763-.385.7-.649.77.39c.212-.168.43-.326.649-.472s.441-.283.661-.411.43-.243.635-.349.392-.2.564-.29Zm-2.368,1.872a.364.364,0,0,0,.271.012,1.835,1.835,0,0,0,.394-.177l-.574-.29C552.459,307.739,552.428,307.891,552.575,307.966Zm3.527.083a.393.393,0,0,0-.29,0,2.3,2.3,0,0,0-.42.189l.56.283a.842.842,0,0,0,.222-.314A.127.127,0,0,0,556.1,308.049Z" transform="translate(-550.366 -304.8)"/>
        </g>
        <path id="Tracé_1870" data-name="Tracé 1870" class="cls-1" d="M554.943,306.094q-.3.124-.616.29c-.184.09-.38.2-.588.323s-.406.255-.595.394l.68.345c.064-.043.132-.087.208-.132s.154-.094.234-.146q.542-.34,1.022-.59a5.628,5.628,0,0,1,.911-.385,2.456,2.456,0,0,1,.824-.12,1.792,1.792,0,0,1,.772.2,1.137,1.137,0,0,1,.578.55,1.075,1.075,0,0,1,.04.7,2.385,2.385,0,0,1-.368.772,5.612,5.612,0,0,1-.654.784l.914.463-.7.649-.928-.47a12.771,12.771,0,0,1-1.4,1.006,11.8,11.8,0,0,1-1.466.786l-.555-1.334c.243-.1.493-.217.748-.347.217-.106.458-.238.723-.392a6.7,6.7,0,0,0,.748-.505l-.663-.335c-.222.146-.449.29-.685.43q-.531.319-.968.524a4.18,4.18,0,0,1-.807.293,2.133,2.133,0,0,1-.687.059,1.672,1.672,0,0,1-.612-.179,1.218,1.218,0,0,1-.564-.51,1.131,1.131,0,0,1-.111-.671,2.153,2.153,0,0,1,.272-.772,4.257,4.257,0,0,1,.6-.805l-.763-.385.7-.649.77.39c.212-.168.43-.326.649-.472s.441-.283.661-.411.43-.243.635-.349.392-.2.564-.29Zm-2.368,1.872a.364.364,0,0,0,.271.012,1.835,1.835,0,0,0,.394-.177l-.574-.29C552.459,307.739,552.428,307.891,552.575,307.966Zm3.527.083a.393.393,0,0,0-.29,0,2.3,2.3,0,0,0-.42.189l.56.283a.842.842,0,0,0,.222-.314A.127.127,0,0,0,556.1,308.049Z" transform="translate(-543.568 -300.36)"/>
      </g>
      <g id="Groupe_724" data-name="Groupe 724" transform="translate(274.798 74.36)">
        <path id="Tracé_1871" data-name="Tracé 1871" class="cls-28" d="M700.754,105.433c-9.536-5.409-18.857-14.112-26.672-24.89l-.106-.061c-7.813,1.757-17.136-.307-26.672-5.907l-.364-.215-12.36,7.059,5.782,3.806c1.808,24.134,11.229,43.948,26.389,67.4l.368.212c2.725-1.07-1.4,1.4.94.076l14.065-7.8c10.516-6.035,17.009-15.292,18.48-33.2l.515-6.271Z" transform="translate(-634.58 -74.36)"/>
        <path id="Tracé_1872" data-name="Tracé 1872" class="cls-28" d="M736.306,105.433c-9.536-5.409-18.857-14.112-26.672-24.89l-.106-.061c-7.813,1.757-17.136-.307-26.672-5.907l-.364-.215-1.372.843.364.215c9.536,5.6,18.857,7.664,26.672,5.907l.106.061c7.813,10.78,17.136,19.481,26.672,24.89l.364.208-.515,6.271c-1.379,16.791-7.173,25.978-16.555,32.034,10.188-6.042,16.482-15.283,17.927-32.877l.515-6.271Z" transform="translate(-670.132 -74.36)"/>
        <path id="Tracé_1873" data-name="Tracé 1873" class="cls-28" d="M741.967,125.241c-9.536-5.409-18.857-14.112-26.672-24.89l-.106-.061-.156.033L688.53,115.6l39.287,18.022,14.511-8.174Z" transform="translate(-675.792 -94.168)"/>
      </g>
      <g id="Groupe_725" data-name="Groupe 725" transform="translate(274.798 80.135)">
        <path id="Tracé_1874" data-name="Tracé 1874" class="cls-29" d="M690.588,129.893c-9.536-5.409-18.857-14.112-26.672-24.89l-.106-.061c-7.813,1.757-17.136-.307-26.672-5.907l-.364-.215-2.193,1.287,5.782,3.806c1.808,24.134,11.229,43.948,26.389,67.4l.368.212c2.725-1.07-1.4,1.4.94.076.1-.057,3.8-1.974,3.9-2.03,10.516-6.035,17.009-15.292,18.48-33.2l.515-6.271Z" transform="translate(-634.58 -98.82)"/>
        <path id="Tracé_1875" data-name="Tracé 1875" class="cls-29" d="M731.8,149.7c-9.536-5.409-18.857-14.112-26.672-24.89l-.106-.061-.156.033-16.336,9.5,39.287,18.022,4.344-2.4Z" transform="translate(-675.792 -118.628)"/>
      </g>
      <path id="Tracé_1876" data-name="Tracé 1876" class="cls-28" d="M691.024,133.653c-9.536-5.409-18.857-14.112-26.672-24.89l-.106-.061c-7.813,1.757-17.136-.307-26.672-5.907l-.364-.215.515,6.866c1.809,24.134,11.229,43.948,26.389,67.4l.368.212c15.16-5.952,24.581-14.889,26.389-36.933l.515-6.271Z" transform="translate(-361.791 -21.557)"/>
      <path id="Tracé_1877" data-name="Tracé 1877" class="cls-30" d="M688.044,134.843c-9.536-5.409-18.857-14.112-26.672-24.89l-.106-.061c-7.813,1.757-17.136-.307-26.672-5.907l-.364-.215.515,6.866c1.808,24.134,11.229,43.948,26.389,67.4l.368.212c15.16-5.952,24.58-14.889,26.389-36.933l.515-6.271Z" transform="translate(-359.515 -22.466)"/>
      <path id="Tracé_1878" data-name="Tracé 1878" class="cls-29" d="M688.044,134.843c-9.536-5.409-18.857-14.112-26.672-24.89l-.106-.061c-7.813,1.757-17.136-.307-26.672-5.907l-.364-.215.515,6.866c1.808,24.134,11.229,43.948,26.389,67.4l.368.212c15.16-5.952,24.58-14.889,26.389-36.933l.515-6.271Z" transform="translate(-359.515 -22.466)"/>
      <path id="Tracé_1879" data-name="Tracé 1879" class="cls-31" d="M774.235,234.471c-.158-.09-.319-.189-.477-.281l-.51,6.214c-1.8,21.946-11.146,30.9-26.188,36.851.09.139.177.276.267.413l.368.213c15.16-5.952,24.581-14.889,26.389-36.933l.515-6.271Z" transform="translate(-445.705 -122.094)"/>
      <path id="Tracé_1880" data-name="Tracé 1880" class="cls-28" d="M673.3,191.319c-13.628-21.325-23.013-40.579-24.788-64.252l-.113-1.5a42.252,42.252,0,0,0,18.026,4.536,29.524,29.524,0,0,0,4.441-.331c7.522,10.039,16.208,18.133,25.272,23.546l-.361,4.41C694.114,178,685.973,185.92,673.3,191.319Z" transform="translate(-370.339 -39.119)"/>
      <path id="Tracé_1881" data-name="Tracé 1881" class="cls-32" d="M650.431,126.72l-.017-.231c-.668-.288-1.336-.588-2-.909l.113,1.5c1.775,23.671,11.158,42.928,24.788,64.252q.846-.361,1.667-.741C661.48,169.414,652.2,150.248,650.431,126.72Z" transform="translate(-370.347 -39.127)"/>
      <path id="Tracé_1882" data-name="Tracé 1882" class="cls-33" d="M706.63,220.541v-4.975a2.7,2.7,0,0,1,4.056-2.342L727.1,222.7a4.615,4.615,0,0,1,2.307,4v4.975a2.7,2.7,0,0,1-4.056,2.342l-16.414-9.477A4.616,4.616,0,0,1,706.63,220.541Z" transform="translate(-414.821 -105.798)"/>
      <path id="Tracé_1883" data-name="Tracé 1883" class="cls-30" d="M703.94,221.891v-4.975A2.7,2.7,0,0,1,708,214.574l16.414,9.477a4.614,4.614,0,0,1,2.307,4v4.975a2.7,2.7,0,0,1-4.056,2.342l-16.414-9.477A4.614,4.614,0,0,1,703.94,221.891Z" transform="translate(-412.766 -106.829)"/>
      <path id="Tracé_1884" data-name="Tracé 1884" class="cls-34" d="M713.64,229.681l18.2,10.506v-7.033l-18.2-10.5Z" transform="translate(-420.176 -113.279)"/>
      <path id="Tracé_1885" data-name="Tracé 1885" class="cls-35" d="M715.168,229.11v-5.579l-1.528-.881v7.033l18.2,10.5v-1.454Z" transform="translate(-420.176 -113.279)"/>
      <g id="Groupe_730" data-name="Groupe 730" transform="translate(283.534 114.067)">
        <path id="Tracé_1886" data-name="Tracé 1886" class="cls-36" d="M695.761,272.16H671.58v3.412h0c0,.033,0,.064,0,.1,0,3.889,5.414,7.041,12.091,7.041s12.091-3.152,12.091-7.041c0-.033,0-.064,0-.1h0Z" transform="translate(-671.58 -265.167)"/>
        <g id="Groupe_726" data-name="Groupe 726" transform="translate(0 9.749)">
          <path id="Tracé_1887" data-name="Tracé 1887" class="cls-37" d="M671.58,284.69v.1c0-.033,0-.064,0-.1Z" transform="translate(-671.58 -284.487)"/>
          <path id="Tracé_1888" data-name="Tracé 1888" class="cls-38" d="M683.671,290.87c-6.677,0-12.091-3.152-12.091-7.04v.656h0c0,.033,0,.064,0,.1,0,3.889,5.414,7.04,12.091,7.04s12.091-3.152,12.091-7.04c0-.033,0-.064,0-.1h0v-.656C695.761,287.716,690.348,290.87,683.671,290.87Z" transform="translate(-671.58 -283.83)"/>
          <path id="Tracé_1889" data-name="Tracé 1889" class="cls-39" d="M773.985,284.787v-.1h0C773.98,284.723,773.985,284.754,773.985,284.787Z" transform="translate(-749.803 -284.487)"/>
        </g>
        <g id="Groupe_727" data-name="Groupe 727" transform="translate(0.607 8.188)">
          <path id="Tracé_1890" data-name="Tracé 1890" class="cls-21" d="M738.48,286.242c.116-.021.224-.05.34-.073V277.23h-.34Z" transform="translate(-723.291 -277.228)"/>
          <path id="Tracé_1891" data-name="Tracé 1891" class="cls-21" d="M744.91,285.883c.113-.031.229-.061.34-.094V277.23h-.34Z" transform="translate(-728.203 -277.228)"/>
          <path id="Tracé_1892" data-name="Tracé 1892" class="cls-21" d="M751.34,285.385c.116-.045.224-.1.34-.146V277.23h-.34Z" transform="translate(-733.115 -277.228)"/>
          <path id="Tracé_1893" data-name="Tracé 1893" class="cls-21" d="M732.04,286.452c.113-.012.227-.021.34-.035v-9.2h-.34Z" transform="translate(-718.372 -277.22)"/>
          <path id="Tracé_1894" data-name="Tracé 1894" class="cls-21" d="M764.21,283.661c.116-.092.231-.184.34-.281v-6.16h-.34Z" transform="translate(-742.947 -277.22)"/>
          <path id="Tracé_1895" data-name="Tracé 1895" class="cls-21" d="M770.64,282.03a5.648,5.648,0,0,0,.34-.6v-4.2h-.34Z" transform="translate(-747.859 -277.228)"/>
          <path id="Tracé_1896" data-name="Tracé 1896" class="cls-21" d="M757.78,284.672c.113-.061.229-.12.34-.184V277.23h-.34Z" transform="translate(-738.035 -277.228)"/>
          <path id="Tracé_1897" data-name="Tracé 1897" class="cls-21" d="M725.61,286.561c.113,0,.227,0,.34-.009V277.23h-.34Z" transform="translate(-713.46 -277.228)"/>
          <path id="Tracé_1898" data-name="Tracé 1898" class="cls-21" d="M719.18,286.556c.113,0,.227.007.34.009V277.23h-.34Z" transform="translate(-708.548 -277.228)"/>
          <path id="Tracé_1899" data-name="Tracé 1899" class="cls-21" d="M706.31,286.194c.113.024.224.05.34.068V277.22h-.34Z" transform="translate(-698.717 -277.22)"/>
          <path id="Tracé_1900" data-name="Tracé 1900" class="cls-21" d="M712.74,286.443c.111.012.227.019.34.031V277.23h-.34Z" transform="translate(-703.629 -277.228)"/>
          <path id="Tracé_1901" data-name="Tracé 1901" class="cls-21" d="M699.88,285.831c.111.033.224.064.34.094v-8.7h-.34Z" transform="translate(-693.805 -277.228)"/>
          <path id="Tracé_1902" data-name="Tracé 1902" class="cls-21" d="M674.15,281.732a5.705,5.705,0,0,0,.34.538V277.23h-.34Z" transform="translate(-674.15 -277.228)"/>
          <path id="Tracé_1903" data-name="Tracé 1903" class="cls-21" d="M680.58,283.522c.106.09.224.177.34.264V277.23h-.34Z" transform="translate(-679.062 -277.228)"/>
          <path id="Tracé_1904" data-name="Tracé 1904" class="cls-21" d="M693.45,285.3l.34.135V277.23h-.34Z" transform="translate(-688.893 -277.228)"/>
          <path id="Tracé_1905" data-name="Tracé 1905" class="cls-21" d="M687.01,284.573c.109.061.227.12.34.179V277.23h-.34Z" transform="translate(-683.974 -277.228)"/>
        </g>
        <ellipse id="Ellipse_62" data-name="Ellipse 62" class="cls-40" cx="12.091" cy="7.041" rx="12.091" ry="7.041" transform="translate(0)"/>
        <path id="Tracé_1906" data-name="Tracé 1906" class="cls-23" d="M683.671,279.395c-6.535,0-11.845-3.022-12.07-6.795,0,.083-.021.163-.021.246,0,3.889,5.414,7.041,12.091,7.041s12.091-3.152,12.091-7.041c0-.083-.016-.163-.021-.246C695.516,276.375,690.206,279.395,683.671,279.395Z" transform="translate(-671.58 -265.503)"/>
        <path id="Tracé_1907" data-name="Tracé 1907" class="cls-41" d="M702.586,255.333c0,2.906-4.047,5.263-9.038,5.263s-9.038-2.356-9.038-5.263,4.047-5.263,9.038-5.263S702.586,252.426,702.586,255.333Z" transform="translate(-681.457 -248.292)"/>
        <path id="Tracé_1908" data-name="Tracé 1908" class="cls-23" d="M694.828,249.357c4.828,0,8.759,2.205,9.014,4.979a2.819,2.819,0,0,0,.024-.283c0-2.906-4.047-5.263-9.038-5.263s-9.038,2.356-9.038,5.263c0,.094.016.189.024.283C686.068,251.562,690,249.357,694.828,249.357Z" transform="translate(-682.435 -247.314)"/>
        <path id="Tracé_1909" data-name="Tracé 1909" class="cls-42" d="M693.548,250.627c4.828,0,8.759,2.205,9.014,4.979a2.818,2.818,0,0,0,.024-.283c0-2.906-4.047-5.263-9.038-5.263s-9.038,2.356-9.038,5.263c0,.094.017.189.024.283C684.788,252.834,688.719,250.627,693.548,250.627Z" transform="translate(-681.457 -248.284)"/>
        <g id="Groupe_728" data-name="Groupe 728" transform="translate(7.58 4.141)">
          <path id="Tracé_1912" data-name="Tracé 1912" class="cls-43" d="M708.893,261.327c-.224.043-.456.1-.7.161-.208.052-.43.116-.668.194s-.465.163-.68.257l.727.42c.071-.028.151-.057.236-.085s.175-.059.267-.092c.411-.144.8-.267,1.164-.366a6.418,6.418,0,0,1,1.027-.2,3.277,3.277,0,0,1,.916.026,2.551,2.551,0,0,1,.838.307,1.332,1.332,0,0,1,.6.588.816.816,0,0,1,0,.633,1.872,1.872,0,0,1-.453.635,4.905,4.905,0,0,1-.77.6l.978.564-.812.47-.992-.574a13.708,13.708,0,0,1-1.608.678,13.015,13.015,0,0,1-1.667.467l-.526-1.289c.274-.052.557-.116.848-.191.246-.061.519-.139.819-.236a7.682,7.682,0,0,0,.857-.331l-.711-.411c-.253.1-.515.189-.781.274-.4.135-.772.238-1.1.314a5.1,5.1,0,0,1-.907.132,2.83,2.83,0,0,1-.763-.059,2.381,2.381,0,0,1-.663-.26,1.439,1.439,0,0,1-.588-.55.9.9,0,0,1-.08-.621,1.545,1.545,0,0,1,.349-.649,3.5,3.5,0,0,1,.713-.626l-.815-.47.812-.47.824.475c.245-.116.493-.222.746-.319s.505-.184.753-.262.489-.149.72-.21l.64-.17Zm-2.729,1.3a.5.5,0,0,0,.3.057,2.2,2.2,0,0,0,.446-.094l-.614-.354C706.051,262.4,706.008,262.533,706.164,262.623Zm3.882.647a.538.538,0,0,0-.319-.045,2.574,2.574,0,0,0-.475.1l.6.345a.684.684,0,0,0,.264-.246A.118.118,0,0,0,710.046,263.27Z" transform="translate(-703.684 -260.08)"/>
        </g>
        <g id="Groupe_729" data-name="Groupe 729" transform="translate(7.58 3.841)">
          <path id="Tracé_1913" data-name="Tracé 1913" class="cls-44" d="M708.893,260.057c-.224.042-.456.1-.7.161-.208.052-.43.116-.668.194s-.465.163-.68.257l.727.42c.071-.028.151-.057.236-.085s.175-.059.267-.092c.411-.144.8-.267,1.164-.366a6.418,6.418,0,0,1,1.027-.2,3.277,3.277,0,0,1,.916.026,2.552,2.552,0,0,1,.838.307,1.332,1.332,0,0,1,.6.588.816.816,0,0,1,0,.633,1.871,1.871,0,0,1-.453.635,4.9,4.9,0,0,1-.77.6l.978.564-.812.47-.992-.574a13.708,13.708,0,0,1-1.608.678,13.02,13.02,0,0,1-1.667.467l-.526-1.289c.274-.052.557-.116.848-.191.246-.061.519-.139.819-.236a7.688,7.688,0,0,0,.857-.331l-.711-.411c-.253.1-.515.189-.781.274-.4.135-.772.238-1.1.314a5.093,5.093,0,0,1-.907.132,2.829,2.829,0,0,1-.763-.059,2.38,2.38,0,0,1-.663-.26,1.439,1.439,0,0,1-.588-.55.9.9,0,0,1-.08-.621,1.545,1.545,0,0,1,.349-.649,3.5,3.5,0,0,1,.713-.626l-.815-.47.812-.47.824.475c.245-.116.493-.222.746-.319s.505-.184.753-.262.489-.149.72-.21l.64-.17Zm-2.729,1.294a.5.5,0,0,0,.3.057,2.2,2.2,0,0,0,.446-.094l-.614-.354C706.051,261.131,706.008,261.261,706.164,261.35Zm3.882.649a.538.538,0,0,0-.319-.045,2.575,2.575,0,0,0-.475.1l.6.345a.684.684,0,0,0,.264-.246A.118.118,0,0,0,710.046,262Z" transform="translate(-703.684 -258.81)"/>
        </g>
        <path id="Tracé_1914" data-name="Tracé 1914" class="cls-1" d="M708.893,260.057c-.224.042-.456.1-.7.161-.208.052-.43.116-.668.194s-.465.163-.68.257l.727.42c.071-.028.151-.057.236-.085s.175-.059.267-.092c.411-.144.8-.267,1.164-.366a6.418,6.418,0,0,1,1.027-.2,3.277,3.277,0,0,1,.916.026,2.552,2.552,0,0,1,.838.307,1.332,1.332,0,0,1,.6.588.816.816,0,0,1,0,.633,1.871,1.871,0,0,1-.453.635,4.9,4.9,0,0,1-.77.6l.978.564-.812.47-.992-.574a13.708,13.708,0,0,1-1.608.678,13.02,13.02,0,0,1-1.667.467l-.526-1.289c.274-.052.557-.116.848-.191.246-.061.519-.139.819-.236a7.688,7.688,0,0,0,.857-.331l-.711-.411c-.253.1-.515.189-.781.274-.4.135-.772.238-1.1.314a5.093,5.093,0,0,1-.907.132,2.829,2.829,0,0,1-.763-.059,2.38,2.38,0,0,1-.663-.26,1.439,1.439,0,0,1-.588-.55.9.9,0,0,1-.08-.621,1.545,1.545,0,0,1,.349-.649,3.5,3.5,0,0,1,.713-.626l-.815-.47.812-.47.824.475c.245-.116.493-.222.746-.319s.505-.184.753-.262.489-.149.72-.21l.64-.17Zm-2.729,1.294a.5.5,0,0,0,.3.057,2.2,2.2,0,0,0,.446-.094l-.614-.354C706.051,261.131,706.008,261.261,706.164,261.35Zm3.882.649a.538.538,0,0,0-.319-.045,2.575,2.575,0,0,0-.475.1l.6.345a.684.684,0,0,0,.264-.246A.118.118,0,0,0,710.046,262Z" transform="translate(-696.104 -254.969)"/>
      </g>
      <g id="Groupe_735" data-name="Groupe 735" transform="translate(221.064 142.79)">
        <path id="Tracé_1915" data-name="Tracé 1915" class="cls-45" d="M439.669,383.111a7.789,7.789,0,0,1-5.537,3.752c-.061.007-3.464.371-3.525.375-2.056.146.066-1.162-1.53-3.235-3.213-4.177-3.3-11.349-.194-16.019,1.535-2.309-.956-3.286,1.091-3.471.057,0,3.787-.3,3.844-.3a6.629,6.629,0,0,1,5.657,2.878C442.689,371.268,442.774,378.441,439.669,383.111Z" transform="translate(-421.978 -364.203)"/>
        <path id="Tracé_1916" data-name="Tracé 1916" class="cls-46" d="M420.9,384.586c-3.1,4.67-8.228,5.071-11.441.895s-3.3-11.349-.194-16.019,8.228-5.071,11.441-.895S424.006,379.916,420.9,384.586Z" transform="translate(-406.99 -365.328)"/>
        <path id="Tracé_1917" data-name="Tracé 1917" class="cls-47" d="M426.208,392.184c-2.3,3.454-6.084,3.749-8.459.661s-2.439-8.391-.142-11.845,6.084-3.749,8.459-.661S428.506,388.73,426.208,392.184Z" transform="translate(-413.816 -374.896)"/>
        <path id="Tracé_1918" data-name="Tracé 1918" class="cls-48" d="M418.658,392.819c-2.375-3.088-2.439-8.391-.142-11.843a6.331,6.331,0,0,1,2.906-2.477,5.869,5.869,0,0,0-3.815,2.727c-2.3,3.454-2.234,8.757.142,11.845a4.684,4.684,0,0,0,5.553,1.816A4.807,4.807,0,0,1,418.658,392.819Z" transform="translate(-413.816 -375.123)"/>
        <g id="Groupe_731" data-name="Groupe 731" transform="translate(5.74 7.809)">
          <path id="Tracé_1919" data-name="Tracé 1919" class="cls-49" d="M436.319,401.711c-.057-.191-.125-.387-.2-.593-.064-.177-.144-.368-.238-.569s-.2-.4-.3-.581l-.406.611a2.045,2.045,0,0,1,.1.2c.033.073.071.149.111.227.172.352.321.682.441.994a4.794,4.794,0,0,1,.257.876,2.277,2.277,0,0,1,.019.777,1.783,1.783,0,0,1-.283.708,1.176,1.176,0,0,1-.593.505,1.061,1.061,0,0,1-.668-.007,2.138,2.138,0,0,1-.692-.394,5.035,5.035,0,0,1-.668-.661l-.548.824-.534-.694.557-.836a11.411,11.411,0,0,1-.793-1.374,9.924,9.924,0,0,1-.576-1.421l1.334-.432c.071.234.151.475.243.722.078.21.172.444.29.7a5.852,5.852,0,0,0,.392.732l.4-.6c-.113-.215-.224-.439-.328-.668a9.226,9.226,0,0,1-.385-.937,3.768,3.768,0,0,1-.184-.772,1.95,1.95,0,0,1,.024-.647,1.651,1.651,0,0,1,.241-.56,1.256,1.256,0,0,1,.552-.493,1.15,1.15,0,0,1,.652-.061,1.917,1.917,0,0,1,.7.3,3.672,3.672,0,0,1,.7.614l.456-.687.534.694-.46.694c.135.21.26.42.373.637s.22.43.314.642.182.418.257.616.146.378.21.545Zm-1.5-2.333a.357.357,0,0,0-.045.253,1.746,1.746,0,0,0,.12.38l.345-.517C435.045,399.286,434.905,399.246,434.818,399.378Zm-.493,3.289a.366.366,0,0,0,.031-.272,2.062,2.062,0,0,0-.13-.4l-.335.5a.757.757,0,0,0,.272.227A.129.129,0,0,0,434.324,402.667Z" transform="translate(-431.3 -397.27)"/>
        </g>
        <g id="Groupe_732" data-name="Groupe 732" transform="translate(5.26 7.825)">
          <path id="Tracé_1920" data-name="Tracé 1920" class="cls-50" d="M434.289,401.781c-.057-.191-.125-.387-.2-.593-.064-.177-.144-.368-.238-.569s-.2-.4-.3-.581l-.406.612c.035.061.068.128.1.2s.071.149.111.227c.172.352.321.682.441.994a4.791,4.791,0,0,1,.257.876,2.29,2.29,0,0,1,.019.779,1.783,1.783,0,0,1-.283.708,1.166,1.166,0,0,1-.593.505,1.078,1.078,0,0,1-.668-.007,2.139,2.139,0,0,1-.692-.394,5.029,5.029,0,0,1-.668-.661l-.548.824-.534-.694.557-.836a11.4,11.4,0,0,1-.793-1.374,9.919,9.919,0,0,1-.576-1.421l1.334-.432c.071.234.151.475.243.722.078.21.172.444.29.7a5.849,5.849,0,0,0,.392.732l.4-.6c-.113-.215-.224-.439-.328-.668a9.22,9.22,0,0,1-.385-.937,3.769,3.769,0,0,1-.184-.772,1.948,1.948,0,0,1,.024-.647,1.7,1.7,0,0,1,.241-.56,1.256,1.256,0,0,1,.552-.493,1.15,1.15,0,0,1,.652-.061,1.917,1.917,0,0,1,.7.3,3.738,3.738,0,0,1,.7.612l.456-.687.534.694-.46.694c.135.21.26.42.373.637s.22.43.314.642.182.418.257.616.146.378.21.545Zm-1.5-2.333a.345.345,0,0,0-.045.253,1.747,1.747,0,0,0,.12.38l.345-.517C433.015,399.356,432.875,399.316,432.788,399.448Zm-.493,3.289a.366.366,0,0,0,.031-.272,2.062,2.062,0,0,0-.13-.4l-.335.5a.756.756,0,0,0,.272.227A.129.129,0,0,0,432.294,402.737Z" transform="translate(-429.27 -397.34)"/>
        </g>
        <g id="Groupe_733" data-name="Groupe 733" transform="translate(5.26 7.825)">
          <path id="Tracé_1921" data-name="Tracé 1921" class="cls-1" d="M434.289,401.781c-.057-.191-.125-.387-.2-.593-.064-.177-.144-.368-.238-.569s-.2-.4-.3-.581l-.406.612c.035.061.068.128.1.2s.071.149.111.227c.172.352.321.682.441.994a4.791,4.791,0,0,1,.257.876,2.29,2.29,0,0,1,.019.779,1.783,1.783,0,0,1-.283.708,1.166,1.166,0,0,1-.593.505,1.078,1.078,0,0,1-.668-.007,2.139,2.139,0,0,1-.692-.394,5.029,5.029,0,0,1-.668-.661l-.548.824-.534-.694.557-.836a11.4,11.4,0,0,1-.793-1.374,9.919,9.919,0,0,1-.576-1.421l1.334-.432c.071.234.151.475.243.722.078.21.172.444.29.7a5.849,5.849,0,0,0,.392.732l.4-.6c-.113-.215-.224-.439-.328-.668a9.22,9.22,0,0,1-.385-.937,3.769,3.769,0,0,1-.184-.772,1.948,1.948,0,0,1,.024-.647,1.7,1.7,0,0,1,.241-.56,1.256,1.256,0,0,1,.552-.493,1.15,1.15,0,0,1,.652-.061,1.917,1.917,0,0,1,.7.3,3.738,3.738,0,0,1,.7.612l.456-.687.534.694-.46.694c.135.21.26.42.373.637s.22.43.314.642.182.418.257.616.146.378.21.545Zm-1.5-2.333a.345.345,0,0,0-.045.253,1.747,1.747,0,0,0,.12.38l.345-.517C433.015,399.356,432.875,399.316,432.788,399.448Zm-.493,3.289a.366.366,0,0,0,.031-.272,2.062,2.062,0,0,0-.13-.4l-.335.5a.756.756,0,0,0,.272.227A.129.129,0,0,0,432.294,402.737Z" transform="translate(-429.27 -397.34)"/>
        </g>
        <g id="Groupe_734" data-name="Groupe 734" transform="translate(11.243 0.827)">
          <path id="Tracé_1922" data-name="Tracé 1922" class="cls-21" d="M468.494,376.146c-.042-.057-.078-.118-.12-.175s-.083-.092-.12-.142l-3.813.314c.05.061.1.113.154.177.033.045.061.092.094.137Z" transform="translate(-462.119 -373.911)"/>
          <path id="Tracé_1923" data-name="Tracé 1923" class="cls-21" d="M458.824,367.7l-3.844.316c.161.09.319.191.477.3L459.3,368C459.147,367.887,458.987,367.792,458.824,367.7Z" transform="translate(-454.893 -367.7)"/>
          <path id="Tracé_1924" data-name="Tracé 1924" class="cls-21" d="M473.606,384.29l-3.8.314c.052.106.1.217.146.323l3.8-.314C473.7,384.507,473.656,384.4,473.606,384.29Z" transform="translate(-466.221 -380.373)"/>
          <path id="Tracé_1925" data-name="Tracé 1925" class="cls-21" d="M478.7,401.68l-3.785.312c.014.111.026.222.038.333l3.785-.312C478.731,401.9,478.719,401.791,478.7,401.68Z" transform="translate(-470.125 -393.657)"/>
          <path id="Tracé_1926" data-name="Tracé 1926" class="cls-21" d="M476.872,392.92l-3.792.314c.031.109.059.22.087.328l3.792-.314C476.931,393.14,476.9,393.031,476.872,392.92Z" transform="translate(-468.719 -386.966)"/>
          <path id="Tracé_1927" data-name="Tracé 1927" class="cls-21" d="M479.267,410.53l-3.78.312c0,.113,0,.224-.007.338l3.78-.312C479.262,410.754,479.267,410.643,479.267,410.53Z" transform="translate(-470.553 -400.418)"/>
          <path id="Tracé_1928" data-name="Tracé 1928" class="cls-21" d="M458.862,454.3l-3.721.307c-.175.135-.352.264-.531.38l3.709-.307C458.5,454.564,458.683,454.437,458.862,454.3Z" transform="translate(-454.61 -433.854)"/>
          <path id="Tracé_1929" data-name="Tracé 1929" class="cls-21" d="M464.5,445.509c-.085.123-.175.241-.262.359l3.752-.309c.09-.116.175-.236.262-.359Z" transform="translate(-461.966 -426.902)"/>
          <path id="Tracé_1930" data-name="Tracé 1930" class="cls-21" d="M473.313,436.759c.057-.118.12-.231.172-.349l-3.766.312c-.052.118-.113.234-.17.349Z" transform="translate(-466.023 -420.188)"/>
          <path id="Tracé_1931" data-name="Tracé 1931" class="cls-21" d="M472.954,428.082c-.031.116-.068.229-.1.345l3.768-.312c.035-.116.076-.229.106-.345Z" transform="translate(-468.543 -413.587)"/>
          <path id="Tracé_1932" data-name="Tracé 1932" class="cls-21" d="M478.505,419.59c.017-.113.04-.227.054-.34l-3.775.312c-.014.113-.038.227-.054.34Z" transform="translate(-469.98 -407.079)"/>
        </g>
        <path id="Tracé_1933" data-name="Tracé 1933" class="cls-51" d="M460.705,367.084a6.632,6.632,0,0,0-5.657-2.878l-.512.035a6.725,6.725,0,0,1,5.211,2.876c3.213,4.177,3.3,11.349.194,16.019a7.789,7.789,0,0,1-5.537,3.752c-.05,0,.9-.026.959-.033A7.784,7.784,0,0,0,460.9,383.1C464,378.433,463.919,371.26,460.705,367.084Z" transform="translate(-443.208 -364.195)"/>
        <path id="Tracé_1934" data-name="Tracé 1934" class="cls-23" d="M445.8,368.454a6.582,6.582,0,0,0-5.489-2.836,6.922,6.922,0,0,1,4.592,2.845c3.213,4.177,3.3,11.349.194,16.019a7.617,7.617,0,0,1-5.936,3.775c2.446.3,4.986-1.008,6.833-3.785C449.1,379.8,449.01,372.63,445.8,368.454Z" transform="translate(-431.565 -365.28)"/>
      </g>
      <g id="Groupe_740" data-name="Groupe 740" transform="translate(203.281 171.397)">
        <path id="Tracé_1935" data-name="Tracé 1935" class="cls-52" d="M359.278,502.008c0,2.767-.956,4.729-2.51,5.678,0,0-.009,0-.017.009-.128.08-.935.581-1.629,1.011l-.125-.068-.135-.078-.189-.106-2.888-1.655-.009,0-.538-.309-2.722-1.556c-3.711-3.4-6.422-8.9-6.422-13.562,0-.043,0-.083,0-.123a2.1,2.1,0,0,0-.012-.212v-.012c-.17-2.063-1.82-2.437-1.447-3.036a1.346,1.346,0,0,1,.456-.378c.035-.019,1.858-1.055,2.649-1.5,0,0,0,0,.009,0,.068-.04.128-.073.177-.1l.172-.1c1.61-.874,3.813-.713,6.24.689.066.035.13.083.2.123a13.373,13.373,0,0,1,1.754,1.254c.1.083.2.172.3.26a16.9,16.9,0,0,1,1.454,1.428c.083.094.168.189.253.283.057.059.106.12.158.177.238.281.472.571.7.867,0,0,0,0,0,0,.149.2.293.394.437.595s.283.413.423.621a.068.068,0,0,1,.009.012l.2.307c.068.106.137.213.2.316s.125.205.187.312.12.208.177.314c0,0,.009.014.012.019.064.109.125.222.186.335.3.552.574,1.114.819,1.686,0,.014.012.028.017.042.189.446.364.89.524,1.339.052.149.1.3.151.446,0,0,0,0,0,0,.031.09.059.175.083.264,0,0,0,.009,0,.012.028.094.057.186.08.281s.052.184.078.279.05.186.073.279q.053.209.1.418c.031.139.061.279.09.418.035.186.068.371.1.555.017.106.033.215.047.321.009.061.017.125.026.187.014.106.026.212.035.316.019.182.035.361.047.543C359.271,501.472,359.278,501.744,359.278,502.008Z" transform="translate(-338.475 -485.358)"/>
        <path id="Tracé_1936" data-name="Tracé 1936" class="cls-53" d="M349.55,509.383c0,.073,0,.144,0,.215,0,.151-.009.3-.017.444a8.423,8.423,0,0,1-.453,2.37v0a5.524,5.524,0,0,1-.234.564,5.1,5.1,0,0,1-.781,1.214l-.189-.106-2.888-1.655-.009,0-.538-.309-2.722-1.556-3.676-2.106-1.764-1.008-3.079-1.766a16.8,16.8,0,0,1-1.528-6.625c0-2.552.812-4.422,2.16-5.435a4.161,4.161,0,0,1,1.41-.7h0a5.275,5.275,0,0,1,2.269-.111c.182.028.364.064.555.109h0a9.26,9.26,0,0,1,2.323.926c.073.04.144.08.217.123a.847.847,0,0,1,.078.047c.028.014.052.031.08.047a13.992,13.992,0,0,1,1.764,1.251c.1.083.2.168.3.257a17.241,17.241,0,0,1,1.457,1.426c.087.092.17.189.255.283.432.493.843,1.013,1.23,1.554.076.1.149.2.22.307.373.541.72,1.1,1.044,1.664.061.109.123.217.182.326q.46.843.838,1.712c.05.113.1.231.144.345.238.578.451,1.164.633,1.75.035.123.073.246.106.368a15.657,15.657,0,0,1,.423,1.863c.021.135.042.264.059.4A13.289,13.289,0,0,1,349.55,509.383Z" transform="translate(-331.67 -490.993)"/>
        <path id="Tracé_1937" data-name="Tracé 1937" class="cls-54" d="M354.744,517.713c0,2.264-.864,3.794-2.236,4.394l-.009,0-.538-.309-2.722-1.556-3.676-2.106-1.764-1.008a13.716,13.716,0,0,1-2.278-7.045c0-.135,0-.262.012-.39a1.876,1.876,0,0,1,.014-.231c0-.052,0-.106.012-.156.009-.083.017-.165.028-.246.014-.106.031-.212.05-.314s.04-.2.061-.3.047-.2.076-.29a4.515,4.515,0,0,1,.189-.538,3.779,3.779,0,0,1,.838-1.282c1.2-1.185,3.145-1.287,5.331-.021A14.566,14.566,0,0,1,354.744,517.713Z" transform="translate(-339.194 -500.668)"/>
        <path id="Tracé_1938" data-name="Tracé 1938" class="cls-55" d="M345.572,520.162l-1.764-1.008a13.717,13.717,0,0,1-2.278-7.045c0-.134,0-.262.012-.39a1.877,1.877,0,0,1,.014-.231c0-.052,0-.106.012-.156.009-.083.017-.165.028-.246.014-.106.031-.213.05-.314s.04-.2.061-.3.047-.2.076-.29a5.531,5.531,0,0,1,.189-.538,3.855,3.855,0,0,1,.838-1.27,3.343,3.343,0,0,1,.371-.314,3.822,3.822,0,0,0-.359.527,5.883,5.883,0,0,0-.68,2.944A14.418,14.418,0,0,0,345.572,520.162Z" transform="translate(-339.202 -502.7)"/>
        <path id="Tracé_1939" data-name="Tracé 1939" class="cls-56" d="M387.485,572.25a3.187,3.187,0,0,1-1.207.918l-.538-.309A3.3,3.3,0,0,0,387.485,572.25Z" transform="translate(-372.974 -551.735)"/>
        <g id="Groupe_736" data-name="Groupe 736" transform="translate(6.538 8.708)">
          <path id="Tracé_1940" data-name="Tracé 1940" class="cls-57" d="M365.144,528.272a3.094,3.094,0,0,0-.444-.746,6.566,6.566,0,0,0-.689-.751c-.274-.253-.574-.522-.911-.8-.076-.059-.149-.12-.215-.177s-.135-.111-.2-.158V524.9c.189.137.382.286.569.449s.359.314.51.463.279.269.4.4c.031.031.061.064.09.094l.864-.829c-.144-.137-.3-.286-.472-.449s-.354-.328-.548-.5-.4-.338-.611-.5-.432-.326-.656-.479v-.84l-.822-.472v.833c-.13-.064-.26-.123-.385-.17a3.713,3.713,0,0,0-.524-.168,1.813,1.813,0,0,0-.746-.033.8.8,0,0,0-.406.2.67.67,0,0,0-.094.1,1.07,1.07,0,0,0-.187.68,1.888,1.888,0,0,0,.109.633,2.673,2.673,0,0,0,.335.635,5.528,5.528,0,0,0,.574.68c.234.234.512.491.833.763.212.184.425.359.637.526v.725c-.13-.09-.26-.184-.387-.283-.111-.09-.227-.182-.338-.279-.236-.2-.444-.394-.621-.569-.215-.205-.413-.406-.595-.607l-.283.3-.578.609a14.4,14.4,0,0,0,1.254,1.162,15.218,15.218,0,0,0,1.407,1.036v1.013l.437.253.385.222v-1a5.815,5.815,0,0,0,.914.392,2.184,2.184,0,0,0,.789.123,1.265,1.265,0,0,0,.137-.017.768.768,0,0,0,.418-.222,1.014,1.014,0,0,0,.208-.711A2.248,2.248,0,0,0,365.144,528.272Zm-2.987-3.081a2.342,2.342,0,0,1-.309-.323.452.452,0,0,1-.1-.262c0-.158.137-.172.413-.042Zm.881,2.9a.843.843,0,0,1-.347-.12v-.609a2.691,2.691,0,0,1,.328.342.482.482,0,0,1,.123.274A.1.1,0,0,1,363.038,528.088Z" transform="translate(-359.36 -522.24)"/>
        </g>
        <g id="Groupe_737" data-name="Groupe 737" transform="translate(6.139 8.897)">
          <path id="Tracé_1941" data-name="Tracé 1941" class="cls-58" d="M363.469,529.075a3.219,3.219,0,0,0-.444-.746,6.428,6.428,0,0,0-.694-.748c-.269-.257-.574-.522-.911-.8-.076-.059-.144-.12-.215-.177s-.135-.111-.2-.156v-.744c.13.094.26.191.387.3.061.047.123.1.184.151.187.161.357.316.508.463.177.17.342.338.493.5l.3-.286.564-.541c-.144-.139-.3-.29-.47-.451s-.357-.328-.552-.5-.4-.34-.609-.508-.432-.326-.656-.479v-.841l-.437-.25-.385-.222v.833a4.287,4.287,0,0,0-.911-.335,1.767,1.767,0,0,0-.744-.035.161.161,0,0,0-.021,0,.824.824,0,0,0-.482.3,1.087,1.087,0,0,0-.184.682,1.871,1.871,0,0,0,.106.63,2.628,2.628,0,0,0,.335.635,5.207,5.207,0,0,0,.576.68q.347.354.833.763c.212.184.423.359.635.527v.727c-.246-.17-.486-.359-.725-.562s-.444-.394-.621-.571-.338-.335-.493-.5c-.035-.035-.068-.073-.1-.109l-.864.911a14.038,14.038,0,0,0,1.254,1.162,14.931,14.931,0,0,0,1.41,1.036v1.015l.822.472v-1c.13.066.26.13.385.184a4.339,4.339,0,0,0,.529.205,2.239,2.239,0,0,0,.786.125.806.806,0,0,0,.524-.213.373.373,0,0,0,.031-.031,1,1,0,0,0,.213-.708A2.058,2.058,0,0,0,363.469,529.075Zm-2.989-3.707V526a2.487,2.487,0,0,1-.309-.323.461.461,0,0,1-.1-.262C360.069,525.255,360.206,525.24,360.48,525.368Zm.885,3.523a.857.857,0,0,1-.352-.12v-.609a2.53,2.53,0,0,1,.328.342.488.488,0,0,1,.123.274A.1.1,0,0,1,361.365,528.891Z" transform="translate(-357.67 -523.04)"/>
        </g>
        <g id="Groupe_738" data-name="Groupe 738" transform="translate(6.139 8.897)">
          <path id="Tracé_1942" data-name="Tracé 1942" class="cls-1" d="M363.469,529.075a3.219,3.219,0,0,0-.444-.746,6.428,6.428,0,0,0-.694-.748c-.269-.257-.574-.522-.911-.8-.076-.059-.144-.12-.215-.177s-.135-.111-.2-.156v-.744c.13.094.26.191.387.3.061.047.123.1.184.151.187.161.357.316.508.463.177.17.342.338.493.5l.3-.286.564-.541c-.144-.139-.3-.29-.47-.451s-.357-.328-.552-.5-.4-.34-.609-.508-.432-.326-.656-.479v-.841l-.437-.25-.385-.222v.833a4.287,4.287,0,0,0-.911-.335,1.767,1.767,0,0,0-.744-.035.161.161,0,0,0-.021,0,.824.824,0,0,0-.482.3,1.087,1.087,0,0,0-.184.682,1.871,1.871,0,0,0,.106.63,2.628,2.628,0,0,0,.335.635,5.207,5.207,0,0,0,.576.68q.347.354.833.763c.212.184.423.359.635.527v.727c-.246-.17-.486-.359-.725-.562s-.444-.394-.621-.571-.338-.335-.493-.5c-.035-.035-.068-.073-.1-.109l-.864.911a14.038,14.038,0,0,0,1.254,1.162,14.931,14.931,0,0,0,1.41,1.036v1.015l.822.472v-1c.13.066.26.13.385.184a4.339,4.339,0,0,0,.529.205,2.239,2.239,0,0,0,.786.125.806.806,0,0,0,.524-.213.373.373,0,0,0,.031-.031,1,1,0,0,0,.213-.708A2.058,2.058,0,0,0,363.469,529.075Zm-2.989-3.707V526a2.487,2.487,0,0,1-.309-.323.461.461,0,0,1-.1-.262C360.069,525.255,360.206,525.24,360.48,525.368Zm.885,3.523a.857.857,0,0,1-.352-.12v-.609a2.53,2.53,0,0,1,.328.342.488.488,0,0,1,.123.274A.1.1,0,0,1,361.365,528.891Z" transform="translate(-357.67 -523.04)"/>
        </g>
        <g id="Groupe_739" data-name="Groupe 739" transform="translate(5.825 0.095)">
          <path id="Tracé_1943" data-name="Tracé 1943" class="cls-21" d="M371.923,490.4c-.066-.04-.13-.085-.2-.125s-.118-.059-.177-.092l-2.97,1.714c.076.043.149.071.224.116.052.031.1.066.153.1Z" transform="translate(-365.69 -489.136)"/>
          <path id="Tracé_1944" data-name="Tracé 1944" class="cls-21" d="M359.334,485.76l-2.994,1.728c.182.026.368.066.557.111l3-1.731C359.7,485.824,359.518,485.791,359.334,485.76Z" transform="translate(-356.34 -485.76)"/>
          <path id="Tracé_1945" data-name="Tracé 1945" class="cls-21" d="M380.6,496.4l-2.958,1.709c.1.083.2.172.3.26l2.958-1.709C380.8,496.575,380.7,496.485,380.6,496.4Z" transform="translate(-372.611 -493.888)"/>
          <path id="Tracé_1946" data-name="Tracé 1946" class="cls-21" d="M394.329,511.34l-2.949,1.7c.073.1.144.205.215.307l2.949-1.7C394.473,511.545,394.4,511.441,394.329,511.34Z" transform="translate(-383.107 -505.3)"/>
          <path id="Tracé_1947" data-name="Tracé 1947" class="cls-21" d="M388.024,503.55l-2.954,1.7c.085.094.17.189.253.286l2.954-1.7C388.194,503.739,388.111,503.642,388.024,503.55Z" transform="translate(-378.287 -499.35)"/>
          <path id="Tracé_1948" data-name="Tracé 1948" class="cls-21" d="M399.674,519.7l-2.944,1.7c.061.109.118.22.179.328l2.944-1.7C399.792,519.917,399.736,519.809,399.674,519.7Z" transform="translate(-387.194 -511.687)"/>
          <path id="Tracé_1949" data-name="Tracé 1949" class="cls-21" d="M407.488,569.02l-2.9,1.674c-.071.194-.144.385-.229.564l2.89-1.669C407.337,569.409,407.415,569.216,407.488,569.02Z" transform="translate(-393.022 -549.362)"/>
          <path id="Tracé_1950" data-name="Tracé 1950" class="cls-21" d="M407.281,558.708c0,.151-.012.3-.021.444l2.923-1.688c.009-.144.017-.293.019-.444Z" transform="translate(-395.238 -540.195)"/>
          <path id="Tracé_1951" data-name="Tracé 1951" class="cls-21" d="M409.572,547.084c-.019-.135-.028-.267-.05-.4l-2.932,1.693c.021.135.035.267.052.4Z" transform="translate(-394.726 -532.297)"/>
          <path id="Tracé_1952" data-name="Tracé 1952" class="cls-21" d="M404.34,538.888c.038.123.068.248.1.371l2.937-1.7c-.035-.125-.064-.248-.1-.373Z" transform="translate(-393.007 -525.047)"/>
          <path id="Tracé_1953" data-name="Tracé 1953" class="cls-21" d="M404.141,528.679c-.047-.116-.092-.234-.142-.349l-2.939,1.7c.05.116.094.234.142.349Z" transform="translate(-390.501 -518.279)"/>
        </g>
        <path id="Tracé_1954" data-name="Tracé 1954" class="cls-59" d="M360.414,486.6c-2.427-1.4-4.63-1.563-6.24-.689l-.4.224c1.572-.668,3.622-.446,5.872.852,4.937,2.85,8.941,9.756,8.941,15.42,0,2.767-.956,4.729-2.507,5.676-.038.024.725-.357.772-.387,1.554-.949,2.507-2.909,2.507-5.676C369.355,496.352,365.353,489.446,360.414,486.6Z" transform="translate(-348.552 -485.366)"/>
        <path id="Tracé_1955" data-name="Tracé 1955" class="cls-23" d="M360.451,508.4c0,.08,0,.161,0,.243,0,.151-.01.3-.019.444a8.583,8.583,0,0,1-.446,2.366v0a5.448,5.448,0,0,1-.229.56v0a5.034,5.034,0,0,1-1.051,1.523l-.135-.078-.189-.106a7.366,7.366,0,0,0,1.334-4.616c0-5.666-4-12.572-8.939-15.42a7.29,7.29,0,0,0-5.024-1.131h0c-.106.021-.215.05-.316.078a4.981,4.981,0,0,1,3-.423q.276.039.56.106a8.989,8.989,0,0,1,2.328.921l.191.109.184.109a13.819,13.819,0,0,1,1.754,1.254c.1.083.2.17.3.255a17.964,17.964,0,0,1,1.454,1.426c.083.094.17.189.253.286a19.428,19.428,0,0,1,1.23,1.554c.073.1.144.2.217.307q.556.807,1.044,1.664c.061.109.12.22.177.328.307.562.588,1.133.836,1.712.052.113.1.231.144.345.243.578.451,1.164.633,1.75.035.123.073.245.106.368a17.331,17.331,0,0,1,.42,1.865v0c.019.135.04.262.059.394v0A13.082,13.082,0,0,1,360.451,508.4Z" transform="translate(-342.181 -490.261)"/>
      </g>
    </g>
  </g>
</svg>
