<svg xmlns="http://www.w3.org/2000/svg" xmlns:xlink="http://www.w3.org/1999/xlink" width="418" height="249" viewBox="0 0 418 249">
  <defs>
    <style>
      .cls-1 {
        fill: #fff;
      }

      .cls-2 {
        fill: #f5f5f5;
      }

      .cls-3 {
        fill: #2a2a2a;
      }

      .cls-12, .cls-4 {
        fill: #463af3;
      }

      .cls-5 {
        fill: #00007f;
      }

      .cls-6 {
        fill: #e0e0e0;
      }

      .cls-7 {
        fill: #000051;
      }

      .cls-8, .cls-9 {
        fill: #5151f2;
      }

      .cls-9 {
        opacity: 0.5;
      }

      .cls-10 {
        fill: #263238;
      }

      .cls-11 {
        fill: #ffc3bd;
      }

      .cls-12, .cls-15 {
        opacity: 0.2;
      }

      .cls-13 {
        fill: #ed847e;
      }

      .cls-14 {
        opacity: 0.3;
      }

      .cls-16 {
        filter: url(#Rectangle_1621);
      }
    </style>
    <filter id="Rectangle_1621" x="0" y="0" width="418" height="249" filterUnits="userSpaceOnUse">
      <feOffset dy="3" input="SourceAlpha"/>
      <feGaussianBlur stdDeviation="3" result="blur"/>
      <feFlood flood-opacity="0.161"/>
      <feComposite operator="in" in2="blur"/>
      <feComposite in="SourceGraphic"/>
    </filter>
  </defs>
  <g id="Reviewseller" transform="translate(-1015 -761)">
    <g id="Groupe_416" data-name="Groupe 416">
      <g id="Groupe_328" data-name="Groupe 328">
        <g class="cls-16" transform="matrix(1, 0, 0, 1, 1015, 761)">
          <rect id="Rectangle_1621-2" data-name="Rectangle 1621" class="cls-1" width="400" height="231" rx="20" transform="translate(9 6)"/>
        </g>
      </g>
    </g>
    <g id="Review" transform="translate(1048.891 689.41)">
      <g id="Shadow_1_" transform="translate(56.11 282.603)">
        <ellipse id="_x3C_Path_x3E__108_" class="cls-2" cx="118.68" cy="6.929" rx="118.68" ry="6.929"/>
      </g>
      <g id="Survey" transform="translate(87.902 89.59)">
        <g id="Groupe_421" data-name="Groupe 421" transform="translate(0 7.259)">
          <path id="Tracé_1162" data-name="Tracé 1162" class="cls-3" d="M221.166,101.45H108.05L116.84,255.5h113.11Z" transform="translate(-108.05 -101.45)"/>
          <path id="Tracé_1163" data-name="Tracé 1163" class="cls-4" d="M224.756,101.45H111.64L120.43,255.5H233.545Z" transform="translate(-109.443 -101.45)"/>
          <path id="Tracé_1164" data-name="Tracé 1164" class="cls-5" d="M220.245,109.91H120.1l7.18,139.442H230.033Z" transform="translate(-112.724 -104.732)"/>
        </g>
        <path id="Tracé_1165" data-name="Tracé 1165" class="cls-1" d="M120.09,109.91c7.443,46.483,2.338,92.959,9.781,139.442H232.624c-7.443-46.483-2.338-92.959-9.781-139.442Z" transform="translate(-112.72 -97.472)"/>
        <g id="Groupe_422" data-name="Groupe 422" transform="translate(30.563 121.622)">
          <path id="Tracé_1166" data-name="Tracé 1166" class="cls-6" d="M208.036,302.369q-22.88.6-45.767,1.187c-1.481.037-2.552.918-2.381,1.965h0c.165,1.047,1.512,1.861,2.993,1.824q22.88-.6,45.767-1.187c1.481-.037,2.534-.918,2.369-1.965h0C210.846,303.147,209.517,302.333,208.036,302.369Z" transform="translate(-158.714 -293.749)"/>
          <path id="Tracé_1167" data-name="Tracé 1167" class="cls-6" d="M231.567,288.289q-35.569.918-71.138,1.842c-1.475.037-2.571.912-2.436,1.965h0c.135,1.047,1.457,1.861,2.932,1.824q35.569-.918,71.138-1.842c1.481-.037,2.559-.918,2.424-1.965h0C234.352,289.066,233.048,288.246,231.567,288.289Z" transform="translate(-157.982 -288.287)"/>
        </g>
        <g id="Groupe_423" data-name="Groupe 423" transform="translate(25.366 56.361)">
          <path id="Tracé_1168" data-name="Tracé 1168" class="cls-6" d="M176.8,186.648q-12.23.321-24.466.637c-1.481.037-2.748-.777-2.834-1.824h0c-.092-1.047,1.041-1.928,2.516-1.965q12.23-.321,24.466-.637c1.481-.037,2.754.777,2.84,1.824h0C179.41,185.73,178.278,186.611,176.8,186.648Z" transform="translate(-149.491 -182.13)"/>
          <path id="Tracé_1169" data-name="Tracé 1169" class="cls-6" d="M227.947,185.458q-8.291.211-16.576.428c-1.475.037-2.748-.777-2.834-1.824h0c-.086-1.047,1.041-1.928,2.516-1.965q8.291-.211,16.576-.428c1.481-.037,2.754.777,2.84,1.824h0C230.56,184.54,229.428,185.415,227.947,185.458Z" transform="translate(-172.394 -181.668)"/>
          <path id="Tracé_1170" data-name="Tracé 1170" class="cls-6" d="M219,197.934q-32.842.854-65.678,1.7c-1.481.037-2.736-.777-2.81-1.83h0c-.073-1.047,1.065-1.928,2.54-1.965q32.842-.854,65.678-1.7c1.481-.037,2.742.783,2.816,1.83h0C221.609,197.016,220.477,197.9,219,197.934Z" transform="translate(-149.884 -186.505)"/>
        </g>
        <g id="Groupe_424" data-name="Groupe 424" transform="translate(27.572 89.095)">
          <path id="Tracé_1171" data-name="Tracé 1171" class="cls-6" d="M232.362,247.429l-75.814,1.965c-1.481.037-2.62.918-2.54,1.965h0c.08,1.047,1.34,1.867,2.822,1.83l75.814-1.965c1.481-.037,2.614-.918,2.54-1.965h0C235.1,248.213,233.837,247.393,232.362,247.429Z" transform="translate(-153.448 -239.911)"/>
          <path id="Tracé_1172" data-name="Tracé 1172" class="cls-6" d="M213.818,235.149l-58.162,1.506c-1.475.037-2.626.918-2.559,1.965h0c.067,1.047,1.322,1.867,2.8,1.83l58.162-1.506c1.481-.037,2.62-.918,2.552-1.965h0C216.554,235.926,215.3,235.106,213.818,235.149Z" transform="translate(-153.095 -235.147)"/>
        </g>
        <g id="Groupe_430" data-name="Groupe 430" transform="translate(39.993 21.393)">
          <g id="Groupe_426" data-name="Groupe 426">
            <path id="Tracé_1173" data-name="Tracé 1173" class="cls-4" d="M222.005,129.02q-1.616,3.526-3.305,7.045a15.169,15.169,0,0,1,8.349,12.291h8.135C234.639,140.032,229.265,132.784,222.005,129.02Z" transform="translate(-190.964 -126.278)"/>
            <path id="Tracé_1174" data-name="Tracé 1174" class="cls-7" d="M173.438,148.632h8.135a12.972,12.972,0,0,1,5.644-11.856q-2.369-3.526-4.817-7.045C176.468,133.592,172.918,140.613,173.438,148.632Z" transform="translate(-173.388 -126.553)"/>
            <g id="Groupe_425" data-name="Groupe 425" transform="translate(9.011)">
              <path id="Tracé_1175" data-name="Tracé 1175" class="cls-8" d="M199.134,124.54a20.03,20.03,0,0,0-11.024,3.177q2.451,3.526,4.817,7.045a12.865,12.865,0,0,1,7.137-2.093,14.846,14.846,0,0,1,6.764,1.659c1.126-2.35,2.234-4.695,3.305-7.045A23.952,23.952,0,0,0,199.134,124.54Z" transform="translate(-188.11 -124.54)"/>
              <path id="Tracé_1176" data-name="Tracé 1176" class="cls-9" d="M199.134,124.54a20.03,20.03,0,0,0-11.024,3.177q2.451,3.526,4.817,7.045a12.865,12.865,0,0,1,7.137-2.093,14.846,14.846,0,0,1,6.764,1.659c1.126-2.35,2.234-4.695,3.305-7.045A23.952,23.952,0,0,0,199.134,124.54Z" transform="translate(-188.11 -124.54)"/>
            </g>
          </g>
          <path id="Tracé_1177" data-name="Tracé 1177" class="cls-10" d="M216.117,151.51c.006,0-8.208,3.324-9.084,3.942a1.947,1.947,0,0,0-.349,2.767,2.05,2.05,0,0,0,2.8.533C210.375,158.139,216.129,151.51,216.117,151.51Zm-8.631,6.145a.963.963,0,0,1,.171-1.365,1.012,1.012,0,0,1,1.377.263.958.958,0,0,1-.171,1.365A1.014,1.014,0,0,1,207.486,157.655Z" transform="translate(-186.141 -135.002)"/>
          <g id="Groupe_427" data-name="Groupe 427" transform="translate(33.931 9.732)">
            <path id="Tracé_1178" data-name="Tracé 1178" class="cls-1" d="M234.6,143.329a2.607,2.607,0,0,1-2.638,2.889,3.207,3.207,0,0,1-3.134-2.889,2.59,2.59,0,0,1,2.62-2.889A3.244,3.244,0,0,1,234.6,143.329Z" transform="translate(-228.821 -140.44)"/>
            <path id="Tracé_1179" data-name="Tracé 1179" class="cls-10" d="M231.837,143.789a.41.41,0,0,1-.416.459.52.52,0,0,1-.5-.459.413.413,0,0,1,.416-.459A.509.509,0,0,1,231.837,143.789Z" transform="translate(-229.634 -141.561)"/>
            <path id="Tracé_1180" data-name="Tracé 1180" class="cls-10" d="M235.407,143.789a.41.41,0,0,1-.416.459.52.52,0,0,1-.5-.459.413.413,0,0,1,.416-.459A.509.509,0,0,1,235.407,143.789Z" transform="translate(-231.019 -141.561)"/>
            <path id="Tracé_1181" data-name="Tracé 1181" class="cls-10" d="M232.684,147.361h0a2.439,2.439,0,0,1-1.64-.643.237.237,0,0,1-.018-.324.231.231,0,0,1,.324-.012,1.991,1.991,0,0,0,1.328.526h.006a1.643,1.643,0,0,0,1.212-.508.23.23,0,1,1,.337.312A2.11,2.11,0,0,1,232.684,147.361Z" transform="translate(-229.654 -142.721)"/>
          </g>
          <g id="Groupe_428" data-name="Groupe 428" transform="translate(17.604 1.126)">
            <path id="Tracé_1182" data-name="Tracé 1182" class="cls-1" d="M207.946,129.269a2.535,2.535,0,0,1-2.571,2.889,3.312,3.312,0,0,1-3.207-2.889,2.515,2.515,0,0,1,2.546-2.889A3.352,3.352,0,0,1,207.946,129.269Z" transform="translate(-202.148 -126.38)"/>
            <path id="Tracé_1183" data-name="Tracé 1183" class="cls-10" d="M205.156,129.729a.4.4,0,0,1-.4.459.532.532,0,0,1-.514-.459.4.4,0,0,1,.4-.459A.526.526,0,0,1,205.156,129.729Z" transform="translate(-202.957 -127.501)"/>
            <path id="Tracé_1184" data-name="Tracé 1184" class="cls-10" d="M208.726,129.729a.4.4,0,0,1-.4.459.532.532,0,0,1-.514-.459.4.4,0,0,1,.4-.459A.531.531,0,0,1,208.726,129.729Z" transform="translate(-204.342 -127.501)"/>
            <path id="Tracé_1185" data-name="Tracé 1185" class="cls-10" d="M207.451,132.723h-2.865a.226.226,0,1,1,0-.453h2.865a.226.226,0,0,1,.226.226A.23.23,0,0,1,207.451,132.723Z" transform="translate(-203.006 -128.665)"/>
          </g>
          <g id="Groupe_429" data-name="Groupe 429" transform="translate(3.081 9.732)">
            <path id="Tracé_1186" data-name="Tracé 1186" class="cls-1" d="M184.2,143.329a2.6,2.6,0,0,1-2.638,2.889,3.207,3.207,0,0,1-3.134-2.889,2.59,2.59,0,0,1,2.62-2.889A3.248,3.248,0,0,1,184.2,143.329Z" transform="translate(-178.421 -140.44)"/>
            <path id="Tracé_1187" data-name="Tracé 1187" class="cls-10" d="M181.437,143.789a.41.41,0,0,1-.416.459.52.52,0,0,1-.5-.459.413.413,0,0,1,.416-.459A.509.509,0,0,1,181.437,143.789Z" transform="translate(-179.234 -141.561)"/>
            <path id="Tracé_1188" data-name="Tracé 1188" class="cls-10" d="M185,143.789a.41.41,0,0,1-.416.459.515.515,0,0,1-.5-.459.413.413,0,0,1,.416-.459A.5.5,0,0,1,185,143.789Z" transform="translate(-180.615 -141.561)"/>
            <path id="Tracé_1189" data-name="Tracé 1189" class="cls-10" d="M180.877,147.361a.213.213,0,0,1-.153-.061.231.231,0,0,1-.012-.324,2.093,2.093,0,0,1,1.549-.655,2.413,2.413,0,0,1,1.634.643.23.23,0,0,1-.312.337,2,2,0,0,0-1.334-.526,1.622,1.622,0,0,0-1.206.514A.219.219,0,0,1,180.877,147.361Z" transform="translate(-179.286 -142.721)"/>
          </g>
        </g>
        <path id="Tracé_1190" data-name="Tracé 1190" class="cls-10" d="M216.221,102.426a12.376,12.376,0,0,0-11.177-6.678h-9.781a3.824,3.824,0,0,1-3.4-1.775c-1.365-2.559-4.621-4.383-8.312-4.383s-6.733,1.824-7.81,4.383a3.368,3.368,0,0,1-3.2,1.775h-9.787c-4.8,0-8.961,2.663-10.412,6.678a1.017,1.017,0,0,0-.061.447,1.242,1.242,0,0,0,1.224,1.157h61.742A1.1,1.1,0,0,0,216.221,102.426Zm-32.258-5.576a2.926,2.926,0,0,1-2.883-2.724,2.549,2.549,0,0,1,2.571-2.724,2.922,2.922,0,0,1,2.883,2.724A2.545,2.545,0,0,1,183.964,96.849Z" transform="translate(-125.208 -89.59)"/>
      </g>
      <g id="Character_1_" transform="translate(191.894 103.846)">
        <g id="Groupe_435" data-name="Groupe 435">
          <g id="Groupe_432" data-name="Groupe 432" transform="translate(37.158 30.844)">
            <path id="Tracé_1191" data-name="Tracé 1191" class="cls-4" d="M359.5,408.424a1.962,1.962,0,0,1-1.359-.337.411.411,0,0,1-.043-.465.455.455,0,0,1,.312-.251c.722-.2,2.4.692,2.467.728a.112.112,0,0,1,.061.11.086.086,0,0,1-.073.086A7.246,7.246,0,0,1,359.5,408.424Zm-.808-.869a.7.7,0,0,0-.2.025.254.254,0,0,0-.19.147c-.061.135-.024.2.006.233.239.288,1.377.3,2.2.178A5.5,5.5,0,0,0,358.691,407.555Z" transform="translate(-346.174 -257.946)"/>
            <path id="Tracé_1192" data-name="Tracé 1192" class="cls-4" d="M361.5,407.615a.114.114,0,0,1-.043-.012c-.569-.245-1.757-1.218-1.726-1.726.006-.122.073-.269.361-.3a.826.826,0,0,1,.612.184,3.459,3.459,0,0,1,.894,1.732.113.113,0,0,1-.031.1A.1.1,0,0,1,361.5,407.615Zm-1.3-1.824a.207.207,0,0,0-.061.006c-.19.018-.2.1-.2.122-.012.306.8,1.071,1.389,1.4a2.857,2.857,0,0,0-.747-1.389A.637.637,0,0,0,360.195,405.791Z" transform="translate(-346.827 -257.259)"/>
            <path id="Tracé_1193" data-name="Tracé 1193" class="cls-11" d="M366.809,402.138h-4.5L360.7,391.72h4.493Z" transform="translate(-347.203 -251.886)"/>
            <path id="Tracé_1194" data-name="Tracé 1194" class="cls-10" d="M358.209,407.89h4.909a.453.453,0,0,1,.416.306l1.334,4a.584.584,0,0,1-.557.8c-1.775-.031-4.346-.135-6.574-.135-2.6,0-2.369.141-5.423.141-1.849,0-2.565-1.867-1.812-2.038,3.434-.771,3.832-.851,6.66-2.724A1.929,1.929,0,0,1,358.209,407.89Z" transform="translate(-343.133 -258.159)"/>
            <g id="Groupe_431" data-name="Groupe 431" transform="translate(13.497 139.84)">
              <path id="Tracé_1195" data-name="Tracé 1195" class="cls-12" d="M360.7,391.73l.832,5.368h4.5l-.832-5.368Z" transform="translate(-360.7 -391.73)"/>
            </g>
            <path id="Tracé_1196" data-name="Tracé 1196" class="cls-11" d="M367.9,225.45l-3.054,3.091,4.689,1.659s1.818-2.522.551-4.248Z" transform="translate(-348.813 -187.39)"/>
            <path id="Tracé_1197" data-name="Tracé 1197" class="cls-11" d="M363.16,234.821l4.683.686,1.047-3.348L364.2,230.5Z" transform="translate(-348.158 -189.349)"/>
            <path id="Tracé_1198" data-name="Tracé 1198" class="cls-10" d="M368.3,163.27c.4.851.716,1.585,1.034,2.375s.624,1.561.918,2.344c.581,1.573,1.1,3.177,1.585,4.8s.881,3.287,1.218,4.989l.233,1.285.19,1.31c.067.435.11.881.147,1.334s.1.851.1,1.42l.018.8-.031.7-.037.7-.061.655c-.08.881-.2,1.708-.312,2.546-.245,1.653-.52,3.269-.832,4.872-.649,3.2-1.359,6.329-2.216,9.481l-5.576-1.1c.349-3.116.722-6.268,1.016-9.377.147-1.555.294-3.1.379-4.621.037-.753.08-1.512.08-2.222l.006-.539-.012-.5-.012-.5-.043-.4c-.006-.233-.086-.63-.135-.961s-.1-.686-.184-1.034l-.22-1.047-.263-1.053c-.379-1.408-.808-2.822-1.3-4.236s-1.034-2.822-1.6-4.217c-.288-.7-.581-1.4-.881-2.087-.3-.673-.63-1.4-.912-2Z" transform="translate(-347.161 -163.27)"/>
            <path id="Tracé_1199" data-name="Tracé 1199" class="cls-4" d="M338.65,221.87s.747,34.424,2.767,48.135c2.106,14.262,9.769,60.163,9.769,60.163H358.8s-2.736-43.685-3.605-57.721c-.949-15.3-.741-50.578-.741-50.578Z" transform="translate(-338.65 -186.001)"/>
            <path id="Tracé_1200" data-name="Tracé 1200" class="cls-10" d="M356.179,393.84c-.037,0,.783,3.165.783,3.165h9.267l-.067-2.822Z" transform="translate(-345.449 -252.709)"/>
          </g>
          <ellipse id="Ellipse_16" data-name="Ellipse 16" class="cls-10" cx="0.692" cy="0.453" rx="0.692" ry="0.453" transform="translate(34.498 11.546) rotate(-86.48)"/>
          <path id="Tracé_1201" data-name="Tracé 1201" class="cls-13" d="M334.314,131.78a14.2,14.2,0,0,1-1.934,3.256,2.157,2.157,0,0,0,1.806.343Z" transform="translate(-299.06 -120.211)"/>
          <path id="Tracé_1202" data-name="Tracé 1202" class="cls-10" d="M336.911,126.656a.2.2,0,0,1-.129-.043,1.782,1.782,0,0,0-1.579-.294.213.213,0,0,1-.282-.129.223.223,0,0,1,.141-.288,2.177,2.177,0,0,1,2,.349.217.217,0,0,1,.037.312A.256.256,0,0,1,336.911,126.656Z" transform="translate(-300.04 -117.891)"/>
          <path id="Tracé_1203" data-name="Tracé 1203" class="cls-11" d="M348.584,137.52c-.759,3.287-1.616,9.316.606,11.514,0,0-1.016,3.336-7.131,3.336-6.721,0-3.1-3.336-3.1-3.336,3.7-.875,3.7-3.6,3.152-6.152Z" transform="translate(-301.234 -122.438)"/>
          <path id="Tracé_1204" data-name="Tracé 1204" class="cls-4" d="M350.589,156.316c.661-1.347,1.389-2.883.012-3.367-1.518-.533-9.91-1.071-12.842-.073a3.087,3.087,0,0,0-2.21,3.722Z" transform="translate(-300.258 -128.178)"/>
          <path id="Tracé_1205" data-name="Tracé 1205" class="cls-10" d="M367.115,158.1c3.875,1.787,5.846,15.339,5.846,15.339l-7.8,2.448a79.262,79.262,0,0,1-3.385-11.024C360.565,159.212,363.148,156.274,367.115,158.1Z" transform="translate(-310.345 -130.211)"/>
          <path id="Tracé_1206" data-name="Tracé 1206" class="cls-11" d="M288,190.927l-3.6-3.1-3.238,4.713s2.907,2.332,6.1,1.377Z" transform="translate(-279.191 -141.953)"/>
          <path id="Tracé_1207" data-name="Tracé 1207" class="cls-11" d="M278.321,186.345l-.373,3.458a.678.678,0,0,0,.257.606l1.7,1.322,3.238-4.713-3.954-1.249A.674.674,0,0,0,278.321,186.345Z" transform="translate(-277.944 -141.142)"/>
          <path id="Tracé_1208" data-name="Tracé 1208" class="cls-11" d="M348.067,124.976c-.453,4.676-.477,7.431-2.926,9.83a6.1,6.1,0,0,1-10.326-3.2c-.857-4.205.025-11.146,4.67-13.007A6.177,6.177,0,0,1,348.067,124.976Z" transform="translate(-299.891 -114.907)"/>
          <path id="Tracé_1209" data-name="Tracé 1209" class="cls-10" d="M338.961,124.449c-.41-3.232-.343-4.456,1.383-5.166-1.793-.355-3.348-.41-4.089-1.457s-.918-3.722,2.681-4.946c-.331.637.716,1.885,4.028.741s8.135-1.273,8.557,2.093c1.751-.612,4.683,4.793,1.249,8.741-2.883,3.305-4.8,5.588-5.368,7.339a.6.6,0,0,1-.839.367c-1.2-.557-3.33-.08-4.279.178a.593.593,0,0,1-.7-.318A29.729,29.729,0,0,1,338.961,124.449Z" transform="translate(-300.395 -112.88)"/>
          <path id="Tracé_1210" data-name="Tracé 1210" class="cls-10" d="M360.48,117.5s1.42-2,4.138-.514A12.321,12.321,0,0,0,360.48,117.5Z" transform="translate(-309.96 -114.258)"/>
          <path id="Tracé_1211" data-name="Tracé 1211" class="cls-10" d="M360.86,116.632s1.977-1.212.435-3.532A8.894,8.894,0,0,1,360.86,116.632Z" transform="translate(-310.107 -112.965)"/>
          <path id="Tracé_1212" data-name="Tracé 1212" class="cls-11" d="M342.342,130.714a5.59,5.59,0,0,1-1.634,3.03c-1.132,1.071-2.112.312-2.148-1.071-.031-1.243.526-3.293,1.83-3.844C341.669,128.29,342.575,129.33,342.342,130.714Z" transform="translate(-301.456 -119.01)"/>
          <path id="Tracé_1213" data-name="Tracé 1213" class="cls-14" d="M339.68,253.12c.441,10.271,1.132,22.195,2.136,29.007.386,2.6.949,6.231,1.622,10.449C346.144,277.812,347.76,258.788,339.68,253.12Z" transform="translate(-301.891 -167.279)"/>
          <g id="Groupe_434" data-name="Groupe 434" transform="translate(25.288 66.713)">
            <path id="Tracé_1214" data-name="Tracé 1214" class="cls-4" d="M333.3,408.424c-.575,0-1.132-.08-1.31-.337a.4.4,0,0,1,.024-.465.558.558,0,0,1,.349-.251c.753-.2,2.3.692,2.363.728a.113.113,0,0,1,.049.11.1.1,0,0,1-.086.086A7.66,7.66,0,0,1,333.3,408.424Zm-.679-.869a.747.747,0,0,0-.208.025.327.327,0,0,0-.214.147c-.08.135-.055.2-.031.233.2.288,1.334.3,2.173.178A4.691,4.691,0,0,0,332.621,407.555Z" transform="translate(-324.173 -293.815)"/>
            <path id="Tracé_1215" data-name="Tracé 1215" class="cls-4" d="M335.434,407.615a.114.114,0,0,1-.043-.012c-.533-.245-1.573-1.218-1.475-1.726.024-.122.116-.269.41-.3a.722.722,0,0,1,.582.184,2.917,2.917,0,0,1,.637,1.732.128.128,0,0,1-.049.1A.088.088,0,0,1,335.434,407.615Zm-1.034-1.824a.207.207,0,0,0-.061.006c-.19.018-.208.1-.214.122-.061.306.643,1.071,1.187,1.4a2.394,2.394,0,0,0-.545-1.389A.563.563,0,0,0,334.4,405.791Z" transform="translate(-324.941 -293.128)"/>
            <path id="Tracé_1216" data-name="Tracé 1216" class="cls-11" d="M341.582,402.138H337.09l-.08-10.418H341.5Z" transform="translate(-326.144 -287.755)"/>
            <path id="Tracé_1217" data-name="Tracé 1217" class="cls-10" d="M330.246,407.89h4.909a.38.38,0,0,1,.373.306l.747,4a.68.68,0,0,1-.673.8c-1.769-.031-4.328-.135-6.556-.135-2.6,0-4.854.141-7.908.141-1.849,0-2.3-1.867-1.512-2.038,3.544-.771,6.421-.851,9.524-2.724A2.183,2.183,0,0,1,330.246,407.89Z" transform="translate(-319.257 -294.028)"/>
            <g id="Groupe_433" data-name="Groupe 433" transform="translate(10.866 103.971)">
              <path id="Tracé_1218" data-name="Tracé 1218" class="cls-12" d="M337.01,391.73l.037,5.368h4.5l-.037-5.368Z" transform="translate(-337.01 -391.73)"/>
            </g>
            <path id="Tracé_1219" data-name="Tracé 1219" class="cls-4" d="M324.4,221.87s-1.806,33.623-1.8,47.334c.006,14.262,7.223,60.965,7.223,60.965h7.615s-1.983-45.871-1.151-59.875c.906-15.272,5.331-48.423,5.331-48.423Z" transform="translate(-320.554 -221.87)"/>
            <path id="Tracé_1220" data-name="Tracé 1220" class="cls-4" d="M332.178,393.84c-.037,0,.318,3.165.318,3.165h9.267l.349-2.822Z" transform="translate(-324.268 -288.578)"/>
          </g>
          <path id="Tracé_1221" data-name="Tracé 1221" class="cls-10" d="M324.944,157.484s-7.663,19.361-4.328,52.818H348.6c.294-3.691-2.632-35.655,1.542-53.051a62.046,62.046,0,0,0-8.012-1.016,88.919,88.919,0,0,0-10.222,0A45.8,45.8,0,0,0,324.944,157.484Z" transform="translate(-294.171 -129.64)"/>
          <path id="Tracé_1222" data-name="Tracé 1222" class="cls-15" d="M321.129,182.491c-.416,3.085-.759,6.556-.979,10.387,5.435-4.995,7.3-17.439,7.3-17.439Z" transform="translate(-294.316 -137.147)"/>
          <path id="Tracé_1223" data-name="Tracé 1223" class="cls-10" d="M315.443,171.6c-1.1,2.865-2.216,5.619-3.434,8.4s-2.491,5.515-3.917,8.251l-.545,1.028-.275.514c-.116.208-.1.22-.428.753a5.935,5.935,0,0,1-2.21,2.057,6.584,6.584,0,0,1-2.393.722,10.077,10.077,0,0,1-3.428-.275,19.275,19.275,0,0,1-2.6-.845,34.15,34.15,0,0,1-4.389-2.2c-.686-.4-1.353-.82-2.008-1.255s-1.279-.863-1.971-1.365l3.311-5.062a43.429,43.429,0,0,0,7.431,3.226,11.226,11.226,0,0,0,1.671.38,2.391,2.391,0,0,0,.985,0c.037-.018-.08-.037-.288.067a1.7,1.7,0,0,0-.624.539c-.129.214.037-.1.092-.233l.22-.477.441-.967c1.163-2.6,2.234-5.282,3.287-7.988,1.028-2.705,2.063-5.466,3-8.159Z" transform="translate(-281.786 -134.533)"/>
          <path id="Tracé_1224" data-name="Tracé 1224" class="cls-10" d="M328.575,160.22c1.426,4-8.7,20.12-8.7,20.12l-6.011-5.95s1.536-5.068,3.569-11.159C319.418,157.233,327.21,156.394,328.575,160.22Z" transform="translate(-291.876 -130.343)"/>
        </g>
      </g>
    </g>
  </g>
</svg>
