<svg xmlns="http://www.w3.org/2000/svg" width="20.92" height="17" viewBox="0 0 20.92 17">
  <defs>
    <style>
      .cls-1 {
        fill: #fff;
      }
    </style>
  </defs>
  <path id="Tracé_1117" data-name="Tracé 1117" class="cls-1" d="M3840.92,53a8.566,8.566,0,0,1-2.46.69,4.3,4.3,0,0,0,1.88-2.38,8.642,8.642,0,0,1-2.72,1.05,4.225,4.225,0,0,0-3.16-1.36,4.285,4.285,0,0,0-4.27,4.29,4.454,4.454,0,0,0,.11.98,12.2,12.2,0,0,1-8.84-4.48,4.273,4.273,0,0,0,1.33,5.71,4.242,4.242,0,0,1-1.95-.5v.03a4.293,4.293,0,0,0,3.44,4.21,4.206,4.206,0,0,1-1.93.07,4.279,4.279,0,0,0,4,2.98,8.522,8.522,0,0,1-5.33,1.84,8.723,8.723,0,0,1-1.02-.06,12.2,12.2,0,0,0,18.79-10.28c0-.19,0-.37-.01-.56A8.567,8.567,0,0,0,3840.92,53Z" transform="translate(-3820 -51)"/>
</svg>
