<svg xmlns="http://www.w3.org/2000/svg" width="20.8" height="25.738" viewBox="0 0 20.8 25.738"><defs><style>.a{fill:#0590ff;}</style></defs><path class="a" d="M2.1,23V21.3c0-2.2,3.3-4.2,6.9-4.9a1.572,1.572,0,0,0,.8-1.7,7.665,7.665,0,0,1-1.4-2.9,3.039,3.039,0,0,1-.7-.5,4.4,4.4,0,0,1-.6-2.5c.1-.8.3-.5.4-.7A6.955,6.955,0,0,1,8,2.3C9.9-1,13.9,0,14.5,1.2,18.3.5,18.2,6.5,17.6,8c0,0,.3.1.3,1.5a3.559,3.559,0,0,1-1.3,2.4,6.834,6.834,0,0,1-1.3,2.7,1.079,1.079,0,0,0,.7,1.7c3.6.7,6.9,2.7,6.9,4.9v1.7c0,1.4-5.4,2.9-10.4,2.9C7.6,25.8,2.1,25.3,2.1,23Z" transform="translate(-2.1 -0.062)"/></svg>