<svg xmlns="http://www.w3.org/2000/svg" width="35.701" height="40.313" viewBox="0 0 35.701 40.313">
  <g id="gif-file-format-symbol" transform="translate(-31.504)" opacity="0.5">
    <path id="Tracé_1107" data-name="Tracé 1107" d="M64.946,14.42h-.968V9.749a.684.684,0,0,0-.008-.088.775.775,0,0,0-.188-.512L56.009.27,56,.265a.777.777,0,0,0-.157-.132C55.829.121,55.812.112,55.794.1a.829.829,0,0,0-.156-.066L55.6.022A.8.8,0,0,0,55.414,0h-19.1a1.582,1.582,0,0,0-1.581,1.581V14.419h-.968a2.259,2.259,0,0,0-2.26,2.259v11.75a2.26,2.26,0,0,0,2.26,2.26h.968v8.043a1.583,1.583,0,0,0,1.581,1.581H62.4a1.583,1.583,0,0,0,1.581-1.581V30.689h.968a2.26,2.26,0,0,0,2.259-2.259V16.679A2.26,2.26,0,0,0,64.946,14.42ZM62.4,38.3H36.312V30.689H62.4V38.3ZM43.385,26.568a3.58,3.58,0,0,0,1.314-.174V23.924H42.878V21.84h4.4v6.217a13.217,13.217,0,0,1-3.941.665,6.579,6.579,0,0,1-4.8-1.594,5.709,5.709,0,0,1-1.664-4.29c.017-3.923,2.873-6.165,6.743-6.165a8.131,8.131,0,0,1,3.275.578l-.56,2.136a6.544,6.544,0,0,0-2.75-.507A3.572,3.572,0,0,0,39.671,22.7,3.548,3.548,0,0,0,43.385,26.568ZM49.359,28.6V16.8h2.679V28.6Zm11.91-6.917v2.171H57.03V28.6H54.351V16.8h7.216v2.188H57.03v2.7h4.239ZM62.4,14.42H36.312V1.581H54.624V9.669a.791.791,0,0,0,.79.79H62.4v3.96Z" transform="translate(0)" fill="#e4e4e4"/>
  </g>
</svg>
