<svg xmlns="http://www.w3.org/2000/svg" width="46" height="39.947" viewBox="0 0 46 39.947">
  <g id="Groupe_303" data-name="Groupe 303" transform="translate(-165.001 -276)">
    <g id="image" transform="translate(165 275.5)" opacity="0.5">
      <path id="Tracé_1108" data-name="Tracé 1108" d="M185.4,105.623a4.653,4.653,0,1,0-4.653-4.653A4.659,4.659,0,0,0,185.4,105.623Zm0-6.577a1.924,1.924,0,1,1-1.924,1.924A1.926,1.926,0,0,1,185.4,99.045Zm0,0" transform="translate(-164.561 -87.1)" fill="#e4e4e4"/>
      <path id="Tracé_1109" data-name="Tracé 1109" d="M44.321.5H1.68A1.692,1.692,0,0,0,0,2.2V38.747a1.692,1.692,0,0,0,1.68,1.7H44.321a1.692,1.692,0,0,0,1.68-1.7V2.2A1.692,1.692,0,0,0,44.321.5ZM43.305,3.229v21.6l-8.477-8.584a1.407,1.407,0,0,0-2,0L20.836,28.383l-7.658-7.754a1.405,1.405,0,0,0-2.005,0L2.7,29.211V3.229ZM2.7,37.718V33.071l9.479-9.6,7.658,7.754a1.4,1.4,0,0,0,2.005,0l11.989-12.14,9.479,9.6v9.032Zm0,0" fill="#e4e4e4"/>
    </g>
  </g>
</svg>
