<svg xmlns="http://www.w3.org/2000/svg" width="39.947" height="39.947" viewBox="0 0 39.947 39.947">
  <g id="video-player" opacity="0.5">
    <path id="Tracé_1110" data-name="Tracé 1110" d="M19.974,0A19.974,19.974,0,1,0,39.947,19.974,19.974,19.974,0,0,0,19.974,0Zm0,38.616A18.642,18.642,0,1,1,38.616,19.974,18.642,18.642,0,0,1,19.974,38.616Zm0,0" fill="#e4e4e4"/>
    <path id="Tracé_1111" data-name="Tracé 1111" d="M139.563,153.382a.666.666,0,0,0-.726.144l-4.19,4.19v-5.051a.666.666,0,0,0-.666-.666H120.666a.666.666,0,0,0-.666.666v13.316a.666.666,0,0,0,.666.666h13.316a.666.666,0,0,0,.666-.666v-5.051l4.19,4.19a.666.666,0,0,0,1.137-.471V154a.666.666,0,0,0-.411-.615Zm-6.247,11.934H121.332V153.331h11.984Zm5.326-2.273-3.719-3.719,3.719-3.719Zm0,0" transform="translate(-110.014 -139.35)" fill="#e4e4e4"/>
  </g>
</svg>
